<?xml version="1.0" standalone="no"?>
<!DOCTYPE svg PUBLIC "-//W3C//DTD SVG 20010904//EN"
 "http://www.w3.org/TR/2001/REC-SVG-20010904/DTD/svg10.dtd">
<svg version="1.0" xmlns="http://www.w3.org/2000/svg"
 width="331.000000pt" height="214.000000pt" viewBox="0 0 331.000000 214.000000"
 preserveAspectRatio="xMidYMid meet">

<g transform="translate(0.000000,214.000000) scale(0.100000,-0.100000)"
fill="#000000" stroke="none">
<path d="M1040 1539 c-45 -10 -49 -19 -5 -12 28 4 36 3 31 -5 -4 -7 -22 -12
-39 -12 -18 0 -38 -4 -46 -9 -8 -5 18 -10 70 -14 100 -6 1507 -6 1434 0 -27 2
-55 9 -62 15 -9 7 -203 11 -622 10 -334 0 -623 4 -642 8 -26 6 -17 8 41 7 281
-2 1152 4 1148 9 -8 7 -1270 10 -1308 3z m1178 -46 c-21 -2 -57 -2 -80 0 -24
2 -7 4 37 4 44 0 63 -2 43 -4z"/>
<path d="M923 1464 c3 -3 243 -7 534 -8 524 -2 528 -2 571 -24 23 -12 42 -19
42 -15 0 5 4 3 8 -4 5 -8 63 -12 192 -13 296 -3 478 1 445 9 -16 4 -44 15 -62
24 -17 9 -40 14 -49 10 -11 -4 -15 -2 -11 4 4 6 -19 13 -61 17 -84 7 -1617 8
-1609 0z m1505 -21 c-53 -2 -143 -2 -200 0 -57 1 -13 3 97 3 110 0 156 -2 103
-3z m-221 -30 c-20 -2 -52 -2 -70 0 -17 2 0 4 38 4 39 0 53 -2 32 -4z m116 0
c-7 -2 -19 -2 -25 0 -7 3 -2 5 12 5 14 0 19 -2 13 -5z m210 0 c-35 -2 -91 -2
-125 0 -35 2 -7 3 62 3 69 0 97 -1 63 -3z m125 0 c-10 -2 -28 -2 -40 0 -13 2
-5 4 17 4 22 1 32 -1 23 -4z"/>
<path d="M844 1428 c-2 -3 4 -9 13 -11 14 -4 13 -5 -4 -6 -13 0 -23 -5 -23
-11 0 -6 204 -11 560 -12 l559 -3 35 -38 35 -38 501 2 c275 1 502 5 505 9 5 8
-77 20 -137 20 -28 0 -36 3 -32 14 5 13 -51 15 -391 16 l-397 1 -58 29 -58 30
-552 2 c-304 2 -554 0 -556 -4z"/>
<path d="M182 1348 c-12 -15 148 -14 493 1 188 8 187 8 -146 9 -259 2 -339 -1
-347 -10z"/>
<path d="M908 1353 c12 -2 32 -2 45 0 12 2 2 4 -23 4 -25 0 -35 -2 -22 -4z"/>
<path d="M1002 1349 c-9 -4 194 -7 452 -8 259 -1 467 1 463 5 -8 9 -892 11
-915 3z"/>
<path d="M185 1312 c-9 -25 5 -31 85 -37 131 -9 169 -27 213 -101 6 -11 60
-14 268 -14 l261 0 30 31 c17 17 42 35 55 40 13 5 192 9 397 9 358 0 374 -1
399 -20 24 -19 39 -20 484 -18 252 1 413 5 358 8 -77 5 -87 7 -45 9 30 2 87 5
125 7 39 2 72 9 73 14 2 6 8 10 14 10 6 0 8 -6 5 -12 -5 -13 43 -20 53 -7 3 3
19 13 35 22 28 15 -4 16 -477 16 -358 0 -513 3 -528 11 -16 8 -25 8 -35 0 -7
-6 -31 -10 -52 -7 l-38 4 43 1 c26 1 41 6 37 12 -3 6 0 10 7 10 8 1 5 7 -7 16
-18 13 -125 15 -887 13 -769 -1 -868 -3 -873 -17z m248 -9 c-7 -2 -21 -2 -30
0 -10 3 -4 5 12 5 17 0 24 -2 18 -5z m54 1 c-3 -3 -12 -4 -19 -1 -8 3 -5 6 6
6 11 1 17 -2 13 -5z m1345 -11 c-40 -2 -103 -2 -140 0 -37 2 -4 3 73 3 77 0
107 -2 67 -3z m-1215 -39 c-3 -3 -12 -4 -19 -1 -8 3 -5 6 6 6 11 1 17 -2 13
-5z m1346 -11 c-13 -2 -35 -2 -50 0 -16 2 -5 4 22 4 28 0 40 -2 28 -4z m54 1
c-3 -3 -12 -4 -19 -1 -8 3 -5 6 6 6 11 1 17 -2 13 -5z m360 -1 c-20 -2 -52 -2
-70 0 -17 2 0 4 38 4 39 0 53 -2 32 -4z m116 0 c-13 -2 -35 -2 -50 0 -16 2 -5
4 22 4 28 0 40 -2 28 -4z m340 0 c-7 -2 -21 -2 -30 0 -10 3 -4 5 12 5 17 0 24
-2 18 -5z m44 1 c-3 -3 -12 -4 -19 -1 -8 3 -5 6 6 6 11 1 17 -2 13 -5z m-2139
-11 c-49 -2 -127 -2 -176 0 -48 1 -8 3 88 3 96 0 136 -2 88 -3z m329 -9 c-3
-3 -12 -4 -19 -1 -8 3 -5 6 6 6 11 1 17 -2 13 -5z m1163 -6 c0 -5 -28 -7 -62
-7 -51 1 -56 3 -28 8 47 8 90 8 90 -1z m130 -5 c3 -3 -23 -3 -58 -1 -34 1 -62
6 -62 10 0 7 111 -1 120 -9z m-317 0 c-18 -2 -48 -2 -65 0 -18 2 -4 4 32 4 36
0 50 -2 33 -4z m475 0 c-15 -2 -42 -2 -60 0 -18 2 -6 4 27 4 33 0 48 -2 33 -4z"/>
<path d="M215 1218 c27 -120 27 -113 -9 -253 -1 -5 -7 -26 -14 -45 -14 -44
-22 -123 -14 -137 12 -18 152 -84 164 -77 8 5 5 10 -8 15 -16 6 -14 8 9 8 16
1 26 5 22 11 -3 6 2 22 13 38 36 52 78 164 68 181 -4 5 2 12 13 16 10 3 29 14
41 25 21 18 38 20 184 20 89 0 171 -3 184 -6 23 -7 68 -78 64 -101 -2 -6 2
-14 8 -18 19 -12 11 -35 -12 -35 -17 0 -19 -3 -9 -9 10 -6 10 -10 1 -16 -15
-10 -125 -178 -122 -187 1 -5 -3 -8 -8 -8 -6 0 -10 -5 -10 -10 0 -6 -16 -34
-35 -63 -19 -28 -35 -57 -35 -63 0 -7 18 -19 41 -28 22 -9 38 -20 35 -25 -7
-11 22 -23 36 -14 7 3 8 1 4 -5 -4 -7 -2 -13 3 -13 39 -5 44 -3 46 21 2 14 22
56 44 93 23 37 39 72 36 77 -4 6 -1 10 5 10 6 0 16 12 23 28 6 15 14 29 17 32
21 20 60 82 65 103 4 14 13 32 21 38 12 10 12 14 2 20 -9 6 -7 9 8 9 21 0 52
24 77 60 12 17 30 22 103 28 144 13 147 13 160 -39 5 -24 14 -52 18 -62 5 -10
6 -33 3 -52 -4 -27 -3 -33 9 -28 8 3 14 13 14 23 0 31 51 109 88 138 21 15 41
33 45 39 6 9 39 13 112 13 101 0 105 1 138 30 31 27 42 30 118 34 110 6 967 8
977 2 4 -2 7 10 6 27 0 18 3 42 8 55 5 14 3 30 -5 43 -12 20 -18 20 -540 18
-504 -3 -528 -2 -549 16 -20 17 -42 19 -249 19 -224 1 -226 1 -213 -19 8 -11
14 -25 14 -32 0 -24 -25 -13 -42 17 l-17 30 -132 0 -131 0 -29 -31 c-16 -17
-29 -35 -29 -40 0 -5 -123 -9 -283 -9 l-283 0 -54 55 -55 55 -83 0 c-80 0 -82
-1 -77 -22z m205 -56 c0 -7 -33 -99 -59 -165 -15 -37 -16 -35 22 -40 29 -4 28
-4 -5 -3 l-37 1 -38 -95 c-21 -52 -37 -99 -35 -103 1 -4 -12 0 -29 8 -26 14
-29 18 -16 28 8 7 36 66 62 131 84 214 100 245 128 246 4 0 7 -3 7 -8z m1144
-14 c-3 -4 -14 -8 -25 -8 -15 0 -19 -7 -19 -35 l0 -35 55 0 c50 0 55 2 61 25
7 29 -8 52 -39 58 -12 2 2 5 32 6 l53 1 -7 -47 c-9 -63 -40 -93 -95 -93 -65 0
-80 13 -80 68 0 27 5 53 12 60 13 13 60 13 52 0z m-163 -22 c8 -16 8 -34 2
-53 l-10 -28 -131 -3 c-121 -2 -133 -1 -152 18 -22 22 -26 60 -8 78 8 8 56 12
150 12 136 0 139 0 149 -24z m-374 -222 c-3 -3 -12 -4 -19 -1 -8 3 -5 6 6 6
11 1 17 -2 13 -5z m-650 -20 c-3 -3 -12 -4 -19 -1 -8 3 -5 6 6 6 11 1 17 -2
13 -5z m706 -1 c-13 -2 -35 -2 -50 0 -16 2 -5 4 22 4 28 0 40 -2 28 -4z m-126
-69 c-3 -3 -12 -4 -19 -1 -8 3 -5 6 6 6 11 1 17 -2 13 -5z m66 -51 c-7 -2 -19
-2 -25 0 -7 3 -2 5 12 5 14 0 19 -2 13 -5z m-90 -20 c-7 -2 -19 -2 -25 0 -7 3
-2 5 12 5 14 0 19 -2 13 -5z m-30 -20 c-7 -2 -21 -2 -30 0 -10 3 -4 5 12 5 17
0 24 -2 18 -5z m-5 -60 c-10 -2 -26 -2 -35 0 -10 3 -2 5 17 5 19 0 27 -2 18
-5z m-8 -63 c13 -8 13 -10 -2 -10 -9 0 -20 5 -23 10 -8 13 5 13 25 0z m-73
-56 c-3 -3 -12 -4 -19 -1 -8 3 -5 6 6 6 11 1 17 -2 13 -5z"/>
<path d="M1134 1105 c1 -17 6 -23 14 -20 8 3 22 5 33 5 26 0 24 18 -3 23 -13
2 -4 5 20 6 24 0 42 -4 42 -10 0 -5 -4 -8 -9 -4 -5 3 -13 0 -17 -6 -5 -9 6
-11 44 -6 31 4 52 2 52 -3 0 -6 14 -10 30 -10 25 0 30 4 30 25 l0 25 -119 0
-119 0 2 -25z"/>
<path d="M1910 997 c-16 -4 -30 -14 -30 -22 0 -8 -6 -15 -14 -15 -8 0 -16 -6
-18 -12 -3 -9 -30 -12 -96 -10 -50 2 -99 -1 -109 -7 -10 -5 -25 -12 -34 -15
-30 -8 -71 -73 -72 -112 -2 -59 11 -63 215 -64 l181 0 61 30 62 30 267 0 267
1 25 27 c14 15 25 30 25 34 0 5 6 8 14 8 13 0 13 -4 0 -27 -16 -32 -17 -43 -5
-62 6 -10 13 -10 28 -3 20 11 95 104 106 132 3 8 6 2 6 -15 1 -16 -8 -43 -19
-60 -11 -16 -20 -33 -20 -37 0 -13 21 -9 36 7 11 10 27 13 57 9 l42 -6 39 75
c39 76 40 97 6 97 -10 0 -21 4 -24 8 -8 13 -946 22 -996 9z m327 -34 c-20 -2
-52 -2 -70 0 -17 2 0 4 38 4 39 0 53 -2 32 -4z m496 0 c-13 -2 -33 -2 -45 0
-13 2 -3 4 22 4 25 0 35 -2 23 -4z m124 1 c-3 -3 -12 -4 -19 -1 -8 3 -5 6 6 6
11 1 17 -2 13 -5z m-1092 -44 l30 -8 -35 0 c-19 -1 -53 3 -75 7 l-40 9 45 0
c25 0 59 -4 75 -8z m985 -34 c0 -3 -4 -8 -10 -11 -5 -3 -10 -1 -10 4 0 6 5 11
10 11 6 0 10 -2 10 -4z"/>
<path d="M1348 913 c6 -2 18 -2 25 0 6 3 1 5 -13 5 -14 0 -19 -2 -12 -5z"/>
<path d="M1100 780 c0 -5 5 -10 11 -10 5 0 7 5 4 10 -3 6 -8 10 -11 10 -2 0
-4 -4 -4 -10z"/>
<path d="M1980 730 c-9 -6 -10 -10 -3 -10 6 0 15 5 18 10 8 12 4 12 -15 0z"/>
<path d="M1558 713 c6 -2 18 -2 25 0 6 3 1 5 -13 5 -14 0 -19 -2 -12 -5z"/>
<path d="M280 666 c0 -2 7 -7 16 -10 8 -3 12 -2 9 4 -6 10 -25 14 -25 6z"/>
</g>
</svg>
