<?xml version="1.0" standalone="no"?>
<!DOCTYPE svg PUBLIC "-//W3C//DTD SVG 20010904//EN"
 "http://www.w3.org/TR/2001/REC-SVG-20010904/DTD/svg10.dtd">
<svg version="1.0" xmlns="http://www.w3.org/2000/svg"
 width="430.000000pt" height="442.000000pt" viewBox="0 0 430.000000 442.000000"
 preserveAspectRatio="xMidYMid meet">

<g transform="translate(0.000000,442.000000) scale(0.100000,-0.100000)"
fill="#000000" stroke="none">
<path d="M1935 4175 c-132 -30 -218 -66 -276 -115 -26 -22 -52 -40 -58 -40 -6
0 -44 -11 -85 -24 -123 -39 -259 -153 -449 -376 -102 -120 -200 -260 -262
-375 -21 -38 -41 -74 -45 -80 -9 -14 -40 -103 -90 -265 -23 -74 -49 -157 -58
-185 -13 -40 -16 -85 -14 -225 4 -276 35 -450 99 -544 15 -23 42 -68 59 -101
17 -33 46 -86 63 -118 31 -56 40 -90 71 -292 22 -137 34 -165 137 -320 29 -44
59 -88 66 -99 6 -10 19 -28 27 -40 9 -11 22 -34 30 -49 22 -45 184 -200 232
-223 23 -12 60 -29 81 -39 20 -10 37 -25 37 -34 0 -9 38 -54 85 -101 57 -57
94 -104 114 -146 34 -70 72 -106 151 -143 53 -25 61 -26 250 -26 187 0 198 1
280 28 l85 29 125 149 c156 188 205 234 305 288 125 68 187 138 330 366 38 61
77 120 86 132 17 23 47 102 69 183 7 25 17 59 23 76 7 23 7 40 -2 62 -12 27
-9 36 39 123 114 204 229 453 246 529 23 106 23 353 0 495 -22 132 -84 356
-131 464 -41 98 -119 246 -151 288 -13 17 -24 36 -24 41 0 26 -160 228 -256
323 -115 115 -192 162 -339 209 -22 7 -56 26 -76 41 -64 50 -164 95 -284 127
-154 41 -335 43 -490 7z m395 -20 c109 -11 181 -32 275 -81 50 -25 92 -50 95
-54 3 -4 22 -16 42 -27 21 -11 35 -23 31 -27 -4 -3 2 -16 13 -29 11 -12 32
-40 47 -62 14 -22 37 -51 51 -65 l24 -25 -22 -23 c-19 -21 -21 -37 -24 -165
-4 -189 -2 -197 64 -260 67 -66 69 -91 17 -196 -80 -158 -315 -354 -488 -405
-134 -40 -207 -49 -344 -43 -180 8 -315 55 -466 162 -120 86 -240 236 -270
339 -26 87 -22 103 45 167 49 47 60 63 61 91 0 18 4 82 8 143 11 130 5 176
-21 183 -10 2 -18 10 -18 16 0 23 150 193 191 216 15 8 45 29 68 46 40 31 140
67 271 98 66 15 207 16 350 1z m-862 -262 c-56 -71 -88 -118 -88 -129 0 -3 11
-4 24 -2 16 3 27 0 30 -9 3 -8 3 -80 0 -161 l-6 -147 -59 -58 c-56 -54 -59
-60 -59 -106 0 -230 255 -495 589 -612 72 -25 255 -43 368 -35 237 16 475 150
644 363 80 100 109 164 115 252 4 60 2 72 -12 78 -9 3 -36 26 -60 50 l-44 44
0 153 0 154 35 6 36 7 -29 37 c-15 20 -36 50 -46 65 -10 16 -39 51 -65 77 -42
44 -44 49 -21 44 47 -10 110 -36 110 -45 0 -5 7 -9 16 -9 42 0 323 -273 343
-333 2 -7 7 -14 11 -17 16 -11 137 -210 172 -280 64 -133 87 -192 127 -330 44
-154 59 -258 39 -272 -10 -7 -9 -11 5 -19 9 -5 17 -19 17 -30 0 -11 -4 -17
-10 -14 -6 4 -10 -8 -10 -30 0 -38 -24 -76 -33 -52 -4 9 -8 8 -16 -3 -9 -13
-11 -12 -11 3 0 11 -8 29 -19 43 l-18 23 -8 -62 c-4 -34 -9 -73 -11 -87 -2
-14 -6 -43 -9 -65 -10 -75 -37 -170 -72 -260 -35 -88 -43 -103 -88 -175 -13
-19 -64 -100 -113 -180 -95 -151 -176 -280 -245 -388 -22 -34 -42 -60 -45 -57
-3 3 4 18 16 33 12 15 32 45 43 67 12 22 29 51 39 65 89 130 312 500 355 593
47 97 93 285 102 417 17 224 -14 460 -60 468 -48 9 -66 -72 -73 -323 -7 -230
-9 -263 -17 -272 -7 -6 -12 104 -8 158 2 26 -21 45 -40 33 -5 -3 -9 1 -9 9 0
17 -47 43 -57 32 -5 -4 -2 -10 5 -12 21 -8 2 -23 -29 -23 -16 0 -29 -5 -29
-12 0 -9 -4 -8 -10 2 -5 8 -10 11 -10 7 0 -4 6 -18 14 -30 7 -12 16 -47 19
-77 4 -36 3 -48 -3 -35 -5 11 -9 34 -9 50 -1 22 -14 46 -45 80 -24 28 -54 63
-67 78 l-24 29 -46 -41 c-25 -22 -79 -80 -120 -128 -41 -48 -80 -93 -88 -99
-8 -6 -56 -29 -105 -50 -50 -21 -99 -44 -108 -52 -10 -8 -18 -12 -18 -8 0 11
43 45 56 46 20 0 153 69 161 83 4 8 18 19 30 26 13 6 22 15 20 19 -1 4 7 16
18 28 11 11 32 34 47 52 36 41 13 49 -25 9 -30 -32 -40 -29 -51 16 -6 26 -5
28 14 22 15 -5 26 0 42 20 l21 27 14 -23 c13 -22 14 -19 9 35 -3 33 -10 62
-16 66 -14 9 -2 40 16 40 23 0 13 81 -14 114 -24 32 -27 42 -12 51 6 4 10 -5
10 -19 0 -19 5 -26 18 -26 17 0 18 5 12 47 -4 26 -5 53 -3 60 3 7 2 13 -1 13
-4 0 -12 -14 -18 -31 -7 -20 -13 -27 -18 -19 -6 9 -12 6 -21 -11 -17 -32 -20
-51 -8 -65 6 -8 5 -13 -5 -17 -9 -4 -16 3 -21 20 -6 25 -7 25 -26 7 -11 -10
-17 -24 -14 -33 3 -8 3 -12 -1 -9 -9 9 -44 -10 -44 -24 0 -7 4 -7 13 0 8 6 21
6 37 0 19 -7 22 -11 10 -18 -9 -5 -19 -5 -27 2 -9 7 -14 6 -17 -3 -14 -43 -14
-44 -15 -26 -1 9 -6 17 -12 17 -5 0 -7 5 -3 11 4 7 -7 4 -24 -6 -17 -10 -29
-22 -26 -27 3 -4 -1 -5 -9 -2 -8 3 -18 0 -23 -7 -4 -8 -3 -10 4 -5 20 12 13 1
-15 -25 -18 -16 -24 -19 -20 -8 4 13 1 16 -14 12 -10 -3 -19 -9 -19 -13 0 -4
-12 -11 -26 -14 -22 -6 -24 -9 -13 -22 11 -13 9 -14 -12 -9 -16 4 -55 -4 -105
-22 -76 -27 -86 -28 -264 -27 -173 0 -191 2 -273 28 -48 16 -132 52 -187 82
-55 30 -104 54 -110 54 -5 0 -10 6 -10 13 0 6 -22 25 -48 41 -26 16 -73 60
-105 97 -44 51 -63 66 -78 62 -15 -4 -18 -2 -12 13 6 16 4 17 -8 7 -18 -14
-19 -9 -19 65 0 35 -4 45 -20 49 -11 3 -20 13 -20 22 0 13 -2 13 -9 2 -6 -9
-2 -20 10 -32 11 -11 19 -25 19 -33 0 -22 -20 -30 -21 -9 0 10 -6 2 -13 -17
-12 -33 -49 -57 -45 -28 3 25 -1 38 -12 38 -6 0 -9 -6 -6 -14 3 -8 -1 -20 -8
-26 -11 -9 -12 -17 -4 -31 10 -20 4 -43 -10 -35 -4 3 -5 -12 -1 -32 4 -28 10
-36 23 -34 9 2 17 -2 17 -8 0 -6 -5 -8 -12 -4 -8 5 -9 -4 -5 -34 4 -22 10 -47
13 -56 3 -9 2 -16 -4 -16 -10 0 -28 45 -53 130 -7 25 -16 50 -20 55 -7 11 -31
141 -49 275 -15 107 -1 291 29 371 22 59 100 146 235 261 62 54 144 103 154
93 2 -2 -20 -34 -50 -72z m-409 -365 c-27 -94 -15 -341 25 -526 19 -89 20
-107 1 -65 -17 40 -50 59 -72 42 -13 -11 -17 -10 -28 4 -18 25 -30 4 -26 -43
3 -43 18 -61 31 -40 8 13 10 13 10 -1 0 -9 -9 -19 -20 -22 -11 -3 -20 -11 -20
-17 0 -8 8 -10 23 -7 20 5 20 5 5 -7 -22 -16 -23 -36 -3 -36 19 0 15 -51 -6
-76 -12 -16 -12 -17 3 -11 13 4 15 2 11 -11 -4 -9 -11 -20 -16 -23 -5 -4 -11
-49 -14 -100 -2 -52 -5 -107 -7 -124 -1 -16 -4 -66 -5 -110 l-4 -80 -9 65 c-5
36 -7 179 -3 320 5 224 4 261 -11 295 -18 44 -30 56 -51 48 -25 -10 -43 -61
-64 -184 -16 -99 -19 -148 -15 -263 10 -254 39 -365 143 -551 94 -168 113
-205 113 -218 0 -6 -13 11 -28 38 -16 28 -38 66 -50 85 -12 19 -26 45 -31 57
-6 12 -21 39 -34 60 -35 57 -84 189 -98 263 -7 36 -15 70 -19 75 -4 6 -8 30
-9 55 -1 25 -6 47 -12 48 -5 2 -9 10 -9 18 0 9 4 13 8 10 5 -3 9 10 10 29 2
40 -10 52 -29 28 -10 -12 -10 -14 -1 -9 7 4 12 1 12 -9 0 -11 -6 -14 -25 -9
-15 4 -25 2 -25 -5 0 -6 -7 -8 -15 -5 -8 4 -15 2 -15 -4 0 -5 7 -13 16 -16 13
-5 14 -9 4 -21 -9 -11 -17 -12 -31 -4 -16 8 -19 6 -19 -12 0 -27 -12 -17 -17
14 -11 67 -7 167 8 217 10 30 27 89 39 130 12 41 30 98 41 125 10 28 19 55 19
61 0 6 9 19 19 28 16 14 18 22 9 36 -9 14 -4 32 27 90 45 88 111 198 131 217
8 8 14 21 14 28 0 8 9 19 20 25 11 6 20 15 20 21 0 12 72 109 81 109 4 0 3
-15 -2 -32z m257 -495 c4 -10 6 -22 5 -27 -4 -17 20 -33 48 -31 22 1 32 -4 40
-23 9 -18 9 -23 -1 -20 -7 3 -18 -2 -24 -11 -10 -13 -15 -11 -37 15 -15 16
-27 32 -27 37 0 12 -30 8 -31 -5 -1 -7 -5 3 -8 22 -10 49 17 82 35 43z m-339
-85 c-3 -8 -6 -5 -6 6 -1 11 2 17 5 13 3 -3 4 -12 1 -19z m253 -13 c-7 -14
-17 -25 -22 -25 -14 0 -9 18 7 24 8 3 15 13 15 22 0 10 3 14 7 11 3 -4 0 -18
-7 -32z m56 -21 c2 -18 -2 -24 -14 -22 -23 5 -27 35 -5 41 10 3 18 5 18 6 0 0
1 -11 1 -25z m-169 -29 c8 -22 -6 -33 -17 -15 -13 20 -12 30 0 30 6 0 13 -7
17 -15z m38 5 c3 -5 1 -10 -4 -10 -6 0 -11 5 -11 10 0 6 2 10 4 10 3 0 8 -4
11 -10z m195 -10 c0 -5 -4 -10 -10 -10 -5 0 -10 5 -10 10 0 6 5 10 10 10 6 0
10 -4 10 -10z m-115 -30 c3 -5 1 -10 -4 -10 -6 0 -11 5 -11 10 0 6 2 10 4 10
3 0 8 -4 11 -10z m72 -6 c-3 -3 -12 -4 -19 -1 -8 3 -5 6 6 6 11 1 17 -2 13 -5z
m-139 -76 c9 -21 23 -38 31 -38 20 0 11 -6 -24 -14 -16 -4 -27 -4 -23 0 4 4 2
14 -5 22 -6 8 -12 28 -12 43 0 16 -4 28 -10 26 -5 -1 -10 -12 -9 -24 1 -16 -4
-23 -17 -23 -11 0 -19 5 -19 10 0 6 4 10 8 10 4 0 13 15 20 33 12 31 13 31 28
12 8 -11 22 -36 32 -57z m1679 30 c-3 -8 -6 -5 -6 6 -1 11 2 17 5 13 3 -3 4
-12 1 -19z m-1816 -15 c-12 -20 -14 -14 -5 12 4 9 9 14 11 11 3 -2 0 -13 -6
-23z m43 15 c-3 -4 -9 -8 -15 -8 -5 0 -9 4 -9 8 0 5 7 9 15 9 8 0 12 -4 9 -9z
m153 -50 c-3 -8 -6 -5 -6 6 -1 11 2 17 5 13 3 -3 4 -12 1 -19z m1483 -51 c0
-5 -4 -5 -10 -2 -5 3 -10 14 -10 23 0 15 2 15 10 2 5 -8 10 -19 10 -23z
m-1673 -14 c-3 -10 -5 -4 -5 12 0 17 2 24 5 18 2 -7 2 -21 0 -30z m200 -1 c9
-6 -4 -24 -43 -62 -31 -30 -61 -66 -69 -80 -7 -14 -18 -86 -25 -160 -15 -171
-30 -212 -25 -68 2 59 5 111 8 115 2 4 8 30 12 57 5 38 16 58 50 95 23 25 46
56 49 69 4 12 12 20 17 17 5 -3 6 1 3 9 -7 17 4 20 23 8z m-240 -34 c-3 -8 -6
-5 -6 6 -1 11 2 17 5 13 3 -3 4 -12 1 -19z m333 -8 c0 -5 -2 -10 -4 -10 -3 0
-8 5 -11 10 -3 6 -1 10 4 10 6 0 11 -4 11 -10z m1520 -16 c0 -8 -4 -12 -10 -9
-5 3 -10 10 -10 16 0 5 5 9 10 9 6 0 10 -7 10 -16z m-143 -36 c-3 -8 -6 -5 -6
6 -1 11 2 17 5 13 3 -3 4 -12 1 -19z m963 2 c0 -5 -4 -10 -10 -10 -5 0 -10 5
-10 10 0 6 5 10 10 10 6 0 10 -4 10 -10z m5 -57 c-7 -17 -8 -17 -15 2 -9 24
-2 41 12 27 6 -6 7 -19 3 -29z m-875 -59 c0 -13 -4 -24 -10 -24 -5 0 -10 14
-10 31 0 17 4 28 10 24 6 -3 10 -17 10 -31z m-1330 -4 c0 -5 -2 -10 -4 -10 -3
0 -8 5 -11 10 -3 6 -1 10 4 10 6 0 11 -4 11 -10z m1749 -157 c1 -18 -2 -33 -6
-33 -5 0 -9 26 -10 58 -1 42 1 50 7 32 4 -14 8 -40 9 -57z m-1861 28 c9 -5 36
-17 60 -27 24 -9 46 -23 50 -30 8 -14 132 -74 153 -74 8 0 23 -7 33 -15 11 -8
30 -15 43 -15 13 0 23 -4 23 -10 0 -5 9 -10 19 -10 12 0 21 -9 25 -24 3 -14
15 -28 27 -31 23 -8 41 -47 33 -70 -4 -8 -1 -15 5 -15 6 0 11 -7 11 -16 0 -10
16 -32 35 -50 l34 -34 241 0 c202 0 244 2 257 15 8 8 19 13 24 10 5 -4 9 4 9
15 0 13 8 24 20 27 11 3 20 10 20 15 0 5 -4 6 -10 3 -5 -3 -10 -1 -10 4 0 6 4
11 8 11 4 0 13 20 20 45 8 31 19 49 35 55 12 6 29 14 37 20 29 18 101 49 133
56 18 4 48 15 67 25 19 11 38 19 42 19 4 0 37 14 73 30 36 17 68 30 71 30 3 0
21 7 40 16 19 9 37 15 39 12 3 -3 8 -39 11 -82 7 -74 -5 -168 -27 -208 -5 -10
-9 -22 -9 -28 0 -6 -24 -34 -54 -63 -45 -45 -96 -128 -96 -158 0 -5 -12 -34
-26 -65 -40 -88 -94 -218 -94 -226 0 -5 -8 -27 -19 -51 -10 -23 -29 -67 -41
-97 -12 -30 -24 -56 -25 -58 -2 -2 -21 6 -43 17 -22 11 -76 33 -119 48 -77 27
-80 27 -353 28 -297 0 -311 -2 -438 -61 -64 -29 -68 -30 -83 -2 -10 19 -78
209 -181 509 -37 107 -43 119 -82 146 l-41 29 -14 102 c-13 100 -10 161 11
215 11 28 26 33 56 18z m1999 -38 c-3 -10 -5 -4 -5 12 0 17 2 24 5 18 2 -7 2
-21 0 -30z m0 -45 c-3 -8 -6 -5 -6 6 -1 11 2 17 5 13 3 -3 4 -12 1 -19z m-140
-65 c-5 -76 -33 -190 -43 -180 -3 3 0 25 6 48 7 24 14 58 15 74 17 147 32 187
22 58z m-2247 22 c0 -17 -2 -17 -10 -5 -5 8 -10 24 -10 35 0 17 2 17 10 5 5
-8 10 -24 10 -35z m123 -80 c6 -55 -6 -34 -17 30 -5 25 -4 36 2 30 5 -5 12
-32 15 -60z m-113 45 c0 -5 -2 -10 -4 -10 -3 0 -8 5 -11 10 -3 6 -1 10 4 10 6
0 11 -4 11 -10z m-307 -89 c-6 -9 -13 6 -18 40 l-6 34 14 -35 c7 -19 12 -37
10 -39z m2495 -142 c-6 -17 -33 -47 -64 -70 -29 -23 -56 -50 -60 -61 -8 -26
-15 -18 -8 10 4 11 30 40 60 63 30 23 57 52 60 65 3 13 10 24 15 24 4 0 3 -14
-3 -31z m-1981 -33 c32 -30 54 -58 50 -62 -8 -9 -114 86 -116 104 -2 20 6 15
66 -42z m1829 -167 c-9 -19 -15 -29 -16 -22 0 18 20 66 25 61 3 -3 -1 -20 -9
-39z m-1942 5 c3 -8 2 -12 -4 -9 -6 3 -10 10 -10 16 0 14 7 11 14 -7z m1889
-122 c-14 -34 -30 -62 -35 -62 -8 0 0 18 40 97 27 53 24 31 -5 -35z m-43 -92
c0 -5 -5 -10 -11 -10 -5 0 -7 5 -4 10 3 6 8 10 11 10 2 0 4 -4 4 -10z m436
-98 c-18 -16 -18 -16 -6 6 6 13 14 21 18 18 3 -4 -2 -14 -12 -24z m-494 -24
c-7 -7 -12 -8 -12 -2 0 14 12 26 19 19 2 -3 -1 -11 -7 -17z m460 -40 c-7 -7
-12 -8 -12 -2 0 14 12 26 19 19 2 -3 -1 -11 -7 -17z m-479 -11 c-3 -12 -13
-34 -24 -47 -17 -21 -19 -22 -10 -3 6 12 15 33 21 47 12 32 19 34 13 3z m458
-30 c-10 -9 -11 -8 -5 6 3 10 9 15 12 12 3 -3 0 -11 -7 -18z m-383 -79 c-40
-67 -68 -104 -68 -91 0 6 7 16 15 23 8 7 15 16 15 21 0 9 59 99 66 99 2 0 -10
-24 -28 -52z m-538 -19 c54 -9 160 -55 210 -90 21 -16 34 -17 85 -10 33 5 62
7 65 4 9 -8 -24 -21 -73 -27 -46 -7 -55 -4 -93 23 -24 16 -80 42 -126 57 -79
25 -93 26 -298 27 -254 1 -323 -9 -439 -64 -74 -35 -91 -39 -131 -33 -59 9
-86 23 -45 25 17 0 51 0 76 -1 35 -1 58 6 96 28 71 42 153 64 268 72 118 8
327 2 405 -11z m380 -49 c-6 -11 -13 -20 -16 -20 -2 0 0 9 6 20 6 11 13 20 16
20 2 0 0 -9 -6 -20z m-860 -160 c0 -5 -9 -6 -20 -3 -12 3 -44 -7 -78 -25 -31
-17 -75 -34 -97 -37 -22 -4 -48 -14 -57 -23 -10 -8 -18 -10 -18 -5 0 17 40 39
95 52 28 7 61 20 75 29 54 35 73 42 87 30 7 -6 13 -14 13 -18z m520 -1 c0 -5
-11 -9 -24 -9 -14 0 -28 -4 -31 -10 -3 -5 -12 -10 -18 -10 -7 0 0 12 16 25 25
22 57 25 57 4z m97 -40 c29 -11 59 -19 67 -19 8 0 18 -5 22 -11 12 -20 -87 0
-133 27 -43 25 -58 42 -25 29 9 -4 41 -16 69 -26z m-1172 -147 c-18 -4 -85 35
-85 49 0 6 23 -2 50 -18 30 -16 44 -29 35 -31z m802 -114 c144 -2 255 -7 247
-11 -14 -8 -387 -9 -488 -2 -33 3 -56 11 -70 25 l-21 21 35 -15 c28 -11 96
-15 297 -18z m-52 -148 c-7 -12 -104 -12 -160 -1 -32 7 -19 9 63 10 67 1 101
-3 97 -9z m240 0 c4 -6 -32 -9 -102 -8 -86 1 -98 3 -58 8 79 11 153 11 160 0z
m-211 -118 c5 -9 -63 -6 -72 3 -3 3 11 5 31 5 20 0 38 -4 41 -8z m94 1 c-10
-2 -28 -2 -40 0 -13 2 -5 4 17 4 22 1 32 -1 23 -4z"/>
<path d="M2035 3488 c-248 -20 -226 -15 -301 -69 -109 -78 -123 -104 -83 -148
27 -29 42 -25 149 36 l83 47 285 -3 c282 -3 285 -3 323 -27 21 -13 41 -24 43
-24 2 0 27 -15 56 -34 54 -36 81 -37 104 -5 25 36 8 75 -53 121 -31 23 -65 50
-76 60 -25 24 -31 25 -210 38 -82 6 -163 12 -180 14 -16 1 -79 -1 -140 -6z"/>
<path d="M1597 3443 c-4 -3 -7 -11 -7 -17 0 -6 5 -5 12 2 6 6 9 14 7 17 -3 3
-9 2 -12 -2z"/>
<path d="M1587 3375 c-8 -27 -6 -85 4 -85 13 0 18 34 10 70 -6 29 -9 31 -14
15z"/>
<path d="M2031 3298 c-1 -21 4 -38 9 -38 12 0 12 27 0 55 -7 16 -9 13 -9 -17z"/>
<path d="M1480 3306 c0 -9 5 -16 10 -16 6 0 10 4 10 9 0 6 -4 13 -10 16 -5 3
-10 -1 -10 -9z"/>
<path d="M2137 3313 c-11 -10 -8 -43 3 -43 6 0 10 11 10 25 0 26 -2 29 -13 18z"/>
<path d="M1830 3270 c-9 -6 -10 -10 -3 -10 6 0 15 5 18 10 8 12 4 12 -15 0z"/>
<path d="M1610 3251 c0 -11 5 -23 10 -26 6 -3 10 3 10 14 0 11 -4 23 -10 26
-5 3 -10 -3 -10 -14z"/>
<path d="M2276 3259 c-4 -9 -6 -34 -4 -55 3 -37 3 -37 14 -14 5 14 7 39 4 55
-5 23 -9 26 -14 14z"/>
<path d="M1547 3254 c-4 -4 -7 -17 -7 -28 1 -19 1 -20 11 -3 11 19 8 43 -4 31z"/>
<path d="M2210 3241 c0 -12 5 -21 10 -21 6 0 10 6 10 14 0 8 -4 18 -10 21 -5
3 -10 -3 -10 -14z"/>
<path d="M1580 3218 c0 -25 3 -29 10 -18 13 20 13 50 0 50 -5 0 -10 -15 -10
-32z"/>
<path d="M1830 3235 c0 -8 4 -15 10 -15 5 0 7 7 4 15 -4 8 -8 15 -10 15 -2 0
-4 -7 -4 -15z"/>
<path d="M2406 3235 c-3 -9 0 -15 9 -15 16 0 20 16 6 24 -5 3 -11 -1 -15 -9z"/>
<path d="M1640 3215 c0 -14 5 -25 10 -25 6 0 10 11 10 25 0 14 -4 25 -10 25
-5 0 -10 -11 -10 -25z"/>
<path d="M2323 3233 c-7 -2 -13 -9 -13 -15 0 -6 7 -7 16 -4 12 5 15 0 12 -26
-2 -17 2 -33 8 -35 19 -6 25 28 12 58 -13 30 -15 31 -35 22z"/>
<path d="M1400 3219 c0 -5 5 -7 10 -4 6 3 10 8 10 11 0 2 -4 4 -10 4 -5 0 -10
-5 -10 -11z"/>
<path d="M1683 3215 c-3 -9 -3 -28 0 -43 3 -15 2 -34 -4 -42 -6 -11 -9 -7 -10
15 l-1 30 -11 -28 c-12 -30 -30 -31 -36 -1 -4 23 -19 34 -38 27 -15 -6 -18
-39 -4 -48 13 -7 -14 -81 -28 -77 -18 4 -12 -38 9 -65 11 -14 20 -32 20 -39 0
-8 9 -14 20 -14 11 0 20 -7 20 -15 0 -9 10 -19 23 -24 13 -5 29 -16 37 -26 7
-9 31 -25 52 -36 21 -11 36 -24 33 -28 -2 -5 8 -11 23 -14 52 -10 60 -13 74
-25 8 -6 29 -15 46 -18 25 -5 32 -3 32 10 0 9 5 16 10 16 6 0 10 -8 8 -17 -2
-10 3 -18 12 -19 8 0 27 -4 42 -8 15 -5 35 -3 47 4 16 8 21 8 21 -2 0 -8 17
-14 46 -16 35 -2 49 1 60 15 8 11 13 13 14 6 0 -7 10 -12 23 -12 12 1 15 3 7
5 -11 4 -14 16 -12 54 4 54 -12 68 -28 26 -5 -13 -12 -26 -17 -29 -14 -9 -44
20 -37 36 3 8 1 18 -5 21 -6 4 -19 -12 -29 -35 -12 -25 -21 -36 -24 -28 -3 8
1 23 9 35 11 18 11 23 -1 33 -8 7 -13 18 -10 25 3 7 -2 19 -11 26 -17 14 -21
85 -5 95 6 3 10 19 10 36 0 22 -5 29 -20 29 -11 0 -20 -7 -20 -15 0 -8 -5 -15
-11 -15 -7 0 -8 -13 -4 -39 5 -33 4 -39 -14 -44 -12 -3 -24 -1 -27 4 -3 5 -10
7 -15 4 -5 -4 -9 3 -9 14 0 12 4 21 10 21 5 0 14 9 19 19 9 16 8 18 -8 14 -15
-4 -19 -1 -15 14 3 10 0 32 -6 48 -11 28 -12 29 -25 11 -11 -14 -11 -22 -2
-37 9 -15 9 -22 1 -27 -7 -4 -11 -28 -9 -55 1 -26 -2 -50 -7 -53 -4 -3 -8 0
-8 7 0 6 -8 18 -17 25 -16 12 -16 13 -2 14 18 0 34 40 17 40 -6 0 -7 7 -4 17
9 23 -13 83 -30 83 -14 0 -16 4 -18 54 -2 56 -23 39 -30 -25 -4 -33 -10 -58
-13 -55 -3 3 -12 1 -19 -5 -14 -11 -34 -4 -34 11 0 5 7 7 15 4 22 -9 18 7 -9
45 l-24 32 -4 -41 c-2 -28 1 -44 10 -49 11 -6 18 -22 21 -53 1 -3 9 -9 19 -11
13 -4 12 -5 -5 -6 -14 -1 -24 6 -28 19 -9 27 -25 25 -26 -2 -3 -66 -15 48 -13
125 2 80 -8 111 -23 72z m-49 -121 c3 -8 2 -12 -4 -9 -6 3 -10 1 -10 -4 0 -6
5 -11 10 -11 6 0 10 -9 10 -20 0 -21 -15 -27 -25 -10 -4 6 -11 7 -17 4 -6 -4
-8 -3 -5 3 4 6 11 22 16 37 12 30 17 32 25 10z m230 -33 c3 -4 0 -37 -6 -72
l-12 -64 -7 40 c-4 22 -4 45 -1 50 4 6 5 20 3 33 -2 21 13 31 23 13z m-183
-64 c-8 -8 -11 0 -10 29 1 39 1 39 11 11 7 -21 7 -32 -1 -40z m129 43 c0 -5
-2 -10 -4 -10 -3 0 -8 5 -11 10 -3 6 -1 10 4 10 6 0 11 -4 11 -10z m-166 -35
c-4 -8 -8 -15 -10 -15 -2 0 -4 7 -4 15 0 8 4 15 10 15 5 0 7 -7 4 -15z m166
-40 c0 -8 -4 -15 -10 -15 -5 0 -7 7 -4 15 4 8 8 15 10 15 2 0 4 -7 4 -15z
m-30 -16 c0 -6 -4 -7 -10 -4 -5 3 -10 11 -10 16 0 6 5 7 10 4 6 -3 10 -11 10
-16z m30 -44 c0 -8 -5 -17 -11 -21 -16 -10 -29 17 -16 31 14 15 27 10 27 -10z
m149 -49 c-4 -5 -5 -16 -2 -25 4 -9 2 -13 -2 -8 -5 4 -10 31 -11 60 l-2 52 12
-35 c7 -19 9 -39 5 -44z m31 60 c0 -3 -4 -8 -10 -11 -5 -3 -10 -1 -10 4 0 6 5
11 10 11 6 0 10 -2 10 -4z m-158 -58 c-7 -7 -12 -8 -12 -2 0 14 12 26 19 19 2
-3 -1 -11 -7 -17z m168 12 c0 -5 -5 -10 -11 -10 -5 0 -7 5 -4 10 3 6 8 10 11
10 2 0 4 -4 4 -10z m40 -30 c0 -5 -5 -10 -11 -10 -5 0 -7 5 -4 10 3 6 8 10 11
10 2 0 4 -4 4 -10z m-50 -40 c0 -5 -4 -10 -10 -10 -5 0 -10 5 -10 10 0 6 5 10
10 10 6 0 10 -4 10 -10z m30 -22 c0 -25 -3 -29 -10 -18 -13 20 -13 50 0 50 6
0 10 -15 10 -32z m139 -22 c7 -8 8 -17 3 -20 -15 -9 -52 5 -52 20 0 18 34 18
49 0z"/>
<path d="M2020 3219 c0 -14 41 -51 48 -44 7 6 -27 55 -38 55 -6 0 -10 -5 -10
-11z"/>
<path d="M2645 3200 c-3 -5 1 -10 10 -10 9 0 13 5 10 10 -3 6 -8 10 -10 10 -2
0 -7 -4 -10 -10z"/>
<path d="M2800 3194 c0 -8 5 -12 10 -9 6 4 8 11 5 16 -9 14 -15 11 -15 -7z"/>
<path d="M2437 3193 c-2 -5 -5 -39 -6 -77 -1 -38 -3 -73 -4 -77 -1 -4 3 -9 8
-10 6 -2 12 10 13 26 2 17 9 36 15 43 8 10 7 16 -2 22 -11 6 -11 9 0 13 11 4
12 7 1 15 -7 5 -10 16 -7 24 6 16 -10 35 -18 21z"/>
<path d="M1470 3166 c0 -9 7 -12 20 -9 11 3 17 9 14 14 -8 14 -34 10 -34 -5z"/>
<path d="M2007 3148 c-2 -18 -1 -38 4 -44 5 -6 7 -19 3 -28 -3 -9 -2 -16 4
-16 10 0 20 72 14 103 -6 28 -19 19 -25 -15z"/>
<path d="M1780 3135 c0 -14 5 -25 10 -25 6 0 10 11 10 25 0 14 -4 25 -10 25
-5 0 -10 -11 -10 -25z"/>
<path d="M2555 3140 c-3 -5 -1 -10 4 -10 6 0 11 5 11 10 0 6 -2 10 -4 10 -3 0
-8 -4 -11 -10z"/>
<path d="M1865 3131 c-7 -12 12 -24 25 -16 11 7 4 25 -10 25 -5 0 -11 -4 -15
-9z"/>
<path d="M2048 3135 c-8 -8 2 -45 13 -45 4 0 10 4 13 9 7 10 -17 44 -26 36z"/>
<path d="M1467 3107 c-16 -19 -16 -23 -2 -33 8 -6 15 -16 15 -23 0 -6 4 -11 9
-11 10 0 21 59 14 78 -7 17 -15 15 -36 -11z"/>
<path d="M2136 3115 c-3 -9 -3 -21 0 -26 3 -6 0 -16 -6 -24 -7 -8 -10 -22 -6
-30 11 -29 24 -15 28 31 4 49 -5 77 -16 49z"/>
<path d="M2267 3104 c-4 -4 -7 -21 -7 -38 -1 -17 -7 -47 -14 -67 -9 -25 -10
-43 -3 -54 5 -10 10 -62 10 -116 0 -77 3 -99 15 -104 19 -7 18 -9 26 52 4 34
3 54 -5 59 -7 4 -8 9 -1 13 6 3 11 26 12 51 3 70 1 80 -15 80 -8 0 -15 5 -15
11 0 6 8 8 19 4 16 -5 19 0 23 30 5 47 -1 51 -24 18 -14 -22 -18 -24 -18 -10
0 10 5 28 11 39 11 20 0 45 -14 32z"/>
<path d="M2784 3054 c3 -9 6 -18 6 -21 0 -3 7 0 15 7 17 14 11 30 -12 30 -10
0 -13 -6 -9 -16z"/>
<path d="M1510 3036 c0 -14 5 -26 10 -26 6 0 10 9 10 19 0 11 -4 23 -10 26 -6
4 -10 -5 -10 -19z"/>
<path d="M2510 3025 c0 -16 -6 -25 -15 -25 -8 0 -15 -4 -15 -10 0 -5 7 -10 15
-10 8 0 15 5 15 10 0 6 9 10 20 10 11 0 20 6 20 13 0 7 -9 18 -20 25 -18 11
-20 10 -20 -13z"/>
<path d="M2190 3030 c0 -5 5 -10 11 -10 5 0 7 5 4 10 -3 6 -8 10 -11 10 -2 0
-4 -4 -4 -10z"/>
<path d="M2675 2992 c-4 -20 -15 -37 -28 -42 -16 -6 -18 -9 -5 -9 9 -1 23 -4
32 -7 20 -8 30 32 18 66 -9 25 -9 25 -17 -8z"/>
<path d="M2805 3010 c-3 -6 1 -7 9 -4 18 7 21 14 7 14 -6 0 -13 -4 -16 -10z"/>
<path d="M2120 2980 c0 -14 -3 -35 -6 -47 -5 -17 -2 -23 10 -23 9 0 16 6 16
13 0 8 4 7 10 -3 5 -8 9 -39 8 -68 0 -29 2 -55 5 -59 7 -6 11 21 8 41 -5 25
11 43 34 38 20 -3 25 0 25 16 0 14 -13 25 -45 39 -25 10 -45 25 -45 33 0 8 -5
22 -10 30 -8 12 -10 10 -10 -10z"/>
<path d="M2160 2990 c0 -5 5 -10 10 -10 6 0 10 5 10 10 0 6 -4 10 -10 10 -5 0
-10 -4 -10 -10z"/>
<path d="M1970 2966 c0 -9 5 -16 10 -16 6 0 10 4 10 9 0 6 -4 13 -10 16 -5 3
-10 -1 -10 -9z"/>
<path d="M2398 2968 c16 -16 15 -39 0 -35 -14 2 -14 -2 -4 -48 5 -22 4 -26 -4
-15 -6 10 -10 11 -10 3 0 -7 -7 -13 -15 -13 -8 0 -15 -5 -15 -11 0 -6 12 -9
27 -7 16 2 28 -2 31 -11 3 -10 0 -12 -12 -8 -21 8 -46 -2 -46 -19 0 -8 7 -14
15 -14 8 0 15 -9 15 -20 0 -20 -15 -28 -22 -11 -1 4 -13 11 -24 15 -17 5 -22
2 -26 -18 -4 -17 -1 -23 9 -19 7 3 13 10 13 15 0 6 6 6 14 -1 19 -16 84 -4 96
18 4 9 12 45 16 79 6 59 5 62 -14 62 -14 0 -20 5 -16 14 7 18 -13 56 -28 56
-9 0 -9 -3 0 -12z"/>
<path d="M2735 2950 c-3 -5 1 -10 10 -10 9 0 13 5 10 10 -3 6 -8 10 -10 10 -2
0 -7 -4 -10 -10z"/>
<path d="M2357 2913 c-4 -3 -7 -13 -7 -22 1 -13 3 -13 11 2 11 19 8 33 -4 20z"/>
<path d="M2654 2912 c-29 -4 -21 -42 9 -42 11 0 17 3 14 7 -4 3 -2 12 4 19 12
15 2 21 -27 16z"/>
<path d="M2120 2859 c0 -5 5 -7 10 -4 6 3 10 8 10 11 0 2 -4 4 -10 4 -5 0 -10
-5 -10 -11z"/>
<path d="M2520 2820 c0 -5 -11 -10 -25 -10 -29 0 -33 -16 -7 -25 27 -8 75 18
60 33 -15 15 -28 15 -28 2z"/>
<path d="M2450 2770 c0 -5 5 -10 11 -10 5 0 7 5 4 10 -3 6 -8 10 -11 10 -2 0
-4 -4 -4 -10z"/>
<path d="M3191 3598 c20 -36 38 -137 39 -208 0 -66 -23 -256 -39 -320 -31
-122 -80 -272 -102 -312 -5 -10 -9 -25 -9 -34 0 -10 -6 -14 -14 -11 -15 6 -33
-29 -22 -40 3 -4 6 -1 6 5 0 7 15 18 33 26 60 25 116 154 163 378 19 93 24
146 24 260 0 79 -5 161 -10 182 -10 46 -40 90 -64 94 -16 3 -16 1 -5 -20z"/>
<path d="M1251 3144 c0 -11 3 -14 6 -6 3 7 2 16 -1 19 -3 4 -6 -2 -5 -13z"/>
<path d="M1167 3019 c4 -13 8 -18 11 -10 2 7 -1 18 -6 23 -8 8 -9 4 -5 -13z"/>
<path d="M2972 2970 c0 -14 2 -19 5 -12 2 6 2 18 0 25 -3 6 -5 1 -5 -13z"/>
<path d="M3017 2931 c-2 -11 -1 -23 3 -28 5 -4 13 -24 18 -45 9 -32 8 -37 -8
-41 -15 -4 -21 3 -27 27 -4 17 -7 42 -8 55 0 13 -5 26 -11 28 -16 5 -26 -25
-15 -45 11 -22 2 -82 -13 -82 -6 0 -4 -5 4 -11 11 -8 12 -12 3 -16 -19 -7 -16
-60 3 -67 19 -7 64 18 64 37 0 8 4 7 10 -3 5 -8 10 -13 11 -10 8 49 9 149 0
154 -6 4 -11 20 -11 37 0 33 -15 39 -23 10z"/>
<path d="M3202 2815 c0 -16 2 -22 5 -12 2 9 2 23 0 30 -3 6 -5 -1 -5 -18z"/>
<path d="M3170 2769 c0 -5 5 -7 10 -4 6 3 10 8 10 11 0 2 -4 4 -10 4 -5 0 -10
-5 -10 -11z"/>
<path d="M3231 2734 c0 -11 3 -14 6 -6 3 7 2 16 -1 19 -3 4 -6 -2 -5 -13z"/>
<path d="M3115 2700 c-10 -11 -25 -20 -34 -20 -13 0 -13 -2 -3 -9 28 -17 55
-7 58 22 3 32 2 33 -21 7z"/>
<path d="M2955 2680 c3 -5 8 -10 11 -10 2 0 4 5 4 10 0 6 -5 10 -11 10 -5 0
-7 -4 -4 -10z"/>
<path d="M3530 2649 c0 -5 5 -7 10 -4 6 3 10 8 10 11 0 2 -4 4 -10 4 -5 0 -10
-5 -10 -11z"/>
<path d="M2952 2631 c-8 -5 -12 -17 -10 -27 5 -18 5 -18 13 1 5 11 13 23 19
27 16 11 -6 10 -22 -1z"/>
<path d="M3118 2623 c6 -2 18 -2 25 0 6 3 1 5 -13 5 -14 0 -19 -2 -12 -5z"/>
<path d="M960 3110 c0 -5 5 -10 10 -10 6 0 10 5 10 10 0 6 -4 10 -10 10 -5 0
-10 -4 -10 -10z"/>
<path d="M1021 3014 c0 -11 3 -14 6 -6 3 7 2 16 -1 19 -3 4 -6 -2 -5 -13z"/>
<path d="M771 2943 c-1 -12 5 -24 12 -27 9 -5 9 -7 -1 -12 -6 -3 -10 -10 -6
-15 10 -17 24 2 24 32 0 17 -4 28 -9 25 -5 -4 -12 0 -14 6 -3 7 -6 3 -6 -9z"/>
<path d="M646 2643 c-9 -10 -7 -43 3 -43 11 0 21 39 11 45 -4 2 -10 2 -14 -2z"/>
<path d="M720 2601 c0 -17 15 -19 28 -5 11 12 9 14 -8 14 -11 0 -20 -4 -20 -9z"/>
</g>
</svg>
