<?xml version="1.0" standalone="no"?>
<!DOCTYPE svg PUBLIC "-//W3C//DTD SVG 20010904//EN"
 "http://www.w3.org/TR/2001/REC-SVG-20010904/DTD/svg10.dtd">
<svg version="1.0" xmlns="http://www.w3.org/2000/svg"
 width="382.000000pt" height="209.000000pt" viewBox="0 0 382.000000 209.000000"
 preserveAspectRatio="xMidYMid meet">

<g transform="translate(0.000000,209.000000) scale(0.100000,-0.100000)"
fill="#000000" stroke="none">
<path d="M3190 1780 c-11 -21 -20 -42 -20 -44 0 -3 24 -4 53 -2 28 2 62 -1 75
-5 29 -11 29 8 1 55 -17 30 -27 36 -55 36 -29 0 -36 -5 -54 -40z"/>
<path d="M1033 1748 c-21 -17 -37 -35 -35 -40 1 -5 -1 -7 -6 -4 -13 8 -83 -44
-76 -56 4 -7 3 -8 -4 -4 -7 4 -17 2 -24 -3 -7 -6 -28 -22 -46 -37 -17 -14 -30
-30 -27 -35 4 -5 -1 -6 -9 -3 -9 3 -16 1 -16 -6 0 -6 -5 -8 -11 -4 -8 4 -9 -1
-5 -17 3 -13 3 -18 0 -11 -3 6 -12 12 -20 12 -11 0 -13 -7 -7 -27 3 -16 6 -36
5 -46 0 -9 3 -15 9 -12 5 4 9 1 9 -4 0 -6 -4 -11 -8 -11 -12 0 -2 -143 10
-155 8 -7 9 -4 4 9 -6 16 -4 17 10 6 14 -12 14 -15 -6 -30 -17 -13 -20 -24
-17 -60 3 -37 7 -46 25 -48 12 -2 22 1 22 7 0 10 31 8 50 -4 14 -9 12 8 -2 25
-7 8 -4 7 8 -3 24 -20 64 -23 64 -4 0 9 2 9 8 0 5 -9 34 -12 85 -12 42 1 75 5
72 9 -3 5 7 7 22 6 39 -5 40 -5 23 -16 -11 -7 -7 -10 18 -10 17 0 32 -4 32
-10 0 -17 62 -80 73 -73 5 3 7 2 4 -4 -3 -5 11 -25 32 -44 l37 -35 188 -2
c144 -1 185 1 179 11 -5 9 -3 9 8 1 8 -6 38 -14 67 -16 42 -4 52 -2 52 10 0
13 3 12 15 -4 8 -10 15 -14 15 -7 0 11 7 11 45 3 6 -1 25 -2 44 -1 23 1 32 5
28 14 -3 8 -1 20 4 28 6 10 9 4 9 -18 0 -23 5 -33 15 -33 8 0 15 7 15 15 0 8
-5 15 -11 15 -5 0 -7 5 -3 12 11 17 14 336 4 381 -4 20 -5 37 -1 37 4 0 6 15
4 33 -3 30 -3 167 -1 232 1 17 0 40 0 53 l-2 22 -235 0 c-256 0 -238 4 -307
-62 -15 -14 -28 -23 -28 -18 0 5 17 25 37 45 l37 36 -222 -2 -222 -1 -37 -30z
m127 12 c0 -5 -2 -10 -4 -10 -3 0 -8 5 -11 10 -3 6 -1 10 4 10 6 0 11 -4 11
-10z m50 -10 c0 -5 -4 -10 -10 -10 -5 0 -10 5 -10 10 0 6 5 10 10 10 6 0 10
-4 10 -10z m505 -60 c-3 -5 -12 -10 -18 -10 -7 0 -6 4 3 10 19 12 23 12 15 0z
m-163 -21 c104 -1 191 0 194 4 9 9 40 -25 49 -53 5 -14 9 -41 10 -61 1 -19 5
-41 9 -47 4 -7 2 -12 -3 -12 -6 0 -11 -15 -12 -32 0 -30 -17 -85 -18 -64 -1 5
-8 3 -16 -4 -10 -9 -42 -12 -90 -11 -69 2 -93 -7 -65 -24 13 -8 13 -25 0 -25
-6 0 -9 3 -8 8 0 4 -2 15 -6 24 -7 15 -29 17 -208 17 -182 0 -199 -2 -194 -17
5 -15 5 -15 -6 -1 -19 23 -50 32 -60 17 -7 -10 -8 -9 -5 2 2 8 0 24 -6 34 -16
31 -10 171 9 207 12 25 18 29 25 18 7 -12 9 -11 9 2 0 11 13 15 56 17 31 1 58
3 59 4 2 2 23 2 47 1 23 -1 127 -3 230 -4z m368 -3 c0 -2 -7 -7 -16 -10 -8 -3
-12 -2 -9 4 6 10 25 14 25 6z m77 -22 c-3 -3 -12 -4 -19 -1 -8 3 -5 6 6 6 11
1 17 -2 13 -5z m-1112 -44 c-3 -5 -12 -10 -18 -10 -7 0 -6 4 3 10 19 12 23 12
15 0z m152 4 c-3 -3 -12 -4 -19 -1 -8 3 -5 6 6 6 11 1 17 -2 13 -5z m-127 -32
c0 -5 -7 -9 -15 -9 -8 0 -12 4 -9 9 3 4 9 8 15 8 5 0 9 -4 9 -8z m75 -12 c3
-6 -1 -7 -9 -4 -18 7 -21 14 -7 14 6 0 13 -4 16 -10z m862 -6 c-3 -3 -12 -4
-19 -1 -8 3 -5 6 6 6 11 1 17 -2 13 -5z m-947 -12 c0 -13 -12 -22 -22 -16 -10
6 -1 24 13 24 5 0 9 -4 9 -8z m97 -22 c1 -11 -2 -20 -7 -20 -6 0 -7 17 -1 38
3 8 7 -1 8 -18z m-127 -25 c0 -5 -5 -3 -10 5 -5 8 -10 20 -10 25 0 6 5 3 10
-5 5 -8 10 -19 10 -25z m1076 13 c4 -7 4 -10 -1 -6 -4 4 -15 2 -24 -5 -14 -11
-14 -10 -2 6 16 20 18 21 27 5z m-1102 -14 c4 -10 1 -14 -6 -12 -15 5 -23 28
-10 28 5 0 13 -7 16 -16z m96 -20 c0 -3 -7 -1 -15 6 -8 7 -15 17 -15 22 0 5 7
3 15 -6 8 -8 15 -18 15 -22z m-140 6 c0 -5 -2 -10 -4 -10 -3 0 -8 5 -11 10 -3
6 -1 10 4 10 6 0 11 -4 11 -10z m118 -7 c40 -26 56 -43 41 -43 -9 0 -10 -3 -2
-11 13 -13 -10 -64 -33 -73 -8 -3 -12 -10 -9 -16 4 -6 -6 -10 -23 -10 -34 0
-61 26 -64 63 -1 15 -6 27 -10 27 -4 0 0 9 10 20 9 11 25 29 35 40 21 24 21
24 55 3z m169 1 c-3 -3 -12 -4 -19 -1 -8 3 -5 6 6 6 11 1 17 -2 13 -5z m783
-38 c0 -3 -4 -8 -10 -11 -5 -3 -10 -1 -10 4 0 6 5 11 10 11 6 0 10 -2 10 -4z
m75 -6 c3 -5 1 -10 -5 -10 -6 0 -9 -4 -6 -8 2 -4 -4 -13 -14 -20 -27 -17 -37
4 -14 28 22 22 30 24 39 10z m-945 -16 c0 -8 -5 -12 -10 -9 -6 4 -8 11 -5 16
9 14 15 11 15 -7z m54 -16 c-3 -4 -11 -8 -19 -8 -8 0 -19 -8 -24 -17 -8 -13
-10 -14 -11 -4 0 23 42 64 51 49 4 -7 5 -16 3 -20z m46 2 c0 -5 -5 -10 -11
-10 -5 0 -7 5 -4 10 3 6 8 10 11 10 2 0 4 -4 4 -10z m875 -10 c3 -6 -1 -7 -9
-4 -18 7 -21 14 -7 14 6 0 13 -4 16 -10z m-671 -19 c3 -5 -2 -15 -12 -22 -15
-12 -16 -12 -5 2 7 9 10 19 6 22 -3 4 -4 7 0 7 3 0 8 -4 11 -9z m493 -16 c0
-8 -4 -15 -9 -15 -10 0 -11 14 -1 23 9 10 10 9 10 -8z m28 6 c-3 -6 4 -15 16
-21 11 -7 18 -14 15 -17 -8 -9 -47 28 -40 38 3 5 7 9 10 9 3 0 3 -4 -1 -9z
m-735 -5 c0 -3 -4 -8 -10 -11 -5 -3 -10 -1 -10 4 0 6 5 11 10 11 6 0 10 -2 10
-4z m318 -17 c-10 -7 -9 -9 5 -9 9 0 17 -4 17 -8 0 -4 -15 -8 -34 -8 -24 0
-33 4 -32 16 1 21 14 29 38 22 15 -4 17 -7 6 -13z m-613 1 c3 -5 -1 -10 -10
-10 -9 0 -13 5 -10 10 3 6 8 10 10 10 2 0 7 -4 10 -10z m198 -11 c-4 -15 -8
-17 -14 -8 -6 11 4 28 18 29 0 0 -1 -9 -4 -21z m165 1 c22 -6 18 -8 -20 -6
-35 1 -44 4 -36 13 6 7 15 10 20 7 5 -3 22 -10 36 -14z m804 -5 c3 -13 1 -22
-3 -19 -9 5 -13 44 -5 44 2 0 6 -11 8 -25z m-1127 5 c3 -6 -1 -7 -9 -4 -18 7
-21 14 -7 14 6 0 13 -4 16 -10z m715 0 c12 -7 10 -9 -8 -7 -12 0 -22 5 -22 9
0 11 12 10 30 -2z m-500 -35 c-7 -9 -10 -19 -6 -23 4 -4 14 2 22 12 7 11 16
17 19 14 9 -9 -46 -69 -56 -62 -6 4 -6 10 0 18 6 7 8 15 5 19 -3 3 0 15 6 27
6 12 14 19 17 16 3 -3 0 -12 -7 -21z m284 11 c-8 -20 -35 -29 -48 -15 -8 9 -8
10 2 5 6 -4 12 -3 12 3 0 5 8 12 18 14 9 3 18 5 19 6 1 0 0 -5 -3 -13z m-318
-23 c-10 -10 -19 5 -10 18 6 11 8 11 12 0 2 -7 1 -15 -2 -18z m235 17 c25 0
24 -16 -1 -23 -13 -3 -18 -1 -13 6 4 7 0 8 -11 4 -9 -4 -15 -3 -11 2 3 5 2 11
-2 14 -5 2 -2 2 5 0 8 -1 22 -3 33 -3z m254 0 c-3 -5 -12 -10 -18 -10 -7 0 -6
4 3 10 19 12 23 12 15 0z m145 6 c0 -3 -4 -8 -10 -11 -5 -3 -10 -1 -10 4 0 6
5 11 10 11 6 0 10 -2 10 -4z m155 -14 c-3 -3 -11 0 -18 7 -9 10 -8 11 6 5 10
-3 15 -9 12 -12z m-965 -2 c0 -5 -2 -10 -4 -10 -3 0 -8 5 -11 10 -3 6 -1 10 4
10 6 0 11 -4 11 -10z m80 1 c0 -5 -7 -12 -16 -15 -14 -5 -15 -4 -4 9 14 17 20
19 20 6z m64 -6 c3 -8 1 -15 -5 -15 -6 0 -8 -9 -4 -20 4 -11 2 -20 -4 -20 -6
0 -10 16 -9 35 1 36 12 46 22 20z m206 -1 c0 -2 -7 -4 -15 -4 -8 0 -15 4 -15
10 0 5 7 7 15 4 8 -4 15 -8 15 -10z m387 10 c-3 -3 -12 -4 -19 -1 -8 3 -5 6 6
6 11 1 17 -2 13 -5z m141 -19 c-3 -3 -9 2 -12 12 -6 14 -5 15 5 6 7 -7 10 -15
7 -18z m-581 -5 c3 -10 2 -11 -4 -4 -4 6 -15 14 -23 17 -11 5 -9 6 4 4 11 -1
21 -9 23 -17z m206 5 c-3 -9 -8 -14 -10 -11 -3 3 -2 9 2 15 9 16 15 13 8 -4z
m77 1 c0 -7 -7 -19 -15 -26 -16 -13 -20 -3 -9 24 8 20 24 21 24 2z m445 4 c-3
-5 -12 -10 -18 -10 -7 0 -6 4 3 10 19 12 23 12 15 0z m72 -15 c-15 -16 -22
-11 -13 10 3 9 10 13 16 10 6 -4 5 -11 -3 -20z m-1074 8 c-7 -2 -13 -12 -13
-21 0 -10 -3 -13 -8 -7 -9 12 -35 13 -43 1 -4 -4 -10 -3 -13 3 -4 6 -4 11 1
12 22 2 57 10 62 14 2 3 9 5 15 4 6 0 5 -3 -1 -6z m80 -13 c-6 -24 -19 -26
-27 -4 -3 8 -2 12 3 9 5 -3 12 -1 16 5 10 16 14 12 8 -10z m845 -5 c0 -23 -2
-23 -13 -9 -6 10 -17 14 -23 10 -7 -4 -12 -5 -12 -1 0 3 10 10 23 15 12 5 23
9 23 9 1 1 2 -10 2 -24z m-613 4 c11 -17 -1 -21 -15 -4 -8 9 -8 15 -2 15 6 0
14 -5 17 -11z m392 5 c-3 -3 -12 -4 -19 -1 -8 3 -5 6 6 6 11 1 17 -2 13 -5z
m52 -11 c9 -16 12 -16 22 -3 9 13 10 12 5 -4 -5 -13 -2 -17 9 -12 8 3 15 1 15
-5 0 -5 10 -13 22 -18 l23 -8 -23 -7 c-12 -4 -22 -11 -22 -16 0 -4 -9 -10 -20
-13 -11 -3 -18 0 -17 7 1 6 -6 10 -15 8 -13 -2 -16 2 -11 14 4 12 2 15 -8 12
-7 -2 -14 -19 -15 -37 -1 -18 -7 -38 -14 -44 -10 -9 -11 -9 -6 0 5 9 -7 11
-47 9 -30 -1 -59 -6 -65 -10 -6 -3 -13 -2 -17 4 -3 5 -15 10 -25 10 -11 0 -24
9 -30 20 -12 22 -34 28 -27 8 2 -7 -3 -18 -12 -25 -20 -15 -31 -16 -31 -3 0 6
-9 20 -20 32 -11 12 -20 26 -20 32 0 5 7 1 15 -10 9 -12 14 -14 15 -6 0 7 5
10 11 6 8 -4 7 -9 -2 -15 -11 -7 -10 -9 3 -9 9 0 19 -6 22 -12 4 -7 4 -3 2 10
-3 18 0 22 21 22 13 0 22 4 19 9 -11 17 21 33 42 22 16 -8 21 -7 27 6 5 15 7
15 15 3 12 -20 81 -14 99 8 13 16 13 16 7 -1 -9 -27 2 -38 23 -25 15 9 22 8
36 -6 10 -9 24 -16 32 -14 17 4 18 23 1 23 -7 0 -20 6 -28 12 -8 7 -24 19 -35
27 -17 13 -18 15 -3 16 9 0 22 -8 27 -17z m-742 -15 c-3 -8 -6 -5 -6 6 -1 11
2 17 5 13 3 -3 4 -12 1 -19z m628 4 c-3 -3 -11 0 -18 7 -9 10 -8 11 6 5 10 -3
15 -9 12 -12z m-412 -13 c4 -16 3 -18 -9 -8 -16 13 -19 29 -5 29 5 0 11 -9 14
-21z m37 14 c0 -5 -4 -14 -9 -21 -6 -10 -10 -9 -14 7 -3 14 0 21 9 21 8 0 14
-3 14 -7z m730 -3 c0 -5 -2 -10 -4 -10 -3 0 -8 5 -11 10 -3 6 -1 10 4 10 6 0
11 -4 11 -10z m95 0 c3 -5 1 -10 -4 -10 -6 0 -11 5 -11 10 0 6 2 10 4 10 3 0
8 -4 11 -10z m-685 -10 c0 -5 -2 -10 -4 -10 -3 0 -8 5 -11 10 -3 6 -1 10 4 10
6 0 11 -4 11 -10z m475 -8 c-3 -3 -11 0 -18 7 -9 10 -8 11 6 5 10 -3 15 -9 12
-12z m-445 -2 c0 -5 -2 -10 -4 -10 -3 0 -8 5 -11 10 -3 6 -1 10 4 10 6 0 11
-4 11 -10z m545 0 c3 -5 1 -10 -4 -10 -6 0 -11 5 -11 10 0 6 2 10 4 10 3 0 8
-4 11 -10z m85 -1 c0 -6 7 -8 18 -4 14 5 15 4 4 -6 -10 -11 -15 -10 -29 4 -11
11 -13 17 -5 17 7 0 12 -5 12 -11z m-870 -9 c0 -5 -2 -10 -4 -10 -3 0 -8 5
-11 10 -3 6 -1 10 4 10 6 0 11 -4 11 -10z m285 0 c-3 -5 -12 -10 -18 -10 -7 0
-6 4 3 10 19 12 23 12 15 0z m-547 -25 c-3 -3 -9 2 -12 12 -6 14 -5 15 5 6 7
-7 10 -15 7 -18z m376 10 c11 -8 15 -15 10 -15 -6 0 -19 7 -30 15 -10 8 -14
14 -9 14 6 0 19 -6 29 -14z m594 2 c6 0 12 -5 12 -10 0 -5 7 -4 15 3 9 8 15 8
15 2 0 -23 -40 -23 -68 -1 -19 16 -21 20 -7 14 11 -4 26 -8 33 -8z m129 -14
c14 -17 14 -17 9 2 -6 19 -5 19 7 3 8 -10 16 -15 19 -12 4 3 9 0 14 -7 4 -8 3
-10 -4 -5 -7 4 -12 2 -12 -5 0 -12 -29 -38 -42 -39 -13 0 -9 28 5 34 6 3 1 3
-12 0 -20 -5 -23 -3 -18 11 4 9 7 21 7 26 0 14 11 11 27 -8z m-650 -9 c0 -7
-6 -10 -14 -7 -7 3 -13 8 -13 12 0 4 6 8 13 8 8 0 14 -6 14 -13z m463 6 c0 -5
-5 -10 -11 -10 -5 0 -7 5 -4 10 3 6 8 10 11 10 2 0 4 -4 4 -10z m57 -30 c-7
-3 -13 -11 -15 -19 -2 -10 4 -12 22 -7 14 3 28 1 31 -4 4 -6 3 -10 -2 -9 -20
4 -24 -2 -12 -18 11 -15 11 -16 -1 -5 -8 6 -22 12 -32 12 -10 0 -17 3 -17 8 4
26 -1 32 -21 20 -11 -7 -20 -18 -20 -25 0 -7 -6 -12 -12 -10 -7 1 -12 -3 -11
-9 1 -7 -12 -12 -30 -12 -48 0 -48 0 -30 -22 15 -17 19 -18 33 -5 11 10 20 11
33 4 15 -9 15 -12 3 -25 -19 -18 -27 -18 -20 1 8 20 -5 19 -29 -2 -11 -10 -17
-13 -14 -7 4 7 1 17 -7 23 -8 7 -16 8 -18 4 -3 -4 -3 -2 -2 5 2 6 -5 12 -15
12 -13 0 -18 6 -16 18 2 9 4 22 4 27 1 6 5 3 10 -5 6 -8 7 -18 5 -22 -3 -4 0
-8 5 -8 6 0 11 5 11 11 0 6 7 9 14 6 11 -4 13 -1 9 11 -4 13 -2 12 10 -3 8
-11 19 -16 23 -12 5 4 2 12 -5 16 -9 6 -10 11 -2 15 6 4 11 2 11 -3 0 -6 5
-11 11 -11 6 0 8 7 5 16 -3 9 -2 12 5 9 6 -4 13 2 16 14 4 17 10 20 32 14 23
-6 24 -4 13 10 -12 14 -11 15 12 4 15 -7 20 -14 13 -17z m223 20 c0 -5 -9 -15
-20 -22 -11 -7 -20 -19 -20 -26 0 -7 -5 -10 -11 -7 -7 5 -3 15 10 29 12 12 18
26 14 29 -3 4 1 7 10 7 10 0 17 -4 17 -10z m-370 -10 c0 -5 -2 -10 -4 -10 -3
0 -8 5 -11 10 -3 6 -1 10 4 10 6 0 11 -4 11 -10z m50 -15 c-7 -9 -15 -13 -19
-10 -3 3 1 10 9 15 21 14 24 12 10 -5z m-436 -21 c3 -8 2 -12 -4 -9 -6 3 -10
10 -10 16 0 14 7 11 14 -7z m151 6 c3 -5 1 -10 -4 -10 -6 0 -11 5 -11 10 0 6
2 10 4 10 3 0 8 -4 11 -10z m-112 -20 c-9 -11 -19 -17 -21 -15 -6 6 18 35 29
35 5 0 1 -9 -8 -20z m718 6 c16 9 10 -2 -10 -20 -19 -17 -19 -17 -16 1 2 10 4
23 5 28 1 6 4 4 7 -3 2 -6 9 -10 14 -6z m-621 -6 c8 -5 11 -13 6 -17 -5 -4
-11 -2 -13 5 -3 6 -13 12 -23 12 -10 0 -20 -6 -23 -12 -2 -7 -8 -9 -13 -5 -10
9 14 27 36 27 8 0 22 -4 30 -10z m123 -24 c-6 -10 -13 -12 -23 -6 -13 8 -12
10 4 10 13 0 16 5 11 18 -5 13 -3 14 5 5 8 -7 9 -17 3 -27z m388 -1 c5 4 9 2
9 -3 0 -6 -10 -9 -23 -8 -16 1 -22 8 -24 24 -1 24 -1 24 14 3 8 -12 19 -19 24
-16z m-443 18 c-10 -2 -18 -9 -18 -14 0 -5 -3 -8 -7 -7 -5 0 -16 -2 -26 -7
-10 -4 -20 -5 -23 -3 -6 7 58 38 76 37 11 -1 10 -3 -2 -6z m102 -23 c-8 -5
-19 -10 -25 -10 -5 0 -3 5 5 10 8 5 20 10 25 10 6 0 3 -5 -5 -10z m410 0 c0
-5 -5 -10 -11 -10 -5 0 -7 5 -4 10 3 6 8 10 11 10 2 0 4 -4 4 -10z m-620 -4
c0 -3 -4 -8 -10 -11 -5 -3 -10 -1 -10 4 0 6 5 11 10 11 6 0 10 -2 10 -4z m392
-11 c14 -19 8 -25 -12 -13 -11 7 -20 16 -20 20 0 11 23 5 32 -7z m124 -5 c8 0
14 -4 14 -10 0 -5 -4 -10 -8 -10 -12 0 -32 22 -31 35 0 5 3 4 6 -2 2 -7 11
-13 19 -13z m-430 -5 c-3 -8 2 -19 12 -24 11 -7 12 -11 4 -11 -21 0 -52 19
-52 33 0 8 4 7 10 -3 8 -12 10 -12 16 3 3 9 8 17 11 17 3 0 3 -7 -1 -15z m39
5 c3 -5 1 -10 -4 -10 -6 0 -11 5 -11 10 0 6 2 10 4 10 3 0 8 -4 11 -10z m310
0 c-3 -5 1 -10 9 -10 9 0 16 5 16 10 0 16 17 11 24 -7 5 -11 -1 -23 -16 -34
-22 -17 -44 -16 -33 1 3 4 -2 10 -10 14 -15 6 -10 36 7 36 5 0 6 -4 3 -10z
m-460 -10 c3 -5 1 -10 -4 -10 -6 0 -11 5 -11 10 0 6 2 10 4 10 3 0 8 -4 11
-10z m192 4 c-3 -3 -12 -4 -19 -1 -8 3 -5 6 6 6 11 1 17 -2 13 -5z m83 -15 c0
-12 -17 -11 -25 2 -5 6 -12 4 -22 -8 -13 -17 -13 -16 -4 4 8 15 17 20 31 16
11 -3 20 -9 20 -14z m360 12 c0 -5 -7 -12 -16 -15 -14 -5 -15 -4 -4 9 14 17
20 19 20 6z m48 2 c-10 -2 -18 -9 -18 -15 0 -6 -3 -9 -6 -5 -10 10 6 27 24 26
15 -1 15 -2 0 -6z m-524 -24 c-5 -9 2 -10 22 -6 16 3 23 4 16 1 -6 -3 -9 -10
-6 -16 8 -12 -29 -6 -38 7 -7 9 -2 25 8 25 3 0 2 -5 -2 -11z m432 -9 c9 0 12
-4 9 -10 -4 -6 -13 -5 -25 2 -10 7 -16 17 -13 22 4 6 8 5 11 -2 2 -7 10 -12
18 -12z m54 0 c0 -5 -4 -10 -10 -10 -5 0 -10 5 -10 10 0 6 5 10 10 10 6 0 10
-4 10 -10z"/>
<path d="M1328 1572 c-130 -2 -138 -4 -138 -22 0 -11 6 -20 13 -20 9 0 8 -3
-2 -9 -16 -11 -6 -16 37 -20 31 -2 44 12 20 22 -8 3 -6 6 5 6 9 1 17 -5 17
-11 0 -16 321 -19 333 -3 5 7 10 7 15 0 4 -5 25 -10 47 -10 38 0 40 2 40 30 0
24 -5 31 -24 33 -17 3 -21 0 -15 -10 6 -10 3 -9 -10 1 -19 16 -87 18 -338 13z"/>
<path d="M1790 1040 c0 -5 5 -10 10 -10 6 0 10 5 10 10 0 6 -4 10 -10 10 -5 0
-10 -4 -10 -10z"/>
<path d="M778 1697 c-22 -19 -41 -47 -32 -47 17 1 66 47 57 53 -6 4 -17 1 -25
-6z"/>
<path d="M2118 1653 c-18 -4 -20 -20 -20 -128 0 -42 1 -45 20 -38 16 5 16 5 0
-8 -14 -11 -17 -28 -15 -79 l2 -65 30 0 c17 0 36 4 43 9 7 5 12 5 12 -1 0 -5
14 -10 30 -11 22 -2 30 2 30 13 0 9 4 14 9 11 5 -4 12 0 15 6 3 7 3 3 0 -9 -6
-27 23 -33 33 -7 5 12 7 13 14 3 10 -16 101 -20 111 -5 4 6 12 5 22 -3 12 -10
16 -10 16 -2 0 7 5 9 12 5 13 -8 238 -12 243 -4 2 3 105 5 228 5 149 0 222 3
217 10 -5 6 1 11 16 11 21 2 23 -1 13 -13 -7 -8 -8 -13 -3 -11 5 1 20 -4 33
-11 22 -12 23 -12 17 4 -5 14 -4 16 7 6 8 -6 12 -22 9 -36 l-4 -25 96 1 c70 0
96 4 93 12 -2 7 -13 11 -23 9 -15 -2 -16 -1 -4 7 8 5 18 7 22 5 13 -8 9 21 -4
36 -11 12 -10 12 4 1 9 -7 18 -22 20 -33 2 -12 8 -23 15 -25 9 -3 12 42 12
176 l0 181 -670 0 c-369 0 -673 1 -677 3 -4 2 -15 2 -24 0z m1109 -35 c-3 -8
-6 -5 -6 6 -1 11 2 17 5 13 3 -3 4 -12 1 -19z m-207 2 c0 -5 -2 -10 -4 -10 -3
0 -8 5 -11 10 -3 6 -1 10 4 10 6 0 11 -4 11 -10z m-620 -24 c0 -3 -4 -8 -10
-11 -5 -3 -10 -1 -10 4 0 6 5 11 10 11 6 0 10 -2 10 -4z m574 -21 c-4 -8 -8
-15 -10 -15 -2 0 -4 7 -4 15 0 8 4 15 10 15 5 0 7 -7 4 -15z m87 -8 c-10 -9
-11 -8 -5 6 3 10 9 15 12 12 3 -3 0 -11 -7 -18z m389 3 c-6 -11 -13 -20 -16
-20 -2 0 0 9 6 20 6 11 13 20 16 20 2 0 0 -9 -6 -20z m-607 -5 c-3 -9 -8 -14
-10 -11 -3 3 -2 9 2 15 9 16 15 13 8 -4z m-448 -15 c3 -5 0 -7 -7 -5 -8 3 -25
-6 -38 -20 -13 -14 -27 -25 -32 -25 -5 0 -18 -9 -30 -20 -21 -19 -38 -19 -38
2 0 5 7 7 16 4 12 -4 15 -2 10 9 -3 8 -1 15 4 15 5 0 26 11 46 25 39 27 59 31
69 15z m126 -23 c-10 -9 -11 -8 -5 6 3 10 9 15 12 12 3 -3 0 -11 -7 -18z m599
9 c-7 -7 -13 -7 -20 0 -6 6 -3 10 10 10 13 0 16 -4 10 -10z m-949 -54 c-22
-21 -29 -31 -17 -28 16 6 17 4 6 -9 -15 -19 -16 -19 -24 0 -3 9 4 24 19 37 14
12 25 30 25 40 0 16 2 17 14 6 11 -11 8 -18 -23 -46z m879 33 c0 -2 -6 -5 -13
-8 -8 -3 -14 1 -14 8 0 7 6 11 14 8 7 -3 13 -6 13 -8z m240 0 c0 -12 -19 -12
-23 0 -4 9 -1 12 9 8 7 -3 14 -7 14 -8z m-355 -5 c3 -6 -1 -7 -9 -4 -18 7 -21
14 -7 14 6 0 13 -4 16 -10z m302 4 c-3 -3 -12 -4 -19 -1 -8 3 -5 6 6 6 11 1
17 -2 13 -5z m221 -29 c-3 -3 -9 2 -12 12 -6 14 -5 15 5 6 7 -7 10 -15 7 -18z
m-843 6 c3 -5 2 -12 -3 -15 -5 -3 -9 1 -9 9 0 17 3 19 12 6z m158 -15 c4 -10
1 -13 -9 -9 -15 6 -19 23 -5 23 5 0 11 -7 14 -14z m442 4 c3 -5 1 -10 -4 -10
-6 0 -11 5 -11 10 0 6 2 10 4 10 3 0 8 -4 11 -10z m-905 -25 c-7 -9 -15 -13
-17 -11 -6 6 20 36 26 30 2 -2 -2 -10 -9 -19z m725 15 c-3 -5 -11 -10 -16 -10
-6 0 -7 5 -4 10 3 6 11 10 16 10 6 0 7 -4 4 -10z m-815 -20 c0 -5 -2 -10 -4
-10 -3 0 -8 5 -11 10 -3 6 -1 10 4 10 6 0 11 -4 11 -10z m290 -5 c-7 -8 -17
-15 -23 -15 -6 0 -2 7 9 15 25 19 30 19 14 0z m110 -5 c0 -4 -11 -11 -25 -14
-14 -4 -25 -13 -25 -22 0 -8 -5 -12 -11 -9 -6 4 0 18 18 35 26 26 43 30 43 10z
m30 5 c0 -8 -4 -15 -10 -15 -5 0 -7 7 -4 15 4 8 8 15 10 15 2 0 4 -7 4 -15z
m300 0 c0 -8 -7 -15 -15 -15 -13 0 -14 3 -3 15 16 18 18 18 18 0z m55 5 c3 -5
1 -10 -4 -10 -6 0 -11 5 -11 10 0 6 2 10 4 10 3 0 8 -4 11 -10z m338 -15 c-8
-22 -22 -18 -16 5 3 11 9 17 14 15 4 -3 6 -12 2 -20z m-1091 9 c4 -3 0 -17 -8
-32 -12 -24 -12 -28 4 -34 15 -7 15 -8 -2 -5 -20 2 -32 47 -13 47 5 0 7 7 3
15 -5 15 5 21 16 9z m102 -10 c3 -8 2 -12 -4 -9 -6 3 -10 10 -10 16 0 14 7 11
14 -7z m721 -3 c-3 -6 -14 -10 -23 -10 -15 1 -15 2 1 6 9 2 17 9 17 15 0 6 3
9 6 5 3 -3 3 -10 -1 -16z m-179 -11 c-10 -3 -25 -17 -33 -31 l-14 -24 6 25 c4
14 7 30 7 36 1 6 13 8 27 6 21 -4 23 -6 7 -12z m374 -1 c0 -4 -7 -6 -15 -3 -8
4 -15 10 -15 15 0 4 7 6 15 3 8 -4 15 -10 15 -15z m-250 -5 c0 -8 -5 -12 -10
-9 -6 4 -17 1 -25 -5 -11 -9 -15 -9 -15 -1 0 9 24 24 48 30 1 1 2 -6 2 -15z
m80 -2 c0 -5 -7 -9 -15 -9 -8 0 -12 4 -9 9 3 4 9 8 15 8 5 0 9 -4 9 -8z m330
4 c0 -3 -4 -8 -10 -11 -5 -3 -10 -1 -10 4 0 6 5 11 10 11 6 0 10 -2 10 -4z
m-1105 -16 c3 -5 1 -10 -4 -10 -6 0 -11 5 -11 10 0 6 2 10 4 10 3 0 8 -4 11
-10z m316 -13 c-10 -9 -11 -8 -5 6 3 10 9 15 12 12 3 -3 0 -11 -7 -18z m304
14 c3 -5 1 -12 -5 -16 -5 -3 -10 1 -10 9 0 18 6 21 15 7z m-495 -17 c0 -10 -6
-14 -14 -11 -8 3 -17 2 -20 -4 -2 -5 -3 -4 -1 3 1 7 8 12 14 11 6 -2 11 2 11
7 0 6 2 10 5 10 3 0 5 -7 5 -16z m390 12 c0 -2 -7 -6 -15 -10 -8 -3 -15 -1
-15 4 0 6 7 10 15 10 8 0 15 -2 15 -4z m-673 -12 c-3 -3 -12 -4 -19 -1 -8 3
-5 6 6 6 11 1 17 -2 13 -5z m210 -5 c-9 -6 -14 -16 -11 -22 5 -8 2 -7 -7 1
-12 11 -12 14 1 22 8 5 20 10 25 10 6 -1 2 -5 -8 -11z m763 7 c0 -3 -4 -8 -10
-11 -5 -3 -10 -1 -10 4 0 6 5 11 10 11 6 0 10 -2 10 -4z m-573 -12 c-3 -3 -12
-4 -19 -1 -8 3 -5 6 6 6 11 1 17 -2 13 -5z m413 -4 c0 -5 -5 -10 -11 -10 -5 0
-7 5 -4 10 3 6 8 10 11 10 2 0 4 -4 4 -10z m373 -5 c-3 -9 -8 -14 -10 -11 -3
3 -2 9 2 15 9 16 15 13 8 -4z m-39 -11 c3 -8 2 -12 -4 -9 -6 3 -10 1 -10 -6 0
-7 -3 -10 -6 -6 -7 6 2 37 10 37 2 0 7 -7 10 -16z"/>
<path d="M611 1531 c-13 -4 -28 -15 -33 -26 -7 -17 -8 -17 -4 4 5 24 4 24 -57
16 -34 -4 -71 -7 -82 -7 -31 1 -82 -76 -90 -134 -4 -27 -9 -56 -11 -65 -3 -10
6 -23 22 -33 29 -20 43 -14 24 8 -6 9 -10 21 -7 28 4 9 6 9 6 -2 2 -25 48 -73
63 -64 10 6 10 4 -1 -9 -9 -11 -10 -17 -2 -17 6 0 11 -4 11 -10 0 -20 -16 -9
-35 22 -10 18 -20 27 -23 20 -2 -8 -11 -6 -29 8 -14 11 -29 18 -33 15 -13 -8
-19 -89 -8 -102 8 -10 7 -12 -4 -8 -12 5 -22 -26 -53 -152 -21 -87 -42 -163
-47 -170 -6 -7 -7 -17 -4 -22 4 -6 2 -18 -3 -28 -21 -40 -43 -115 -37 -129 3
-8 2 -13 -3 -10 -5 3 -11 -1 -15 -9 -9 -25 14 -28 34 -3 11 13 19 18 20 12 0
-18 -38 -56 -45 -44 -3 6 -10 8 -14 5 -8 -4 -34 -87 -36 -112 0 -6 -4 -15 -8
-19 -12 -12 -8 -26 5 -18 10 6 10 4 0 -8 -16 -20 -22 -51 -14 -65 4 -6 18 -14
31 -18 18 -5 22 -4 16 6 -5 9 -1 8 11 -2 10 -10 46 -22 79 -29 80 -16 78 -16
95 -23 8 -4 37 -11 64 -17 81 -18 98 15 55 106 -15 32 -28 67 -29 78 0 12 -5
16 -15 12 -8 -3 -15 -1 -15 4 0 6 4 10 9 10 4 0 11 17 14 37 9 57 12 65 30
100 9 18 17 38 17 46 0 8 25 80 55 161 30 81 57 155 59 164 7 36 19 52 62 77
29 17 41 30 38 40 -4 8 -10 15 -15 15 -5 0 -9 5 -9 11 0 5 5 7 11 3 7 -4 10
-1 7 7 -3 8 -12 13 -22 11 -9 -2 -16 2 -16 8 0 6 5 8 12 4 8 -5 9 -2 5 9 -3
10 -2 17 2 17 5 0 12 -6 14 -12 3 -7 6 0 6 16 1 24 -2 27 -19 23 -11 -3 -20
-1 -20 4 0 8 15 13 33 10 4 0 7 4 7 9 0 6 -6 10 -12 10 -9 0 -8 3 2 10 13 8
12 11 -5 24 -18 14 -18 15 -2 16 20 0 24 40 5 40 -10 0 -10 2 -1 8 6 4 13 36
14 71 3 70 -4 77 -60 62z m-111 -25 c0 -2 -8 -10 -17 -17 -16 -13 -17 -12 -4
4 13 16 21 21 21 13z m124 -36 c-6 -5 -24 21 -24 34 0 6 6 1 14 -10 8 -10 12
-21 10 -24z m-164 6 c0 -2 -7 -6 -15 -10 -8 -3 -15 -1 -15 4 0 6 7 10 15 10 8
0 15 -2 15 -4z m-55 -36 c3 -6 -1 -7 -9 -4 -18 7 -21 14 -7 14 6 0 13 -4 16
-10z m30 -20 c-3 -5 -11 -10 -16 -10 -6 0 -7 5 -4 10 3 6 11 10 16 10 6 0 7
-4 4 -10z m-38 -23 c-1 -7 4 -11 11 -9 8 1 11 -2 7 -8 -8 -13 -22 -5 -35 20
-8 16 -8 18 4 14 9 -3 14 -11 13 -17z m226 -11 c6 -15 -1 -26 -14 -26 -5 0 -6
8 -2 18 5 14 3 15 -8 5 -7 -7 -18 -13 -23 -13 -12 1 23 30 35 30 4 0 9 -6 12
-14z m-138 -16 c3 -5 2 -10 -4 -10 -5 0 -13 5 -16 10 -3 6 -2 10 4 10 5 0 13
-4 16 -10z m65 -12 c0 -5 5 -6 10 -3 6 4 9 3 8 -2 -1 -4 3 -17 9 -29 9 -16 9
-21 -1 -21 -7 0 -13 7 -12 16 1 9 -4 15 -11 14 -7 -2 -17 5 -22 15 -8 14 -6
19 5 19 7 0 14 -4 14 -9z m-100 -38 c0 -5 -7 -7 -15 -4 -8 4 -12 10 -9 15 6
11 24 2 24 -11z m70 10 c0 -5 -2 -10 -4 -10 -3 0 -8 5 -11 10 -3 6 -1 10 4 10
6 0 11 -4 11 -10z m27 -30 c-1 -12 -5 -16 -10 -11 -5 5 -6 14 -3 20 11 16 15
13 13 -9z m-30 -20 c9 -13 12 -20 6 -17 -6 4 -13 3 -15 -3 -1 -5 -13 -7 -24
-4 -15 4 -21 13 -20 29 1 31 30 28 53 -5z m58 0 c3 -5 1 -10 -4 -10 -6 0 -11
5 -11 10 0 6 2 10 4 10 3 0 8 -4 11 -10z m-18 -36 c-3 -3 -12 -4 -19 -1 -8 3
-5 6 6 6 11 1 17 -2 13 -5z m73 2 c0 -2 -7 -7 -16 -10 -8 -3 -12 -2 -9 4 6 10
25 14 25 6z m-274 -52 c-7 -37 -16 -43 -12 -8 4 34 4 34 11 34 3 0 3 -12 1
-26z m214 15 c13 -9 12 -10 -2 -5 -12 3 -18 0 -18 -9 0 -8 5 -15 11 -15 5 0 7
-5 3 -11 -8 -14 -24 8 -24 34 0 20 9 21 30 6z m50 7 c0 -2 -8 -10 -17 -17 -16
-13 -17 -12 -4 4 13 16 21 21 21 13z m-130 -31 c7 8 19 15 28 15 8 0 12 -3 9
-7 -4 -3 -1 -13 5 -22 9 -12 8 -12 -7 1 -17 16 -19 16 -35 -2 -17 -19 -17 -19
-29 8 -10 24 -10 25 3 9 12 -15 15 -15 26 -2z m-48 -17 c-8 -8 -8 -15 -1 -24
7 -9 0 -15 -28 -25 -21 -7 -42 -12 -46 -11 -4 1 -17 -3 -28 -9 -15 -7 -18 -14
-11 -21 12 -12 5 -38 -10 -38 -6 0 -6 6 1 14 8 10 9 16 1 21 -13 8 -1 32 36
69 25 24 30 26 40 12 11 -16 35 -22 33 -8 -3 19 2 32 13 32 9 0 9 -3 0 -12z
m198 6 c0 -3 -7 -12 -15 -21 -20 -19 -32 -9 -15 12 12 15 30 20 30 9z m-305
-44 c-3 -5 -12 -10 -18 -10 -7 0 -6 4 3 10 19 12 23 12 15 0z m185 -10 c0 -10
-31 -22 -38 -15 -3 3 0 5 7 5 7 0 11 7 8 14 -4 10 -1 13 9 9 7 -3 14 -9 14
-13z m-62 -25 c-3 -3 -9 2 -12 12 -6 14 -5 15 5 6 7 -7 10 -15 7 -18z m-24 -6
c-6 -11 -24 -2 -24 11 0 5 7 7 15 4 8 -4 12 -10 9 -15z m-70 0 c-3 -6 -1 -15
6 -19 8 -5 7 -9 -5 -13 -9 -4 -13 -3 -10 2 3 5 1 12 -5 16 -12 7 -4 25 11 25
6 0 7 -5 3 -11z m113 -6 c-4 -3 -1 -13 6 -22 10 -14 10 -14 -4 -4 -9 7 -20 9
-25 5 -4 -4 -2 1 5 11 7 9 16 17 19 17 3 0 2 -3 -1 -7z m83 -13 c0 -5 -5 -10
-10 -10 -6 0 -8 -14 -6 -32 3 -18 3 -27 0 -20 -3 6 -11 9 -16 5 -8 -4 -9 2 -4
18 4 13 8 30 8 37 2 14 28 17 28 2z m-140 -43 c0 -10 -4 -16 -10 -12 -5 3 -7
12 -3 20 3 8 0 15 -7 15 -6 0 -8 5 -4 11 8 14 24 -8 24 -34z m100 33 c0 -5 -2
-10 -4 -10 -3 0 -8 5 -11 10 -3 6 -1 10 4 10 6 0 11 -4 11 -10z m-124 -62 c3
-12 12 -17 20 -14 12 5 12 2 3 -16 -12 -22 -12 -22 -19 -2 -4 11 -16 26 -26
34 -16 13 -17 13 -11 -2 4 -12 0 -21 -13 -28 -21 -11 -28 -40 -10 -40 6 0 10
-4 10 -10 0 -18 -18 -11 -25 10 -8 24 -18 25 -39 5 -21 -21 -28 -19 -14 4 7
11 16 17 20 15 4 -3 8 -1 8 5 0 6 7 8 15 5 8 -4 15 -1 15 5 0 6 6 11 13 11 14
0 16 27 3 48 -6 10 -2 10 18 1 14 -7 28 -21 32 -31z m-76 28 c0 -3 -4 -8 -10
-11 -5 -3 -10 -1 -10 4 0 6 5 11 10 11 6 0 10 -2 10 -4z m171 -5 c8 13 9 11 9
-18 0 -5 -6 -9 -13 -9 -6 -1 -16 -2 -22 -3 -5 -1 -3 -6 5 -11 8 -5 15 -15 15
-22 0 -20 33 -21 38 -1 4 14 5 13 6 -4 1 -15 -5 -23 -15 -23 -10 0 -14 -6 -11
-14 4 -9 -2 -16 -15 -19 -14 -4 -19 -11 -14 -22 3 -9 2 -13 -4 -10 -14 8 -13
21 3 37 16 17 16 40 -2 46 -10 3 -12 0 -7 -13 5 -15 4 -16 -9 -5 -10 8 -15 9
-15 1 0 -6 -4 -11 -10 -11 -14 0 -13 37 2 46 7 4 8 3 4 -4 -5 -8 -2 -10 9 -6
12 5 13 9 4 20 -9 11 -9 14 0 14 8 0 10 8 5 22 -6 21 -5 21 10 9 15 -13 19
-13 27 0z m-208 -26 c-3 -9 -8 -14 -10 -11 -3 3 -2 9 2 15 9 16 15 13 8 -4z
m87 -45 c-24 -15 -36 -11 -14 4 10 8 21 12 24 10 2 -3 -2 -9 -10 -14z m77 -83
c0 -10 -4 -14 -11 -8 -6 5 -28 8 -48 7 -36 -2 -37 -1 -21 16 10 11 12 18 5 18
-17 0 -10 24 8 32 18 7 67 -39 67 -65z m-152 23 c4 -6 12 -7 18 -4 9 5 9 4 0
-6 -9 -10 -15 -10 -28 4 -9 9 -12 16 -6 16 5 0 13 -5 16 -10z m-26 -9 c7 -5
11 -13 8 -17 -3 -5 6 -10 19 -10 15 -1 25 5 29 17 4 10 11 19 17 19 7 0 6 -5
-2 -14 -9 -12 -7 -17 9 -28 l21 -13 -22 -17 c-22 -17 -22 -18 -2 -18 11 0 25
-5 32 -12 9 -9 12 -8 12 6 0 9 5 14 10 11 6 -3 10 -2 10 4 0 6 7 8 15 5 8 -4
15 -1 15 5 0 6 -7 11 -15 11 -8 0 -15 5 -15 10 0 13 17 13 25 0 4 -7 14 -6 28
2 19 10 20 9 10 -4 -7 -8 -10 -18 -6 -21 3 -4 -2 -9 -11 -13 -14 -5 -14 -9 -4
-22 12 -13 10 -14 -10 -3 -31 16 -52 8 -45 -18 3 -11 11 -17 18 -15 16 6 28
-47 14 -61 -7 -7 -8 -4 -3 9 7 17 5 17 -25 2 -29 -15 -31 -15 -31 0 0 9 6 14
13 11 8 -3 13 2 12 12 -1 24 -15 42 -26 36 -5 -4 -9 -2 -9 4 0 5 -9 13 -20 16
-21 7 -27 39 -10 50 6 3 10 11 10 18 0 8 -3 8 -12 -1 -9 -9 -15 -9 -27 1 -12
9 -13 9 -7 0 4 -8 2 -13 -6 -13 -10 0 -10 -2 0 -9 8 -5 12 -17 10 -27 -2 -11
0 -23 4 -29 5 -5 24 -31 44 -58 19 -26 39 -45 44 -42 17 10 20 -13 3 -26 -18
-16 -15 -17 -51 16 -15 14 -29 25 -32 25 -3 0 -14 20 -25 45 -23 51 -35 57
-35 19 0 -19 -4 -25 -15 -20 -8 3 -15 1 -15 -4 0 -6 -4 -10 -8 -10 -5 0 -9 7
-9 16 0 10 7 14 19 11 11 -3 18 0 18 9 0 8 -6 11 -15 8 -8 -4 -15 -1 -15 6 0
6 5 8 10 5 6 -3 10 -1 10 5 0 6 5 8 12 4 8 -5 9 -2 4 12 -13 29 -15 65 -5 58
5 -3 7 -10 4 -15 -4 -5 -1 -9 5 -9 6 0 8 -5 4 -11 -7 -12 15 -31 28 -23 4 3 8
11 8 17 0 7 -4 6 -10 -3 -7 -11 -11 -4 -16 28 -4 23 -10 42 -15 42 -5 0 -9 5
-9 10 0 12 10 13 29 1z m122 -54 c-10 -9 -11 -8 -5 6 3 10 9 15 12 12 3 -3 0
-11 -7 -18z m-17 -98 c-9 -15 -28 -10 -41 10 -12 19 -11 19 17 9 17 -5 27 -14
24 -19z m73 9 c-3 -8 -6 -5 -6 6 -1 11 2 17 5 13 3 -3 4 -12 1 -19z m-216 -42
c-14 -8 -32 -11 -40 -8 -11 5 -7 8 14 13 47 10 52 9 26 -5z m26 -26 c1 -11 -3
-20 -8 -20 -6 0 -7 5 -3 12 5 8 2 9 -11 4 -15 -5 -16 -4 -5 9 17 20 25 19 27
-5z m37 -51 c-3 -5 -11 -9 -17 -9 -7 0 -6 4 3 11 11 7 12 12 3 15 -7 3 -9 12
-6 21 5 13 8 12 15 -6 4 -13 6 -27 2 -32z m46 17 c0 -16 27 -29 42 -19 7 3 8
1 4 -6 -5 -7 -16 -9 -28 -5 -15 4 -18 3 -13 -6 6 -9 3 -9 -14 -1 -23 13 -28
31 -8 31 8 0 7 4 -3 10 -13 8 -12 10 3 10 9 0 17 -6 17 -14z m-89 -23 c7 -7 6
-12 -6 -17 -10 -3 -14 -2 -10 5 4 6 -2 8 -17 6 -12 -2 -17 -2 -10 0 7 3 10 8
7 13 -7 12 23 6 36 -7z m-86 -23 c-3 -5 -2 -10 3 -10 15 0 33 -48 20 -56 -7
-4 -8 -3 -4 4 4 6 -3 21 -14 32 -18 18 -20 40 -4 40 3 0 2 -4 -1 -10z m140 0
c3 -5 1 -10 -4 -10 -6 0 -11 5 -11 10 0 6 2 10 4 10 3 0 8 -4 11 -10z m49 -42
c-3 -5 -9 -6 -14 -3 -5 3 -11 1 -15 -5 -3 -5 -1 -10 6 -10 23 0 -5 -18 -31
-20 -41 -3 -44 -1 -25 20 10 11 14 20 9 21 -5 0 7 6 26 13 34 13 56 4 44 -16z
m-97 -38 c10 -15 10 -22 -3 -35 -8 -8 -21 -15 -27 -15 -8 0 -8 3 1 9 10 6 9
10 -7 14 -27 7 -27 27 0 22 15 -3 19 0 15 10 -8 22 7 18 21 -5z m-94 3 c-7 -2
-13 -9 -13 -14 0 -6 8 -5 20 1 11 6 20 7 20 2 0 -12 -40 -23 -52 -16 -11 7 10
34 26 33 7 0 6 -2 -1 -6z m212 -11 c-3 -3 -11 0 -18 7 -9 10 -8 11 6 5 10 -3
15 -9 12 -12z m4 -34 c12 -3 12 -6 -2 -11 -11 -4 -21 1 -28 16 -10 19 -10 20
2 11 8 -6 21 -13 28 -16z m-179 1 c0 -6 -7 -9 -15 -6 -8 4 -17 2 -20 -2 -3 -5
2 -12 11 -15 8 -3 12 -10 9 -16 -3 -5 -1 -10 5 -10 6 0 8 -5 5 -11 -5 -6 -13
-2 -23 13 -9 13 -20 26 -25 29 -5 4 -1 12 9 18 25 14 44 14 44 0z m90 7 c0 -3
-4 -8 -10 -11 -5 -3 -10 -1 -10 4 0 6 5 11 10 11 6 0 10 -2 10 -4z m130 -26
c0 -5 -2 -10 -4 -10 -3 0 -8 5 -11 10 -3 6 -1 10 4 10 6 0 11 -4 11 -10z
m-173 -22 c-3 -8 -6 -5 -6 6 -1 11 2 17 5 13 3 -3 4 -12 1 -19z m-97 -2 c0 -2
-7 -7 -16 -10 -8 -3 -12 -2 -9 4 6 10 25 14 25 6z m76 -31 c2 -20 0 -22 -11
-12 -8 7 -10 16 -4 23 5 6 7 14 4 17 -3 4 -2 5 2 2 3 -3 7 -16 9 -30z m194 26
c0 -5 -9 -7 -20 -4 -11 3 -20 7 -20 9 0 2 9 4 20 4 11 0 20 -4 20 -9z m-100
-21 c0 -24 -26 -38 -42 -22 -8 8 -5 9 11 5 16 -4 21 -1 21 16 0 11 2 21 5 21
3 0 5 -9 5 -20z m34 -15 c-4 -8 -10 -12 -15 -9 -11 6 -2 24 11 24 5 0 7 -7 4
-15z m104 -8 c2 -9 -2 -17 -8 -17 -7 0 -10 7 -6 15 4 12 -1 14 -24 10 -16 -3
-31 -1 -34 4 -3 5 11 8 32 7 26 -1 38 -6 40 -19z m-193 -7 c3 -6 -1 -7 -9 -4
-18 7 -21 14 -7 14 6 0 13 -4 16 -10z"/>
<path d="M386 921 c-4 -6 -3 -18 2 -27 8 -14 10 -14 15 -2 7 19 -8 44 -17 29z"/>
<path d="M360 781 c0 -5 7 -12 16 -15 14 -5 15 -4 4 9 -14 17 -20 19 -20 6z"/>
<path d="M3569 1508 c-4 -63 -3 -81 3 -85 5 -2 8 19 8 46 0 28 -2 51 -5 51 -3
0 -5 -6 -6 -12z"/>
<path d="M3568 1388 c-6 -18 -1 -88 6 -95 3 -4 6 19 6 50 0 56 -4 69 -12 45z"/>
<path d="M2115 1240 c-9 -14 -4 -220 5 -220 5 0 10 5 10 12 0 6 3 8 7 4 5 -4
-1 -14 -11 -22 -25 -18 -14 -29 14 -14 15 8 20 8 16 1 -4 -6 0 -11 11 -11 15
0 15 -2 3 -10 -9 -5 -19 -5 -26 1 -7 6 -15 6 -18 1 -8 -14 4 -22 33 -22 16 0
21 -3 14 -8 -15 -9 57 -92 80 -92 13 0 15 15 16 86 1 72 -2 85 -14 80 -8 -3
-14 0 -12 7 1 7 -4 11 -10 10 -7 -2 -13 2 -13 8 0 7 10 9 26 5 24 -6 26 -5 21
15 -5 20 -3 21 34 16 31 -4 39 -2 39 11 0 8 3 12 6 9 4 -4 7 -40 7 -82 0 -66
2 -75 18 -75 10 0 21 5 24 10 3 6 13 10 21 10 8 0 12 -5 9 -10 -3 -6 4 -14 17
-19 13 -6 17 -10 10 -10 -7 -1 -22 4 -32 9 -13 7 -21 7 -25 0 -4 -6 -14 -8
-23 -6 -14 5 -17 -2 -18 -39 l-2 -45 59 0 59 0 0 50 c0 41 -3 50 -17 51 -15 0
-15 2 -3 7 20 9 27 47 7 39 -14 -5 -47 21 -47 36 0 15 19 6 25 -12 4 -12 12
-18 20 -14 8 3 13 9 10 14 -3 4 -3 19 1 33 4 18 14 25 40 28 46 5 54 -2 56
-45 1 -20 5 -34 10 -31 11 7 10 -3 -1 -25 -11 -19 -4 -35 19 -44 12 -4 12 -6
-1 -6 -21 -1 -34 -31 -14 -31 18 0 19 -9 4 -30 -9 -13 -10 -12 -5 3 3 9 1 17
-5 17 -6 0 -9 -8 -7 -17 2 -14 15 -19 52 -21 27 -1 54 3 62 9 15 12 15 49 -1
49 -5 0 -3 4 5 10 8 5 11 12 8 15 -4 4 -17 0 -30 -9 -29 -21 -44 -20 -27 1 12
15 12 16 -3 10 -10 -3 -18 -2 -18 3 0 6 5 10 11 10 6 0 8 7 5 17 -4 10 -4 14
0 11 3 -4 15 3 25 15 10 12 18 16 19 10 0 -7 -4 -13 -9 -13 -10 0 -21 -36 -14
-44 3 -3 12 2 21 11 17 16 25 96 9 86 -5 -3 -3 5 3 18 10 17 10 24 1 27 -6 2
-11 8 -11 14 0 6 12 2 27 -7 24 -16 27 -16 38 -1 13 17 30 23 20 6 -6 -9 7
-14 30 -11 6 1 3 -5 -6 -12 -15 -11 -15 -17 -3 -45 7 -18 9 -30 4 -27 -6 3
-10 -1 -10 -9 0 -17 15 -22 24 -7 3 5 15 11 26 14 11 3 18 1 15 -3 -3 -5 -1
-20 4 -33 7 -18 7 -27 -1 -29 -6 -2 -4 -11 6 -21 10 -9 13 -17 7 -17 -6 0 -21
11 -32 24 -24 27 -49 24 -49 -5 0 -24 16 -25 24 -2 6 15 9 15 16 3 5 -8 7 -17
5 -20 -2 -3 6 -7 17 -7 12 -1 26 -7 32 -13 15 -15 -37 -8 -56 7 -18 15 -43 0
-35 -21 8 -21 112 -23 120 -3 3 7 5 58 6 112 1 54 2 100 4 100 1 1 14 5 30 9
23 6 29 3 38 -21 6 -15 9 -67 6 -115 -2 -49 -1 -88 1 -88 3 0 11 8 19 18 14
16 14 16 9 0 -11 -35 18 -17 85 51 65 66 68 72 66 113 -1 24 -6 49 -10 56 -5
7 -4 12 2 12 6 0 11 7 11 15 0 12 -4 14 -19 5 -11 -5 -22 -6 -25 -1 -3 4 6 13
19 19 27 12 34 42 11 42 -7 0 -20 8 -27 18 -11 14 -11 15 1 5 22 -20 40 -16
36 10 -3 20 -9 22 -57 23 -30 0 -60 -4 -66 -9 -8 -6 -13 -6 -13 1 0 6 -49 10
-139 9 -90 -1 -137 -6 -133 -12 3 -6 0 -6 -9 1 -8 5 -21 10 -29 9 -8 -1 -33
-3 -54 -3 -37 -2 -38 -3 -21 -16 18 -13 17 -14 -12 -12 -34 1 -58 16 -27 16
12 0 15 3 7 8 -14 9 -366 8 -381 -2 -6 -3 -13 -2 -17 4 -4 7 -12 7 -26 0 -10
-6 -19 -7 -19 -2 0 9 -39 11 -45 2z m375 -20 c0 -5 -2 -10 -4 -10 -3 0 -8 5
-11 10 -3 6 -1 10 4 10 6 0 11 -4 11 -10z m60 6 c0 -2 -7 -7 -16 -10 -8 -3
-12 -2 -9 4 6 10 25 14 25 6z m550 0 c0 -3 -4 -8 -10 -11 -5 -3 -10 -1 -10 4
0 6 5 11 10 11 6 0 10 -2 10 -4z m-936 -22 c3 -8 2 -12 -3 -9 -6 3 -14 -3 -20
-12 -6 -11 -11 -13 -11 -5 0 10 19 40 26 42 1 0 5 -7 8 -16z m61 -3 c-3 -6
-11 -8 -17 -5 -6 4 -5 9 3 15 16 10 23 4 14 -10z m495 -16 c-7 -8 -16 -12 -21
-10 -4 3 -1 14 9 23 20 20 30 9 12 -13z m55 17 c-3 -3 -11 0 -18 7 -9 10 -8
11 6 5 10 -3 15 -9 12 -12z m45 -3 c0 -5 -4 -9 -8 -9 -5 0 -9 7 -9 15 0 8 4
12 9 9 4 -3 8 -9 8 -15z m-525 0 c3 -5 -1 -6 -9 -3 -9 4 -16 -2 -18 -16 -3
-20 -4 -20 -23 -6 -16 13 -17 15 -2 10 12 -4 16 -2 12 8 -6 16 31 23 40 7z
m35 -9 c0 -13 -6 -20 -17 -19 -11 0 -13 3 -5 6 6 2 12 11 12 19 0 8 2 14 5 14
3 0 5 -9 5 -20z m100 16 c0 -2 -7 -7 -16 -10 -8 -3 -12 -2 -9 4 6 10 25 14 25
6z m597 -2 c-3 -3 -12 -4 -19 -1 -8 3 -5 6 6 6 11 1 17 -2 13 -5z m-538 -14
c6 8 13 11 16 8 6 -6 -49 -68 -60 -68 -2 0 -2 7 2 17 5 13 2 15 -18 10 -23 -6
-22 -5 6 18 21 18 31 21 37 12 6 -9 10 -8 17 3z m361 6 c0 -3 -4 -8 -10 -11
-5 -3 -10 -1 -10 4 0 6 5 11 10 11 6 0 10 -2 10 -4z m148 -9 c6 -5 18 -5 25
-2 6 4 3 -1 -7 -9 -11 -9 -23 -16 -26 -16 -4 0 -12 -10 -18 -22 -9 -21 -10
-21 -7 7 2 21 8 30 20 28 12 -1 14 2 6 10 -7 7 -14 7 -23 0 -15 -12 -48 -13
-48 -2 0 16 55 20 78 6z m-603 -15 c-3 -3 -11 0 -18 7 -9 10 -8 11 6 5 10 -3
15 -9 12 -12z m400 9 c3 -5 1 -12 -4 -15 -5 -3 -11 1 -15 9 -6 16 9 21 19 6z
m-615 -5 c0 -2 -12 -11 -27 -20 l-28 -17 24 20 c23 21 31 25 31 17z m365 -6
c-3 -5 -12 -10 -18 -10 -7 0 -6 4 3 10 19 12 23 12 15 0z m51 -2 c4 -6 -3 -19
-16 -30 -24 -20 -20 -32 15 -41 12 -3 8 -5 -10 -4 -24 2 -30 6 -29 25 0 12 -4
22 -9 22 -6 0 -2 9 8 20 21 23 31 25 41 8z m490 -12 c1 -8 -5 -12 -16 -9 -11
3 -24 -4 -34 -18 -9 -13 -16 -18 -16 -12 0 6 7 16 15 23 8 7 12 16 9 21 -3 5
2 6 10 3 10 -4 16 -1 16 7 0 15 13 3 16 -15z m-851 5 c6 -11 -25 -45 -33 -36
-4 3 0 10 8 15 19 11 8 22 -14 14 -9 -3 -16 -17 -16 -30 0 -31 -15 -31 -18 0
-2 31 57 62 73 37z m435 -17 c0 -2 -9 0 -20 6 -15 8 -20 8 -20 -1 0 -7 -3 -10
-6 -6 -3 3 -3 10 1 16 6 11 45 -2 45 -15z m195 16 c3 -5 -1 -10 -10 -10 -9 0
-13 5 -10 10 3 6 8 10 10 10 2 0 7 -4 10 -10z m-530 -22 c-9 -6 -19 -7 -22 -4
-4 3 -1 6 6 6 7 0 9 4 6 10 -4 6 1 7 11 3 15 -6 15 -7 -1 -15z m419 7 c-4 -8
-11 -12 -16 -9 -6 4 -5 10 3 15 19 12 19 11 13 -6z m-471 -12 c-3 -7 6 -17 18
-22 13 -5 18 -10 11 -10 -19 -1 -49 16 -55 32 -3 7 2 13 13 13 10 0 16 -6 13
-13z m247 13 c0 -2 -8 -10 -17 -17 -16 -13 -17 -12 -4 4 13 16 21 21 21 13z
m-115 -16 c-3 -5 -12 -10 -18 -10 -7 0 -6 4 3 10 19 12 23 12 15 0z m590 1
c-7 -12 24 -43 35 -36 5 3 3 -6 -5 -21 -7 -15 -11 -34 -8 -43 4 -13 3 -13 -5
-2 -6 9 -7 23 -1 38 6 18 5 23 -6 23 -8 0 -15 6 -15 13 0 8 -4 7 -11 -3 -8
-12 -9 -11 -7 5 2 11 8 23 13 27 14 10 17 10 10 -1z m-288 -7 c-3 -3 -12 -4
-19 -1 -8 3 -5 6 6 6 11 1 17 -2 13 -5z m83 -8 c0 -2 -7 -7 -16 -10 -8 -3 -12
-2 -9 4 6 10 25 14 25 6z m290 -8 c0 -9 4 -8 10 2 6 9 10 10 10 3 0 -6 -7 -19
-16 -28 -9 -8 -13 -22 -10 -30 3 -8 1 -15 -3 -15 -13 0 -21 29 -10 36 5 3 7
14 4 25 -4 11 -2 19 4 19 6 0 11 -6 11 -12z m-865 -8 c-3 -5 -12 -7 -20 -3
-21 7 -19 13 6 13 11 0 18 -4 14 -10z m170 0 c3 -6 -1 -7 -9 -4 -18 7 -21 14
-7 14 6 0 13 -4 16 -10z m60 0 c3 -5 1 -10 -4 -10 -6 0 -11 5 -11 10 0 6 2 10
4 10 3 0 8 -4 11 -10z m370 -20 c3 -5 1 -10 -4 -10 -6 0 -11 5 -11 10 0 6 2
10 4 10 3 0 8 -4 11 -10z m-624 -15 c0 -5 -5 -11 -12 -14 -6 -2 -9 1 -5 7 3 6
0 13 -6 16 -7 3 -5 5 5 3 10 -1 18 -6 18 -12z m183 -29 c-4 -12 -2 -16 5 -12
6 4 11 2 11 -3 0 -6 -6 -11 -14 -11 -9 0 -14 12 -14 36 0 25 3 32 9 23 5 -8 6
-22 3 -33z m76 34 c0 -5 -5 -10 -11 -10 -5 0 -7 5 -4 10 3 6 8 10 11 10 2 0 4
-4 4 -10z m117 -12 c-3 -8 -6 -5 -6 6 -1 11 2 17 5 13 3 -3 4 -12 1 -19z m26
7 c-3 -9 -8 -14 -10 -11 -3 3 -2 9 2 15 9 16 15 13 8 -4z m-173 1 c0 -3 -4 -8
-10 -11 -5 -3 -10 -1 -10 4 0 6 5 11 10 11 6 0 10 -2 10 -4z m697 -21 c-7 -14
-16 -25 -20 -25 -5 0 -6 3 -4 8 2 4 7 15 10 25 4 9 11 17 16 17 5 0 4 -11 -2
-25z m-946 -16 c16 -17 29 -33 29 -36 0 -10 -49 33 -50 44 0 6 -6 14 -12 16
-7 3 -9 6 -5 6 5 1 22 -13 38 -30z m639 22 c0 -6 -9 -9 -19 -8 -11 0 -17 5
-15 9 7 11 34 10 34 -1z m-196 -27 c24 -23 19 -26 -14 -9 -16 9 -30 18 -30 20
0 11 30 4 44 -11z m226 6 c-8 -5 -22 -10 -30 -10 -13 0 -13 1 0 10 8 5 22 10
30 10 13 0 13 -1 0 -10z m273 -29 c-12 -11 -26 -15 -38 -11 -16 5 -13 8 13 13
21 4 32 13 33 24 0 12 2 13 6 5 3 -8 -3 -21 -14 -31z m-63 25 c0 -3 -4 -8 -10
-11 -5 -3 -10 -1 -10 4 0 6 5 11 10 11 6 0 10 -2 10 -4z m-825 -16 c3 -5 1
-10 -4 -10 -6 0 -11 5 -11 10 0 6 2 10 4 10 3 0 8 -4 11 -10z m637 -26 c-6
-11 -11 -13 -16 -5 -4 6 -2 11 3 11 6 0 11 8 12 18 0 9 3 12 5 5 3 -7 1 -20
-4 -29z m186 5 c2 -5 9 -9 17 -9 7 0 18 -7 25 -15 9 -10 9 -15 1 -15 -6 0 -11
4 -11 9 0 5 -13 9 -29 9 -20 -1 -28 -5 -24 -14 3 -8 9 -12 13 -9 5 3 11 1 15
-5 3 -5 -1 -10 -9 -10 -8 0 -20 9 -26 19 -8 16 -6 22 7 31 16 10 16 11 -3 7
-13 -3 -21 1 -21 10 0 14 39 8 45 -8z m-653 -9 c-10 -11 -23 -20 -29 -20 -6 1
0 10 13 20 30 26 39 26 16 0z m192 -16 c-3 -3 -12 -4 -19 -1 -8 3 -5 6 6 6 11
1 17 -2 13 -5z m-350 -22 c8 -5 -2 -8 -24 -9 -25 -1 -32 2 -22 8 17 11 30 11
46 1z m770 -8 c-3 -3 -12 -4 -19 -1 -8 3 -5 6 6 6 11 1 17 -2 13 -5z m-764
-35 c3 -12 1 -19 -5 -17 -13 5 -20 38 -8 38 4 0 10 -9 13 -21z m124 -1 c-3 -8
-6 -5 -6 6 -1 11 2 17 5 13 3 -3 4 -12 1 -19z m69 13 c-5 -8 -56 -3 -56 5 0 2
14 4 31 4 16 0 28 -4 25 -9z m574 -1 c0 -5 -4 -10 -9 -10 -6 0 -13 5 -16 10
-3 6 1 10 9 10 9 0 16 -4 16 -10z m-399 -33 c-10 -9 -11 -8 -5 6 3 10 9 15 12
12 3 -3 0 -11 -7 -18z m49 13 c0 -5 -2 -10 -4 -10 -3 0 -8 5 -11 10 -3 6 -1
10 4 10 6 0 11 -4 11 -10z m-244 -18 c1 -7 0 -8 -3 -2 -3 7 -9 8 -17 1 -8 -6
-17 -6 -26 1 -12 8 -12 9 3 4 9 -3 17 -1 17 5 0 14 23 6 26 -9z"/>
<path d="M2450 1170 c0 -5 5 -10 10 -10 6 0 10 5 10 10 0 6 -4 10 -10 10 -5 0
-10 -4 -10 -10z"/>
<path d="M2567 1163 c-10 -9 -9 -23 2 -23 5 0 11 7 15 15 5 15 -5 20 -17 8z"/>
<path d="M3305 1209 c-3 -4 -12 -6 -20 -2 -8 3 -15 0 -15 -7 0 -6 5 -8 12 -4
7 5 8 3 4 -5 -5 -7 -15 -10 -23 -7 -8 3 -11 1 -8 -4 3 -5 6 -34 6 -64 l1 -55
57 -1 c31 0 82 -2 114 -4 48 -3 57 -1 55 13 -2 9 -7 19 -13 23 -7 5 -6 8 0 8
6 0 11 18 12 39 1 30 -2 41 -15 44 -15 4 -15 5 1 6 33 2 6 21 -30 21 -31 0
-34 -2 -23 -15 11 -13 10 -14 -6 -8 -17 6 -17 5 -5 -10 7 -9 18 -14 23 -11 6
4 8 -2 3 -15 -5 -16 -2 -21 12 -21 12 0 14 3 6 8 -8 5 -9 13 -3 22 7 11 10 12
10 2 0 -7 4 -11 9 -7 6 3 6 -7 0 -27 -5 -18 -9 -35 -9 -38 0 -3 -5 3 -11 13
-5 9 -15 17 -22 17 -7 0 -6 -4 3 -10 12 -7 10 -9 -7 -7 -13 0 -25 7 -28 15 -2
7 -1 11 4 8 5 -3 11 4 14 15 4 15 2 19 -9 15 -11 -4 -13 1 -9 24 4 22 1 30
-10 30 -8 0 -15 -6 -15 -12 0 -9 -3 -10 -8 -2 -10 15 -51 24 -57 13z m20 -31
c-19 -11 -30 -5 -21 11 4 6 14 7 22 4 15 -5 14 -7 -1 -15z m-33 -41 c3 -16 9
-32 16 -36 8 -4 5 -10 -7 -18 -17 -11 -19 -7 -20 39 -1 54 5 62 11 15z m43 13
c-3 -5 -13 -10 -21 -10 -8 0 -12 5 -9 10 3 6 13 10 21 10 8 0 12 -4 9 -10z
m42 -16 c-3 -3 -12 -4 -19 -1 -8 3 -5 6 6 6 11 1 17 -2 13 -5z m-28 -21 c9
-16 12 -16 21 -3 5 8 10 10 10 4 0 -27 -25 -31 -50 -8 -20 19 -21 24 -8 24 9
0 22 -8 27 -17z m51 -33 c0 -5 -2 -10 -4 -10 -3 0 -8 5 -11 10 -3 6 -1 10 4
10 6 0 11 -4 11 -10z m60 -4 c0 -3 -4 -8 -10 -11 -5 -3 -10 -1 -10 4 0 6 5 11
10 11 6 0 10 -2 10 -4z"/>
<path d="M891 1018 c-11 -24 -11 -34 0 -56 l14 -27 51 52 c27 29 49 54 47 55
-2 0 -25 2 -51 3 -45 1 -50 -1 -61 -27z m39 2 c0 -5 -5 -10 -11 -10 -5 0 -7 5
-4 10 3 6 8 10 11 10 2 0 4 -4 4 -10z"/>
<path d="M2788 976 c-24 -18 -23 -29 1 -16 24 12 34 13 26 1 -3 -5 -1 -12 5
-16 11 -7 13 5 4 29 -7 19 -14 20 -36 2z"/>
<path d="M670 949 c0 -5 -4 -8 -9 -5 -13 8 -37 -24 -25 -32 6 -4 15 -14 20
-23 5 -9 33 -44 62 -77 37 -42 59 -59 70 -55 13 4 14 3 3 -5 -18 -13 -6 -32
20 -32 11 0 18 -4 14 -9 -3 -5 5 -13 17 -17 15 -4 25 -1 35 12 12 17 13 17 13
0 0 -16 11 -17 117 -15 l118 2 53 51 c29 27 51 55 48 63 -3 7 0 13 8 13 13 0
86 68 86 81 0 13 -70 26 -107 20 -5 -1 -23 -23 -42 -49 -45 -62 -93 -93 -155
-98 -28 -3 -52 -7 -55 -9 -2 -3 -10 0 -18 6 -9 8 -13 8 -13 0 0 -7 -8 -8 -25
-1 -14 5 -29 9 -33 7 -10 -3 -113 103 -143 147 -22 34 -59 49 -59 25z m560
-88 c0 -5 -7 -11 -14 -14 -10 -4 -13 -1 -9 9 6 15 23 19 23 5z m-93 -86 c-7
-13 -14 -20 -15 -14 -2 5 2 16 8 24 18 21 20 18 7 -10z m24 -8 c-6 -8 -7 -18
-3 -22 4 -5 2 -5 -5 -1 -14 8 -6 36 9 36 7 0 6 -5 -1 -13z m-61 -7 c0 -5 -5
-10 -11 -10 -5 0 -7 5 -4 10 3 6 8 10 11 10 2 0 4 -4 4 -10z m-193 -42 c-3 -8
-6 -5 -6 6 -1 11 2 17 5 13 3 -3 4 -12 1 -19z m130 16 c-3 -3 -12 -4 -19 -1
-8 3 -5 6 6 6 11 1 17 -2 13 -5z"/>
</g>
</svg>
