<?xml version="1.0" standalone="no"?>
<!DOCTYPE svg PUBLIC "-//W3C//DTD SVG 20010904//EN"
 "http://www.w3.org/TR/2001/REC-SVG-20010904/DTD/svg10.dtd">
<svg version="1.0" xmlns="http://www.w3.org/2000/svg"
 width="426.000000pt" height="215.000000pt" viewBox="0 0 426.000000 215.000000"
 preserveAspectRatio="xMidYMid meet">

<g transform="translate(0.000000,215.000000) scale(0.100000,-0.100000)"
fill="#000000" stroke="none">
<path d="M594 1756 c-3 -7 -4 -35 -2 -61 l3 -48 126 -2 c143 -2 136 1 204 -95
21 -30 45 -61 54 -68 13 -10 16 -34 16 -115 l0 -102 68 -1 67 -1 0 118 c0 102
-2 119 -17 128 -10 5 -16 13 -14 16 1 4 -9 21 -23 38 -14 18 -54 71 -87 120
l-62 87 -164 0 c-130 0 -165 -3 -169 -14z m483 -351 c0 -8 -4 -12 -9 -9 -5 3
-6 10 -3 15 9 13 12 11 12 -6z"/>
<path d="M1363 1324 c-24 -25 -43 -48 -43 -52 0 -4 79 -6 175 -5 l175 1 39
-31 c22 -18 42 -40 44 -51 4 -10 10 -15 17 -11 9 6 9 2 1 -13 -6 -12 -7 -31
-2 -50 5 -17 6 -33 3 -37 -3 -3 -7 -12 -8 -19 -2 -11 16 -14 82 -13 70 1 89
-3 107 -18 12 -11 28 -18 35 -17 7 2 12 -1 11 -5 -4 -21 2 -32 14 -27 9 3 13
-14 16 -68 2 -53 7 -75 19 -85 14 -11 14 -13 2 -11 -12 3 -15 -14 -15 -94 -1
-74 2 -98 12 -98 7 0 13 11 13 24 0 23 17 37 43 35 7 0 2 -4 -10 -9 -14 -6
-23 -18 -23 -31 0 -12 -8 -23 -20 -26 -23 -6 -25 -14 -7 -32 10 -11 10 -14 0
-18 -7 -3 -13 -15 -13 -27 0 -18 6 -23 29 -23 19 0 27 5 24 13 -2 6 -14 10
-26 8 -13 -3 -16 -2 -7 3 8 3 20 13 26 21 6 8 17 12 25 9 10 -4 9 -6 -4 -6
-11 -1 -17 -7 -14 -13 2 -7 10 -12 16 -10 7 1 10 -2 6 -8 -3 -5 1 -10 10 -10
9 0 14 -4 11 -9 -3 -5 1 -11 9 -15 17 -6 20 -26 4 -26 -5 0 -7 5 -4 10 3 6 2
10 -4 10 -5 0 -14 -7 -19 -16 -8 -14 -10 -14 -26 1 -19 20 -26 16 -29 -13 0
-11 -5 -19 -9 -16 -8 5 0 32 15 51 6 9 6 13 -1 13 -16 0 -32 -34 -32 -64 0
-14 1 -26 3 -27 1 0 39 -3 84 -5 72 -5 84 -3 90 11 4 12 -2 24 -18 37 -21 17
-21 18 -3 9 l22 -10 -2 352 c0 223 -5 355 -11 359 -6 5 -6 8 1 8 8 0 12 32 13
95 l2 95 -403 -1 -403 -1 -42 -44z m589 -26 c-7 -7 -12 -8 -12 -2 0 6 3 14 7
17 3 4 9 5 12 2 2 -3 -1 -11 -7 -17z m151 -23 c-3 -9 -8 -14 -10 -11 -3 3 -2
9 2 15 9 16 15 13 8 -4z m-109 -11 c3 -8 2 -12 -4 -9 -6 3 -10 10 -10 16 0 14
7 11 14 -7z m166 -21 c0 -10 -4 -14 -8 -8 -4 6 -11 13 -16 18 -5 4 -2 7 7 7
10 0 17 -8 17 -17z m-186 -5 c28 -2 40 -7 44 -20 2 -10 8 -18 13 -18 15 0 5
-40 -11 -40 -11 -1 -9 -6 9 -20 12 -11 27 -18 31 -15 5 3 6 -4 3 -14 -4 -14 1
-21 19 -24 l23 -4 -23 -2 c-13 0 -25 6 -29 17 -13 33 -44 48 -105 50 -33 1
-63 4 -68 7 -5 3 -5 19 0 35 5 17 6 30 3 30 -3 0 0 7 7 15 7 9 20 13 29 11 9
-3 34 -6 55 -8z m-149 -58 c-3 -5 -12 -10 -18 -10 -7 0 -6 4 3 10 19 12 23 12
15 0z m255 -20 c6 -11 8 -20 6 -20 -3 0 -10 9 -16 20 -6 11 -8 20 -6 20 3 0
10 -9 16 -20z m-240 -35 c0 -8 -4 -17 -10 -20 -6 -3 -9 4 -8 19 2 25 18 26 18
1z m132 -35 c12 0 10 -28 -4 -36 -7 -4 -8 -3 -4 5 4 6 -2 24 -13 40 -11 15
-17 32 -13 36 4 4 11 -5 16 -19 6 -14 13 -26 18 -26z m183 20 c3 -5 1 -10 -4
-10 -6 0 -11 5 -11 10 0 6 2 10 4 10 3 0 8 -4 11 -10z m-285 -40 c0 -5 -5 -10
-11 -10 -5 0 -7 5 -4 10 3 6 8 10 11 10 2 0 4 -4 4 -10z m180 -110 c0 -5 -5
-10 -11 -10 -5 0 -7 5 -4 10 3 6 8 10 11 10 2 0 4 -4 4 -10z m20 -95 c0 -5 -5
-3 -10 5 -5 8 -10 20 -10 25 0 6 5 3 10 -5 5 -8 10 -19 10 -25z m84 -8 c-3 -9
-16 -17 -28 -16 -21 0 -21 0 1 9 16 7 21 14 16 27 -4 13 -3 15 6 7 6 -6 9 -18
5 -27z m36 -29 c0 -6 -6 -5 -15 2 -8 7 -15 14 -15 16 0 2 7 1 15 -2 8 -4 15
-11 15 -16z m-31 -1 c-2 -1 -12 -9 -22 -16 -15 -12 -17 -12 -11 3 3 9 13 16
22 16 8 0 13 -1 11 -3z m-2 -42 c0 -8 -4 -12 -9 -9 -5 3 -6 10 -3 15 9 13 12
11 12 -6z m-37 -1 c0 -8 -19 -13 -24 -6 -3 5 1 9 9 9 8 0 15 -2 15 -3z m50
-68 c0 -2 -7 -6 -15 -10 -8 -3 -15 -1 -15 4 0 6 7 10 15 10 8 0 15 -2 15 -4z
m-80 -16 c0 -5 -2 -10 -4 -10 -3 0 -8 5 -11 10 -3 6 -1 10 4 10 6 0 11 -4 11
-10z m40 0 c0 -5 -4 -10 -10 -10 -5 0 -10 5 -10 10 0 6 5 10 10 10 6 0 10 -4
10 -10z m0 -54 c0 -3 -4 -8 -10 -11 -5 -3 -10 -1 -10 4 0 6 5 11 10 11 6 0 10
-2 10 -4z m46 -43 c-10 -10 -19 5 -10 18 6 11 8 11 12 0 2 -7 1 -15 -2 -18z
m-76 7 c0 -5 -2 -10 -4 -10 -3 0 -8 5 -11 10 -3 6 -1 10 4 10 6 0 11 -4 11
-10z m44 -15 c-7 -17 -34 -21 -34 -4 0 5 4 8 9 4 5 -3 12 -1 16 5 9 15 15 12
9 -5z m-76 -20 c-3 -3 -9 2 -12 12 -6 14 -5 15 5 6 7 -7 10 -15 7 -18z m102
-70 c0 -8 -2 -15 -4 -15 -2 0 -6 7 -10 15 -3 8 -1 15 4 15 6 0 10 -7 10 -15z
m-85 -65 c3 -5 1 -10 -4 -10 -6 0 -11 5 -11 10 0 6 2 10 4 10 3 0 8 -4 11 -10z
m55 -6 c0 -2 -9 -4 -20 -4 -11 0 -20 4 -20 9 0 5 9 7 20 4 11 -3 20 -7 20 -9z"/>
<path d="M413 1256 c-18 -12 -55 -43 -82 -67 -64 -58 -85 -75 -110 -89 -20
-10 -21 -19 -21 -196 0 -155 2 -185 14 -181 11 5 11 0 -1 -25 -12 -24 -13 -32
-3 -38 10 -6 9 -9 -1 -13 -18 -6 50 -68 68 -62 7 2 10 -2 6 -11 -6 -15 18 -18
51 -5 19 7 19 8 -1 22 -18 13 -19 16 -5 28 13 12 14 12 10 0 -5 -16 48 -53 63
-44 5 4 9 4 9 1 0 -3 -10 -10 -21 -17 -16 -8 -20 -8 -14 0 5 8 -2 10 -22 5
-44 -11 -46 -14 -16 -37 15 -12 35 -29 43 -37 8 -9 30 -25 48 -36 l33 -19 19
25 c24 31 24 32 0 60 -22 25 -26 40 -10 40 6 0 10 -7 10 -15 0 -8 3 -15 8 -15
4 0 6 109 4 242 -1 134 -2 250 -2 258 2 98 -1 234 -6 241 -9 15 -37 9 -71 -15z
m-13 -165 c0 -6 -4 -12 -9 -15 -15 -10 -23 -117 -9 -134 9 -11 9 -14 1 -9 -9
6 -12 -24 -12 -115 0 -83 3 -118 9 -108 6 9 10 10 10 3 0 -6 -5 -15 -10 -18
-6 -3 -7 -18 -4 -33 5 -21 4 -25 -6 -15 -7 6 -19 9 -26 6 -8 -3 -14 0 -14 6 0
6 -7 11 -15 11 -8 0 -15 7 -15 16 0 11 -6 14 -22 10 -13 -3 -17 -3 -10 0 6 3
10 10 7 15 -4 5 0 6 8 4 10 -5 13 13 14 85 1 61 -2 88 -10 83 -6 -4 -7 -1 -2
8 5 7 9 23 10 34 1 11 2 34 3 51 3 40 102 152 102 115z m10 -111 c6 -11 8 -20
6 -20 -3 0 -10 9 -16 20 -6 11 -8 20 -6 20 3 0 10 -9 16 -20z m64 -55 c-4 -8
-11 -15 -16 -15 -6 0 -5 6 2 15 7 8 14 15 16 15 2 0 1 -7 -2 -15z m-34 -29 c0
-3 -4 -8 -10 -11 -5 -3 -10 -1 -10 4 0 6 5 11 10 11 6 0 10 -2 10 -4z m-35
-16 c3 -5 2 -10 -4 -10 -5 0 -13 5 -16 10 -3 6 -2 10 4 10 5 0 13 -4 16 -10z
m68 -68 c-3 -12 -10 -22 -15 -22 -5 0 -7 3 -5 8 2 4 7 16 11 26 9 25 17 16 9
-12z m6 -81 c-2 -6 -10 2 -17 17 -11 25 -11 25 4 10 9 -9 15 -21 13 -27z
m-228 -24 c-10 -9 -11 -8 -5 6 3 10 9 15 12 12 3 -3 0 -11 -7 -18z m185 -14
c-10 -10 -19 5 -10 18 6 11 8 11 12 0 2 -7 1 -15 -2 -18z m-16 -23 c0 -5 -7
-7 -15 -4 -8 4 -15 8 -15 10 0 2 7 4 15 4 8 0 15 -4 15 -10z m-160 -14 c0 -3
-4 -8 -10 -11 -5 -3 -10 -1 -10 4 0 6 5 11 10 11 6 0 10 -2 10 -4z m50 -6 c0
-5 -2 -10 -4 -10 -3 0 -8 5 -11 10 -3 6 -1 10 4 10 6 0 11 -4 11 -10z m-26
-27 c5 -23 -20 -28 -28 -6 -3 8 -1 11 4 8 6 -3 10 2 10 11 0 22 9 13 14 -13z
m167 -41 c-6 -27 -6 -27 -9 6 -2 20 -7 30 -14 26 -7 -4 -8 -2 -4 5 14 21 34
-6 27 -37z m-46 18 c3 -5 -1 -10 -10 -10 -9 0 -13 5 -10 10 3 6 8 10 10 10 2
0 7 -4 10 -10z m18 -70 c-3 -11 -10 -23 -16 -27 -7 -4 -8 0 -4 11 4 10 7 22 7
27 0 5 4 9 9 9 5 0 7 -9 4 -20z m6 -54 c-9 -8 -10 -7 -5 7 3 10 7 24 7 30 1 7
3 4 6 -7 3 -10 -1 -23 -8 -30z"/>
<path d="M3531 1226 c-16 -19 -14 -433 2 -439 9 -4 9 -6 0 -6 -9 -1 -13 -19
-13 -55 0 -34 5 -56 13 -59 10 -4 10 -6 0 -6 -8 -1 -13 -15 -13 -36 l0 -35 60
0 c46 0 58 3 54 14 -3 7 2 16 12 20 13 5 14 4 6 -7 -7 -8 -9 -17 -5 -20 11
-12 71 -7 76 6 4 9 6 9 6 0 1 -7 14 -13 30 -13 23 0 30 5 34 28 3 15 1 33 -5
40 -6 6 -7 12 -3 12 4 0 2 7 -5 15 -11 13 -10 14 4 9 9 -3 16 -1 16 5 0 6 -5
11 -11 11 -6 0 -7 5 -2 13 8 12 14 467 6 497 -4 15 -22 17 -128 18 -89 1 -126
-2 -134 -12z m21 -85 c8 11 9 11 6 1 -4 -16 -22 -18 -24 -2 -2 7 -1 6 3 -1 4
-8 8 -7 15 2z m193 -21 c-3 -5 -12 -10 -18 -10 -7 0 -6 4 3 10 19 12 23 12 15
0z m-168 -56 c-3 -3 -12 -4 -19 -1 -8 3 -5 6 6 6 11 1 17 -2 13 -5z m13 -18
c0 -3 -4 -8 -10 -11 -5 -3 -10 -1 -10 4 0 6 5 11 10 11 6 0 10 -2 10 -4z m130
-21 c0 -16 -117 -105 -138 -105 -10 0 -10 6 3 28 20 32 57 62 87 67 11 3 23 7
26 10 7 6 22 7 22 0z m-30 -96 c0 -6 -4 -7 -10 -4 -5 3 -10 11 -10 16 0 6 5 7
10 4 6 -3 10 -11 10 -16z m35 1 c3 -5 1 -10 -4 -10 -6 0 -11 5 -11 10 0 6 2
10 4 10 3 0 8 -4 11 -10z m-7 -50 c-14 -22 -24 -19 -15 5 4 8 11 15 17 15 6 0
6 -7 -2 -20z m-80 -15 c-3 -3 -9 2 -12 12 -6 14 -5 15 5 6 7 -7 10 -15 7 -18z
m-38 4 c0 -13 -28 -18 -33 -6 -3 7 3 13 14 13 11 0 19 -3 19 -7z m164 -29 c-6
-6 -10 -3 -10 10 0 13 4 16 10 10 7 -7 7 -13 0 -20z m-144 2 c-8 -4 -28 -15
-43 -26 -15 -10 -30 -16 -34 -12 -3 3 -1 6 6 6 7 0 11 6 8 14 -4 9 0 12 13 9
10 -3 21 0 24 6 4 6 15 11 24 10 14 0 15 -2 2 -7z m54 -30 c-15 -10 -25 -40
-14 -47 5 -3 13 3 19 12 9 16 10 15 11 -7 1 -25 1 -25 16 -5 11 14 15 15 14 5
-4 -28 0 -41 10 -35 6 3 10 -1 10 -11 0 -14 3 -14 15 -4 13 11 14 10 9 -3 -7
-20 -34 -30 -34 -13 0 7 -11 19 -25 26 -14 7 -25 17 -25 22 0 5 -4 7 -9 3 -13
-7 -26 14 -26 43 -1 16 5 22 20 22 11 0 15 -3 9 -8z m67 -3 c-14 -6 -28 -6
-33 -1 -5 5 5 9 24 10 31 0 31 -1 9 -9z m-119 -27 c-10 -3 -10 -7 -1 -18 9
-12 4 -14 -31 -14 -34 0 -41 -3 -36 -16 4 -10 2 -13 -6 -8 -7 5 -9 0 -6 -14 4
-12 2 -25 -3 -28 -5 -3 -9 9 -9 26 0 33 18 59 36 53 6 -2 14 5 17 16 4 15 10
18 28 14 13 -4 18 -8 11 -11z m133 -17 c1 -13 -3 -21 -7 -18 -5 2 -6 14 -2 25
4 15 3 18 -6 13 -9 -6 -11 -4 -6 4 11 17 21 5 21 -24z m-145 -29 c0 -2 -7 -7
-16 -10 -8 -3 -12 -2 -9 4 6 10 25 14 25 6z m39 -30 c-3 -3 -11 5 -18 17 -13
21 -12 21 5 5 10 -10 16 -20 13 -22z m-24 -7 c8 -25 -9 -48 -19 -24 -3 9 -2
13 4 10 6 -3 10 -1 10 4 0 6 -7 11 -16 11 -8 0 -12 5 -9 10 10 16 23 11 30
-11z m65 11 c0 -5 -5 -10 -11 -10 -5 0 -7 5 -4 10 3 6 8 10 11 10 2 0 4 -4 4
-10z m20 -20 c-24 -15 -36 -11 -14 4 10 8 21 12 24 10 2 -3 -2 -9 -10 -14z
m60 -20 c0 -5 -2 -10 -4 -10 -3 0 -8 5 -11 10 -3 6 -1 10 4 10 6 0 11 -4 11
-10z m-174 -9 c-4 -5 0 -12 6 -14 7 -3 2 -6 -11 -6 -20 -1 -21 1 -11 14 14 16
25 21 16 6z m64 0 c0 -6 -4 -12 -8 -15 -5 -3 -9 1 -9 9 0 8 4 15 9 15 4 0 8
-4 8 -9z m27 -11 c-1 -11 -5 -20 -9 -20 -10 0 -10 4 -2 24 8 22 13 20 11 -4z
m56 -13 c3 -8 -1 -14 -9 -14 -15 0 -18 9 -7 20 9 9 10 9 16 -6z"/>
<path d="M571 968 c1 -285 1 -282 51 -273 13 3 48 5 78 6 l55 1 -3 119 c-2
101 0 119 13 119 15 0 21 25 8 33 -5 2 -2 2 6 0 7 -2 28 13 45 33 l32 37 149
3 c83 1 155 3 160 3 6 1 114 0 240 -2 129 -2 235 1 243 6 8 6 12 5 12 -2 0 -7
4 -10 9 -7 5 4 5 22 1 43 -6 23 -5 42 1 49 7 9 5 14 -8 17 -17 4 -17 5 0 6 10
0 15 6 12 11 -8 14 -875 13 -875 0 0 -6 -5 -10 -11 -10 -5 0 -7 5 -4 11 5 7
-23 9 -86 8 l-93 -3 -18 29 c-17 29 -18 23 -17 -237z m269 152 c10 -6 11 -10
3 -10 -7 0 -13 -6 -13 -14 0 -7 -9 -16 -19 -19 -11 -2 -21 -15 -24 -28 -3 -19
-5 -17 -6 9 0 17 3 32 8 32 5 0 13 9 16 20 7 22 13 24 35 10z m500 -40 c-6
-11 -13 -20 -16 -20 -2 0 0 9 6 20 6 11 13 20 16 20 2 0 0 -9 -6 -20z m61 -3
c-10 -9 -11 -8 -5 6 3 10 9 15 12 12 3 -3 0 -11 -7 -18z m-643 -82 c-2 -1 -14
-8 -28 -15 -25 -13 -25 -13 -6 8 10 12 23 19 28 16 5 -3 8 -7 6 -9z m-153 -35
c3 -5 -1 -10 -10 -10 -9 0 -13 5 -10 10 3 6 8 10 10 10 2 0 7 -4 10 -10z m95
0 c0 -5 -5 -10 -11 -10 -5 0 -7 5 -4 10 3 6 8 10 11 10 2 0 4 -4 4 -10z m-22
-27 c-10 -2 -18 -8 -18 -13 0 -4 -8 -11 -17 -14 -15 -6 -15 -4 2 14 10 11 25
19 34 19 13 -1 13 -2 -1 -6z m22 -72 c0 -6 -4 -13 -10 -16 -5 -3 -10 1 -10 9
0 9 5 16 10 16 6 0 10 -4 10 -9z m-70 -25 c0 -2 -9 -6 -20 -9 -11 -3 -18 -1
-14 4 5 9 34 13 34 5z m25 -39 c16 -4 14 -5 -6 -6 -17 -1 -29 5 -33 15 -5 13
-3 14 6 6 7 -5 22 -12 33 -15z m62 17 c-3 -3 -12 -4 -19 -1 -8 3 -5 6 6 6 11
1 17 -2 13 -5z m-89 -70 c-6 -13 -16 -24 -22 -24 -6 0 -5 5 2 12 9 9 8 16 -3
29 -14 15 -14 16 9 12 22 -5 23 -8 14 -29z m71 5 c-22 -13 -31 -11 -17 5 7 8
17 12 22 9 4 -3 2 -9 -5 -14z m-39 -24 c14 -19 14 -19 -2 -6 -10 7 -18 18 -18
24 0 6 1 8 3 6 1 -2 9 -13 17 -24z m70 4 c0 -6 -7 -9 -15 -5 -8 3 -15 0 -15
-6 0 -6 -3 -9 -6 -5 -9 9 5 27 22 27 8 0 14 -5 14 -11z"/>
<path d="M2569 1205 c0 0 -2 -42 -3 -92 l-2 -93 72 0 c49 0 74 4 77 13 4 8 6
9 6 0 1 -9 91 -12 359 -12 l358 -1 1 49 c1 40 -3 50 -18 54 -11 3 -19 11 -18
19 0 10 2 10 6 1 10 -26 30 -12 31 21 l1 34 -74 4 c-41 2 -75 1 -75 -2 0 -3
-39 -4 -87 -2 -62 1 -539 7 -634 7z m435 -37 c-3 -4 -9 -8 -15 -8 -5 0 -9 4
-9 8 0 5 7 9 15 9 8 0 12 -4 9 -9z m-404 -38 c-6 -11 -13 -20 -16 -20 -2 0 0
9 6 20 6 11 13 20 16 20 2 0 0 -9 -6 -20z m220 -20 c0 -5 -5 -10 -11 -10 -5 0
-7 5 -4 10 3 6 8 10 11 10 2 0 4 -4 4 -10z m26 -15 c-3 -8 2 -19 12 -24 23
-14 6 -14 -19 0 -16 8 -18 13 -8 25 15 18 23 18 15 -1z m239 -5 c3 -5 1 -10
-4 -10 -6 0 -11 5 -11 10 0 6 2 10 4 10 3 0 8 -4 11 -10z m82 -6 c-3 -3 -12
-4 -19 -1 -8 3 -5 6 6 6 11 1 17 -2 13 -5z"/>
<path d="M3928 1203 c-9 -2 -19 -16 -23 -31 -4 -15 -11 -30 -17 -33 -11 -7
-17 -113 -8 -123 5 -4 71 -9 96 -7 8 1 12 27 13 74 1 61 -2 76 -22 98 -12 14
-29 24 -39 22z"/>
<path d="M2311 1110 c-1 -49 0 -90 1 -91 2 0 35 -3 75 -5 l71 -5 1 96 0 95
-73 0 -74 0 -1 -90z"/>
<path d="M930 952 c-14 -2 -37 -15 -52 -29 l-26 -25 -1 -225 c0 -210 1 -225
20 -244 11 -11 25 -17 32 -13 7 4 2 -3 -11 -15 l-23 -22 28 -34 c24 -29 34
-34 70 -33 l42 2 1 245 c1 135 1 256 1 269 -1 19 4 22 34 22 l35 0 1 -57 c0
-32 0 -81 -1 -110 -1 -42 2 -52 17 -56 13 -3 14 -5 2 -6 -13 -1 -15 -15 -13
-83 1 -46 3 -85 4 -88 1 -3 1 -9 0 -15 -8 -32 -9 -64 -5 -92 5 -30 8 -32 46
-31 29 0 39 4 35 14 -3 7 -1 16 5 19 5 4 9 3 8 -2 -4 -25 4 -33 35 -33 l34 0
0 48 c-1 26 -5 55 -11 66 -6 12 -6 16 1 12 11 -7 11 428 0 439 -4 4 -2 18 4
30 20 44 5 57 -54 50 -29 -4 -57 -7 -63 -6 -84 4 -175 5 -195 3z m285 -44 c6
-4 2 -8 -7 -8 -10 0 -18 7 -18 17 0 9 3 12 8 7 4 -5 12 -12 17 -16z m-15 -83
c0 -5 -5 -3 -10 5 -5 8 -10 20 -10 25 0 6 5 3 10 -5 5 -8 10 -19 10 -25z m-60
-9 c0 -3 -4 -8 -10 -11 -5 -3 -10 -1 -10 4 0 6 5 11 10 11 6 0 10 -2 10 -4z
m15 -26 c3 -5 1 -10 -4 -10 -6 0 -11 5 -11 10 0 6 2 10 4 10 3 0 8 -4 11 -10z
m45 -124 c0 -3 -4 -8 -10 -11 -5 -3 -10 -1 -10 4 0 6 5 11 10 11 6 0 10 -2 10
-4z m-212 -41 c-3 -3 -9 2 -12 12 -6 14 -5 15 5 6 7 -7 10 -15 7 -18z m184 7
c-7 -5 -11 -15 -9 -23 2 -8 2 -11 0 -7 -2 4 -11 4 -20 1 -12 -5 -12 -2 3 15
10 12 23 22 29 22 5 0 4 -4 -3 -8z m-238 -37 c-4 -8 -3 -22 0 -31 5 -14 9 -14
24 -3 15 11 15 11 4 -1 -14 -16 -62 -22 -62 -8 0 4 5 8 10 8 6 0 10 8 10 18 0
14 -2 15 -10 2 -6 -9 -10 -10 -10 -3 0 7 8 17 18 22 22 13 22 13 16 -4z m263
-17 c-3 -8 -6 -5 -6 6 -1 11 2 17 5 13 3 -3 4 -12 1 -19z m-197 8 c0 -3 -4 -8
-10 -11 -5 -3 -10 -1 -10 4 0 6 5 11 10 11 6 0 10 -2 10 -4z m143 -32 c-7 -20
-10 -18 -15 11 -4 20 -2 23 8 14 7 -6 10 -17 7 -25z m-158 -25 c11 -16 1 -19
-13 -3 -7 8 -8 14 -3 14 5 0 13 -5 16 -11z m125 -24 c0 -8 -2 -15 -4 -15 -2 0
-6 7 -10 15 -3 8 -1 15 4 15 6 0 10 -7 10 -15z m35 -15 c3 -5 1 -10 -4 -10 -6
0 -11 5 -11 10 0 6 2 10 4 10 3 0 8 -4 11 -10z m-226 -16 c2 -2 2 -7 -2 -10
-3 -3 -16 2 -29 11 l-23 17 25 -7 c14 -4 27 -9 29 -11z m301 4 c0 -4 -7 -8
-15 -8 -8 0 -15 4 -15 8 0 5 7 9 15 9 8 0 15 -4 15 -9z m-250 -19 c-7 -11 -14
-18 -17 -15 -3 3 0 12 7 21 18 21 23 19 10 -6z m154 -9 c-6 -6 -10 -3 -10 10
0 13 4 16 10 10 7 -7 7 -13 0 -20z m61 10 c3 -5 1 -10 -4 -10 -6 0 -11 5 -11
10 0 6 2 10 4 10 3 0 8 -4 11 -10z m21 -40 c0 -11 -4 -20 -8 -20 -4 0 -8 9 -8
20 0 11 4 20 8 20 4 0 8 -9 8 -20z m-94 -41 c-18 -20 -29 -18 -16 3 5 7 7 22
5 33 -3 20 -2 20 12 1 12 -17 12 -21 -1 -37z m-152 31 c0 -5 -2 -10 -4 -10 -3
0 -8 5 -11 10 -3 6 -1 10 4 10 6 0 11 -4 11 -10z m33 -25 c-3 -9 -8 -14 -10
-11 -3 3 -2 9 2 15 9 16 15 13 8 -4z m242 -33 c-6 -6 -34 11 -39 24 -4 11 0
10 18 -3 13 -10 23 -19 21 -21z m-81 -6 c-3 -9 -10 -13 -15 -10 -5 3 -3 11 4
19 15 16 19 13 11 -9z m-184 10 c0 -2 -8 -10 -17 -17 -16 -13 -17 -12 -4 4 13
16 21 21 21 13z"/>
<path d="M1313 947 c-11 -18 -3 -151 10 -159 9 -6 9 -8 0 -8 -13 0 -13 -256 1
-278 4 -7 3 -12 -3 -12 -7 0 -7 -8 -2 -22 4 -13 5 -34 2 -48 -12 -43 -7 -55
22 -58 15 -2 27 -8 27 -13 0 -5 11 -9 25 -9 16 0 25 -6 25 -15 0 -18 12 -19
27 -4 8 8 13 8 17 0 10 -15 49 -14 65 2 8 6 11 8 8 2 -3 -6 24 -11 71 -12 45
-2 71 1 64 6 -10 6 -8 10 8 14 16 4 20 2 16 -9 -4 -10 2 -14 20 -14 22 0 25 3
20 23 -3 12 -6 28 -6 35 0 6 -7 12 -16 12 -8 0 -12 5 -9 10 4 6 11 8 16 5 8
-6 15 55 9 80 -1 6 -2 15 -2 20 6 54 5 235 0 235 -4 0 -5 6 -3 13 3 6 7 56 9
110 l3 97 -46 1 c-239 4 -304 3 -308 -4 -3 -4 -10 -4 -16 1 -15 12 -46 11 -54
-1z m197 -27 c0 -5 -5 -10 -11 -10 -5 0 -7 5 -4 10 3 6 8 10 11 10 2 0 4 -4 4
-10z m120 -50 c-12 -16 -18 -30 -15 -30 7 0 -54 -81 -69 -92 -38 -26 -2 46 50
102 53 57 65 64 34 20z m-140 -60 c0 -5 -2 -10 -4 -10 -3 0 -8 5 -11 10 -3 6
-1 10 4 10 6 0 11 -4 11 -10z m230 -40 c0 -5 -2 -10 -4 -10 -3 0 -8 5 -11 10
-3 6 -1 10 4 10 6 0 11 -4 11 -10z m-235 -50 c3 -5 1 -10 -4 -10 -6 0 -11 5
-11 10 0 6 2 10 4 10 3 0 8 -4 11 -10z m48 -27 c-3 -7 -10 -10 -16 -6 -8 5 -8
8 0 10 7 3 9 12 6 21 -4 14 -3 14 5 3 6 -8 8 -20 5 -28z m50 -17 c-12 -16 -20
-20 -25 -13 -4 7 2 17 15 24 30 17 30 16 10 -11z m-48 -24 c-3 -3 -11 0 -18 7
-9 10 -8 11 6 5 10 -3 15 -9 12 -12z m95 8 c0 -5 -5 -10 -11 -10 -5 0 -7 5 -4
10 3 6 8 10 11 10 2 0 4 -4 4 -10z m-175 -30 c3 -5 1 -10 -4 -10 -6 0 -11 5
-11 10 0 6 2 10 4 10 3 0 8 -4 11 -10z m96 -23 c-10 -9 -11 -8 -5 6 3 10 9 15
12 12 3 -3 0 -11 -7 -18z m56 -17 c-3 -10 0 -21 7 -24 6 -2 1 -5 -11 -5 -13
-1 -23 -5 -23 -9 0 -21 -39 -52 -65 -52 -27 0 -28 1 -11 19 10 11 15 24 11 30
-3 7 0 8 9 5 9 -3 16 -2 16 4 0 8 57 51 69 52 2 0 1 -9 -2 -20z m113 10 c0 -5
-4 -10 -10 -10 -5 0 -10 5 -10 10 0 6 5 10 10 10 6 0 10 -4 10 -10z m-37 -15
c-3 -9 -8 -14 -10 -11 -3 3 -2 9 2 15 9 16 15 13 8 -4z m-196 -20 c0 -11 -4
-12 -14 -4 -7 6 -13 13 -13 15 0 2 6 4 13 4 8 0 14 -7 14 -15z m-70 -35 c1
-16 -1 -17 -12 -7 -11 10 -8 19 10 27 1 0 1 -9 2 -20z m-53 2 c-5 -4 -12 -11
-15 -15 -3 -5 -9 -2 -12 5 -3 9 3 14 15 15 11 1 16 -1 12 -5z m126 -8 c0 -8
-19 -13 -24 -6 -3 5 1 9 9 9 8 0 15 -2 15 -3z m-99 -21 c13 -16 12 -17 -3 -4
-17 13 -22 21 -14 21 2 0 10 -8 17 -17z m213 3 c-21 -15 -30 -14 -19 3 3 6 14
11 23 11 13 0 13 -2 -4 -14z m-181 -38 c-3 -16 -9 -28 -14 -28 -5 0 -6 7 -3
14 5 13 2 13 -19 3 -14 -6 -23 -16 -20 -22 3 -5 0 -4 -8 3 -15 14 -14 15 46
48 25 13 24 14 18 -18z m270 6 c18 3 26 3 19 0 -6 -3 -10 -10 -7 -14 3 -5 -5
-6 -17 -3 -13 3 -33 5 -45 5 -13 0 -23 4 -23 10 0 5 5 6 10 3 6 -3 10 2 10 12
1 17 1 17 11 0 8 -14 18 -17 42 -13z m-203 -33 c0 -21 -13 -4 -17 22 -2 17 -1
19 7 7 5 -8 10 -21 10 -29z m102 17 c-7 -7 -12 -8 -12 -2 0 14 12 26 19 19 2
-3 -1 -11 -7 -17z m-44 -15 c-29 -34 -32 -46 -10 -39 11 4 23 2 27 -4 4 -6 -7
-10 -28 -10 -36 0 -54 -19 -36 -37 7 -7 5 -13 -6 -17 -13 -4 -16 -2 -11 9 3 8
1 15 -4 15 -16 0 -25 -4 -23 -11 1 -3 -11 -3 -28 -1 -16 2 -26 8 -23 14 3 5
14 6 24 3 10 -3 21 -1 25 5 3 6 11 8 16 5 5 -4 9 -1 9 6 0 7 -11 10 -30 7 -28
-4 -40 6 -40 34 0 7 4 7 13 -1 8 -6 22 -12 33 -14 10 -1 24 -6 30 -10 14 -8
24 1 24 25 0 11 5 16 10 13 6 -3 10 1 10 10 0 9 5 13 10 10 6 -3 10 -1 10 6 0
7 3 9 7 6 3 -4 -1 -15 -9 -24z m117 -13 c-3 -5 -10 -10 -16 -10 -5 0 -9 5 -9
10 0 6 7 10 16 10 8 0 12 -4 9 -10z m-300 -18 c-3 -3 -11 0 -18 7 -9 10 -8 11
6 5 10 -3 15 -9 12 -12z m215 8 c0 -5 -2 -10 -4 -10 -3 0 -8 5 -11 10 -3 6 -1
10 4 10 6 0 11 -4 11 -10z m90 -20 c-24 -15 -37 -11 -16 5 11 8 22 12 25 9 3
-3 -1 -9 -9 -14z m-83 -30 c-1 -20 -9 -25 -20 -13 -4 3 -2 12 4 20 15 18 18
17 16 -7z m90 3 c-2 -22 -27 -48 -50 -49 -25 -2 -21 5 9 16 16 7 24 16 21 24
-3 8 -1 17 6 20 7 2 13 5 14 5 1 1 1 -7 0 -16z m-131 -12 c0 -11 -5 -17 -13
-14 -17 6 -17 20 0 26 6 3 12 6 12 6 1 1 1 -7 1 -18z m164 -1 c0 -5 -2 -10 -4
-10 -3 0 -8 5 -11 10 -3 6 -1 10 4 10 6 0 11 -4 11 -10z"/>
<path d="M1800 898 c0 -30 6 -60 13 -67 10 -11 10 -13 0 -7 -16 9 -18 -40 -3
-49 7 -4 7 -11 2 -18 -11 -14 -10 -87 1 -104 5 -7 4 -13 -2 -13 -6 0 -8 -53
-5 -142 6 -194 3 -183 54 -185 24 -2 50 2 58 9 33 28 39 95 7 95 -10 0 -11 -5
-4 -19 6 -11 6 -18 0 -18 -12 0 -24 37 -16 49 3 6 12 8 19 5 20 -8 23 31 21
259 -2 240 -3 243 -95 254 l-50 6 0 -55z m114 4 c3 -5 -1 -9 -9 -9 -8 0 -12 4
-9 9 3 4 7 8 9 8 2 0 6 -4 9 -8z m-40 -47 c-4 -8 -11 -15 -16 -15 -6 0 -5 6 2
15 7 8 14 15 16 15 2 0 1 -7 -2 -15z m36 -30 c7 -9 8 -15 2 -15 -5 0 -12 7
-16 15 -3 8 -4 15 -2 15 2 0 9 -7 16 -15z m20 -71 c0 -2 -9 -4 -21 -4 -11 0
-18 4 -14 10 5 8 35 3 35 -6z m-46 -13 c3 -4 -7 -13 -22 -20 -23 -10 -25 -10
-10 2 10 8 15 17 11 20 -3 4 -1 7 5 7 6 0 13 -4 16 -9z m46 -51 c0 -5 -5 -10
-11 -10 -5 0 -7 5 -4 10 3 6 8 10 11 10 2 0 4 -4 4 -10z m-80 -40 c0 -5 -2
-10 -4 -10 -3 0 -8 5 -11 10 -3 6 -1 10 4 10 6 0 11 -4 11 -10z m17 -62 c-3
-8 -6 -5 -6 6 -1 11 2 17 5 13 3 -3 4 -12 1 -19z m-12 -18 c3 -5 1 -10 -4 -10
-6 0 -11 5 -11 10 0 6 2 10 4 10 3 0 8 -4 11 -10z m55 -102 c0 -19 -2 -20 -10
-8 -13 19 -13 30 0 30 6 0 10 -10 10 -22z m-50 2 c0 -5 -4 -10 -10 -10 -5 0
-10 5 -10 10 0 6 5 10 10 10 6 0 10 -4 10 -10z m5 -84 c0 -44 -12 -56 -21 -22
-4 16 -1 32 6 41 16 19 15 20 15 -19z m45 -28 c0 -6 -6 -5 -15 2 -8 7 -15 14
-15 16 0 2 7 1 15 -2 8 -4 15 -11 15 -16z m-70 -9 c0 -5 -4 -9 -8 -9 -5 0 -9
7 -9 15 0 8 4 12 9 9 4 -3 8 -9 8 -15z m70 -13 c0 -3 -4 -8 -10 -11 -5 -3 -10
-1 -10 4 0 6 5 11 10 11 6 0 10 -2 10 -4z"/>
<path d="M2316 891 c-7 -10 -8 -39 -6 -158 l1 -91 58 -4 c87 -5 92 -2 89 40
-1 20 -7 40 -12 45 -7 4 -6 10 4 17 23 15 2 12 -30 -5 -17 -9 -30 -11 -30 -5
0 5 7 10 15 10 9 0 18 7 22 16 3 8 12 13 20 10 11 -5 13 7 11 62 l-3 67 -67 2
c-37 1 -70 -2 -72 -6z m94 -41 c0 -5 -4 -10 -10 -10 -5 0 -10 5 -10 10 0 6 5
10 10 10 6 0 10 -4 10 -10z m-55 -20 c-3 -5 -12 -10 -18 -10 -7 0 -6 4 3 10
19 12 23 12 15 0z m39 -66 c3 -8 2 -12 -4 -9 -6 3 -10 10 -10 16 0 14 7 11 14
-7z m31 -65 c-5 -13 -2 -25 6 -30 7 -4 10 -11 6 -15 -3 -4 -13 -2 -20 4 -8 7
-18 8 -23 4 -4 -4 -3 1 4 10 11 14 10 18 -5 28 -16 10 -16 11 0 6 9 -3 17 -1
17 4 0 6 5 10 11 10 6 0 8 -9 4 -21z"/>
<path d="M3902 892 l-33 -3 3 -72 c3 -81 8 -85 79 -79 l39 4 0 73 c0 72 0 73
-27 76 -16 2 -43 3 -61 1z m38 -63 c15 -28 5 -23 -15 7 -9 15 -12 23 -6 20 6
-4 16 -16 21 -27z m-16 -41 c-3 -4 -9 -8 -15 -8 -5 0 -9 4 -9 8 0 5 7 9 15 9
8 0 12 -4 9 -9z"/>
<path d="M2571 835 c0 -30 -1 -58 -2 -62 -5 -32 0 -33 323 -32 208 0 327 4
335 11 9 7 13 7 13 -1 0 -7 32 -10 95 -10 109 0 103 -7 94 117 l-2 33 -136 -2
c-128 -2 -136 -3 -143 -23 -6 -20 -6 -20 -7 2 -1 21 -4 22 -115 22 -103 0
-115 -2 -121 -18 -3 -11 -26 -33 -50 -51 -48 -35 -54 -45 -29 -55 24 -9 28 -7
14 9 -11 13 -10 14 4 9 9 -3 16 -12 16 -20 0 -16 -28 -18 -50 -4 -12 8 -13 13
-3 29 14 23 3 34 -23 24 -12 -4 -15 -3 -10 5 4 7 14 12 21 12 8 0 21 12 29 28
11 19 15 22 16 10 0 -23 6 -23 37 2 l26 20 -165 0 -165 0 -2 -55z m536 -7 c1
-12 -1 -18 -5 -12 -11 17 -49 26 -57 14 -3 -6 -11 -8 -16 -5 -5 4 -9 -4 -9
-17 0 -18 2 -20 10 -8 6 10 10 11 10 3 0 -7 5 -12 11 -10 6 1 14 -5 16 -13 3
-9 1 -11 -4 -5 -4 6 -23 10 -41 10 -19 -1 -36 4 -39 9 -3 5 -1 6 4 3 18 -11
26 26 8 39 -13 10 -14 14 -3 20 19 12 39 14 32 3 -3 -5 -10 -7 -15 -4 -5 4 -9
2 -9 -3 0 -16 35 -20 53 -7 9 7 17 18 17 25 0 23 36 -17 37 -42z m163 32 c0
-5 -5 -10 -11 -10 -5 0 -7 5 -4 10 3 6 8 10 11 10 2 0 4 -4 4 -10z m86 -2 c4
-7 3 -8 -4 -4 -7 4 -12 1 -12 -8 0 -9 -8 -16 -17 -15 -11 0 -13 3 -5 6 6 2 12
11 12 19 0 17 16 19 26 2z m-746 -2 c0 -3 -4 -8 -10 -11 -5 -3 -10 -1 -10 4 0
6 5 11 10 11 6 0 10 -2 10 -4z m563 -11 c-3 -9 -8 -14 -10 -11 -3 3 -2 9 2 15
9 16 15 13 8 -4z m-217 -20 c-8 -8 -20 -15 -27 -15 -7 0 -4 6 7 15 25 19 40
19 20 0z m184 -10 c0 -14 -4 -25 -9 -25 -4 0 -6 11 -3 25 2 14 6 25 8 25 2 0
4 -11 4 -25z m145 5 c-10 -11 -22 -20 -27 -20 -10 0 24 38 36 39 5 1 1 -8 -9
-19z m-93 -14 c4 -19 1 -22 -14 -18 -10 2 -18 12 -18 21 0 14 2 14 10 1 8 -13
10 -12 10 3 0 24 7 21 12 -7z m23 14 c3 -5 1 -10 -4 -10 -6 0 -11 5 -11 10 0
6 2 10 4 10 3 0 8 -4 11 -10z m152 -3 c0 -7 -12 -14 -26 -15 l-26 -2 25 14
c14 8 25 14 26 15 0 1 1 -5 1 -12z m-703 -13 c3 -8 2 -12 -4 -9 -6 3 -10 10
-10 16 0 14 7 11 14 -7z m96 12 c0 -3 -4 -8 -10 -11 -5 -3 -10 -1 -10 4 0 6 5
11 10 11 6 0 10 -2 10 -4z m545 -13 c-2 -10 -4 -21 -4 -25 -1 -5 -7 -8 -15 -8
-8 0 -16 -5 -18 -11 -2 -7 -9 -5 -17 5 -12 14 -12 16 4 10 12 -5 16 -4 12 3
-4 6 1 10 10 9 10 0 18 5 19 12 2 18 4 22 8 22 2 0 3 -8 1 -17z m-690 -3 c-27
-12 -43 -12 -25 0 8 5 22 9 30 9 10 0 8 -3 -5 -9z m620 0 c-3 -5 -12 -10 -18
-10 -7 0 -6 4 3 10 19 12 23 12 15 0z m-505 -9 c0 -17 -30 -35 -41 -24 -8 8
-6 11 7 10 11 -1 18 4 17 11 -2 6 2 12 7 12 6 0 10 -4 10 -9z m663 2 c-7 -2
-13 -9 -13 -15 0 -6 7 -7 16 -4 14 5 15 4 5 -8 -10 -12 -16 -13 -26 -3 -14 13
-2 38 19 36 7 0 6 -2 -1 -6z m-753 -19 c0 -2 -12 -4 -27 -4 -21 0 -24 3 -14 9
13 8 41 5 41 -5z m330 -4 c0 -11 -4 -20 -9 -20 -5 0 -7 9 -4 20 3 11 7 20 9
20 2 0 4 -9 4 -20z m-190 2 c0 -13 -12 -22 -22 -16 -10 6 -1 24 13 24 5 0 9
-4 9 -8z m541 -15 c-10 -9 -11 -8 -5 6 3 10 9 15 12 12 3 -3 0 -11 -7 -18z
m-286 3 c-28 -12 -45 -12 -45 0 0 6 15 10 33 9 27 0 29 -2 12 -9z m185 6 c0
-3 -4 -8 -10 -11 -5 -3 -10 -1 -10 4 0 6 5 11 10 11 6 0 10 -2 10 -4z"/>
<path d="M3075 850 c-3 -5 1 -10 10 -10 9 0 13 5 10 10 -3 6 -8 10 -10 10 -2
0 -7 -4 -10 -10z"/>
<path d="M3417 694 c-3 -3 -90 -6 -192 -6 -168 0 -186 -2 -181 -17 6 -14 5
-14 -7 1 -11 14 -40 16 -240 15 -125 0 -227 -3 -227 -6 0 -3 12 -12 27 -18 21
-10 28 -10 35 0 6 9 8 7 8 -5 0 -14 15 -16 125 -16 119 0 125 1 120 19 -4 11
-2 19 4 19 6 0 11 -8 11 -18 0 -17 12 -19 165 -19 147 -1 165 1 166 15 0 14 1
15 7 2 5 -10 22 -15 55 -15 38 0 46 3 42 15 -5 12 -4 13 6 3 16 -16 73 -18 64
-3 -4 6 -11 8 -16 5 -5 -4 -9 -1 -9 5 0 7 6 10 13 7 15 -6 45 9 36 17 -3 4 -8
3 -12 0z m-305 -25 c-4 -4 -18 -9 -32 -13 -14 -3 -19 -3 -12 0 6 3 10 9 7 14
-3 4 6 7 20 6 13 0 21 -4 17 -7z m83 1 c3 -5 1 -10 -4 -10 -6 0 -11 5 -11 10
0 6 2 10 4 10 3 0 8 -4 11 -10z m-28 -6 c-3 -3 -12 -4 -19 -1 -8 3 -5 6 6 6
11 1 17 -2 13 -5z"/>
<path d="M3882 684 c-16 -17 0 -29 41 -33 35 -2 67 11 67 29 0 13 -96 16 -108
4z m43 -14 c3 -5 1 -10 -4 -10 -6 0 -11 5 -11 10 0 6 2 10 4 10 3 0 8 -4 11
-10z"/>
<path d="M621 631 c-8 -14 -6 -22 8 -35 18 -16 51 -13 51 5 0 5 4 9 8 9 21 0
6 -30 -20 -41 -18 -7 -27 -17 -24 -25 3 -8 -1 -14 -10 -14 -8 0 -17 7 -20 15
-4 8 -11 15 -16 15 -6 0 -8 -7 -4 -15 3 -8 1 -15 -4 -15 -6 0 -10 -7 -10 -15
0 -12 16 -15 86 -15 74 0 85 2 82 17 -4 23 -25 28 -31 6 -4 -14 -5 -12 -6 6
-1 18 3 22 18 18 16 -4 18 2 19 49 l0 53 -35 -5 c-42 -5 -55 -12 -48 -25 4 -5
-1 -9 -9 -9 -9 0 -16 5 -16 10 0 6 5 10 10 10 6 0 10 5 10 10 0 17 -29 11 -39
-9z m66 -77 c-3 -3 -12 -4 -19 -1 -8 3 -5 6 6 6 11 1 17 -2 13 -5z m3 -30 c0
-2 -7 -4 -15 -4 -8 0 -15 4 -15 10 0 5 7 7 15 4 8 -4 15 -8 15 -10z"/>
<path d="M579 633 c0 -5 -2 -16 -4 -25 -2 -10 2 -18 8 -18 8 0 8 -3 -1 -8 -8
-6 -2 -9 18 -9 l30 0 -22 24 c-12 13 -16 23 -10 23 7 0 12 5 12 10 0 11 -30
14 -31 3z"/>
<path d="M2310 492 c0 -38 3 -71 6 -75 19 -19 77 53 98 121 7 20 4 22 -26 22
-19 0 -40 -6 -47 -12 -11 -10 -13 -10 -7 0 4 7 1 12 -8 12 -13 0 -16 -13 -16
-68z m21 -45 c-10 -9 -11 -8 -5 6 3 10 9 15 12 12 3 -3 0 -11 -7 -18z"/>
<path d="M2086 501 c-3 -5 1 -11 9 -15 15 -6 29 7 18 18 -9 9 -21 8 -27 -3z"/>
<path d="M856 414 c-8 -20 0 -32 14 -18 5 5 5 15 1 22 -6 11 -10 10 -15 -4z"/>
</g>
</svg>
