<?xml version="1.0" standalone="no"?>
<!DOCTYPE svg PUBLIC "-//W3C//DTD SVG 20010904//EN"
 "http://www.w3.org/TR/2001/REC-SVG-20010904/DTD/svg10.dtd">
<svg version="1.0" xmlns="http://www.w3.org/2000/svg"
 width="429.000000pt" height="200.000000pt" viewBox="0 0 429.000000 200.000000"
 preserveAspectRatio="xMidYMid meet">

<g transform="translate(0.000000,200.000000) scale(0.100000,-0.100000)"
fill="#000000" stroke="none">
<path d="M1047 1659 c-67 -70 -132 -138 -144 -153 -13 -14 -29 -26 -36 -26 -8
0 -14 -6 -14 -12 0 -7 -2 -17 -3 -23 -1 -5 -2 -27 -1 -47 l1 -37 79 1 80 0 7
30 c4 20 9 26 14 18 5 -8 9 -4 13 11 4 13 1 27 -6 32 -8 6 -6 7 5 3 12 -3 23
4 35 24 9 17 22 30 28 30 10 0 45 35 45 45 0 2 10 15 23 28 12 12 31 35 42 49
23 30 24 31 155 29 l95 -1 0 -82 0 -83 62 -3 c58 -3 62 -1 65 20 6 43 -3 98
-16 91 -6 -4 -6 0 2 9 9 11 12 41 10 95 l-3 78 -208 0 -207 0 -123 -126z m431
51 c-6 -10 -24 -20 -40 -22 -27 -4 -27 -4 -11 14 9 10 22 18 30 18 7 0 13 5
13 11 0 5 4 7 10 4 6 -4 5 -13 -2 -25z m102 -124 c0 -3 -4 -8 -10 -11 -5 -3
-10 -1 -10 4 0 6 5 11 10 11 6 0 10 -2 10 -4z m-582 -36 c-7 -10 -14 -17 -17
-15 -4 4 18 35 25 35 2 0 -1 -9 -8 -20z m-33 -168 c-3 -3 -11 0 -18 7 -9 10
-8 11 6 5 10 -3 15 -9 12 -12z"/>
<path d="M569 1449 c-5 -86 -4 -161 2 -170 4 -7 12 -8 19 -4 9 5 11 4 6 -3 -4
-7 -13 -12 -19 -12 -9 0 -11 -42 -10 -163 3 -182 3 -215 1 -237 -4 -51 3 -180
11 -176 5 3 11 -8 13 -26 5 -28 4 -29 -9 -13 -11 17 -13 13 -13 -32 l0 -50 45
0 c25 0 46 4 46 8 1 5 2 15 3 22 1 6 -5 17 -14 24 -8 6 -12 15 -7 19 4 4 7 2
7 -4 0 -20 16 -13 17 7 1 17 -27 36 -50 32 -5 -1 -6 3 -3 8 4 5 0 11 -6 14
-10 4 -11 7 0 18 10 11 12 10 12 -5 0 -12 5 -16 15 -12 8 3 14 0 12 -6 -1 -6
3 -12 8 -14 7 -3 11 31 10 96 0 78 -3 103 -15 111 -13 9 -12 10 3 5 15 -5 17
2 17 44 0 39 4 53 20 62 11 7 20 17 20 22 0 12 60 66 73 66 5 0 3 8 -4 18 -12
15 -12 15 1 5 8 -6 26 -11 40 -12 90 -1 256 0 314 2 l70 2 63 -58 c56 -50 66
-56 85 -46 11 6 18 7 14 1 -3 -5 25 -9 73 -9 92 0 123 -19 125 -75 1 -20 6
-32 13 -31 7 2 10 -4 7 -12 -4 -8 -10 -12 -16 -9 -5 4 -7 -11 -4 -38 3 -23 5
-43 5 -44 1 0 17 -1 36 -2 28 -1 33 2 29 16 -5 15 -4 15 5 1 13 -19 91 -25 91
-6 0 8 3 8 8 2 4 -6 26 -11 49 -12 l42 0 0 228 c1 126 1 232 2 236 1 4 1 45 0
90 l-1 82 -180 0 c-116 -1 -178 -4 -174 -11 3 -5 -3 -4 -13 3 -36 22 -68 4
-94 -53 -13 -29 -23 -62 -21 -73 2 -15 0 -17 -7 -6 -8 12 -13 12 -37 -4 -23
-15 -50 -17 -190 -17 -144 0 -163 -2 -167 -16 -4 -15 -5 -15 -6 1 0 10 -7 17
-13 16 -57 -7 -85 3 -131 47 -47 46 -48 48 -45 100 l4 54 -77 0 c-43 0 -84 3
-93 6 -10 4 -16 1 -17 -7z m55 -54 c-10 -8 -23 -15 -28 -15 -6 0 -1 7 10 15
10 8 23 15 28 15 6 0 1 -7 -10 -15z m966 -76 c0 -5 -5 -7 -11 -3 -6 3 -15 0
-20 -7 -7 -11 -9 -10 -9 4 0 10 8 17 20 17 11 0 20 -5 20 -11z m-832 -56 c-7
-16 -18 -28 -24 -26 -6 2 -17 -3 -24 -12 -7 -8 -18 -15 -25 -15 -8 0 -16 -6
-18 -12 -4 -10 -6 -10 -6 -1 -1 12 22 36 79 81 31 25 34 23 18 -15z m667 7
c-9 -16 -18 -30 -21 -30 -2 0 2 14 11 30 9 17 18 30 21 30 2 0 -2 -13 -11 -30z
m-45 -1 c0 -6 -4 -7 -10 -4 -5 3 -10 11 -10 16 0 6 5 7 10 4 6 -3 10 -11 10
-16z m290 6 c31 -16 48 -51 32 -67 -5 -5 -22 -11 -37 -11 -22 -2 -26 -6 -22
-27 5 -24 5 -24 -9 -5 -10 14 -27 20 -52 20 -37 0 -37 0 -40 44 -2 28 1 47 10
52 21 14 87 10 118 -6z m140 11 c0 -2 -7 -9 -15 -16 -13 -11 -14 -10 -9 4 5
14 24 23 24 12z m-295 -46 c3 -5 1 -10 -4 -10 -6 0 -11 5 -11 10 0 6 2 10 4
10 3 0 8 -4 11 -10z m-30 -10 c3 -5 1 -10 -4 -10 -6 0 -11 5 -11 10 0 6 2 10
4 10 3 0 8 -4 11 -10z m-426 -33 c0 -9 -2 -9 -5 0 -3 7 -13 9 -22 6 -14 -4
-14 -3 -2 5 16 12 30 7 29 -11z m336 13 c-3 -5 -11 -10 -16 -10 -6 0 -7 5 -4
10 3 6 11 10 16 10 6 0 7 -4 4 -10z m-781 -16 c3 -8 2 -12 -4 -9 -6 3 -10 10
-10 16 0 14 7 11 14 -7z m276 -3 c0 -11 -3 -22 -7 -24 -5 -3 -8 6 -8 19 0 13
3 24 8 24 4 0 7 -9 7 -19z m318 -6 c-3 -3 -9 2 -12 12 -6 14 -5 15 5 6 7 -7
10 -15 7 -18z m-115 0 c-3 -9 -8 -14 -10 -11 -3 3 -2 9 2 15 9 16 15 13 8 -4z
m177 5 c0 -5 -4 -10 -10 -10 -5 0 -10 5 -10 10 0 6 5 10 10 10 6 0 10 -4 10
-10z m44 -16 c3 -8 2 -12 -4 -9 -6 3 -10 10 -10 16 0 14 7 11 14 -7z m146 -16
c0 -12 -28 3 -34 18 -4 11 -2 12 14 1 11 -6 20 -15 20 -19z m-196 -4 c8 -21
-7 -17 -21 6 -11 16 -10 18 1 14 8 -3 17 -12 20 -20z m111 16 c3 -5 1 -10 -4
-10 -6 0 -11 5 -11 10 0 6 2 10 4 10 3 0 8 -4 11 -10z m-699 -30 c-1 -23 -5
-29 -18 -25 -9 3 -19 1 -23 -5 -3 -5 -11 -10 -16 -10 -6 0 2 16 17 35 32 43
42 44 40 5z m844 26 c0 -2 -7 -7 -16 -10 -8 -3 -12 -2 -9 4 6 10 25 14 25 6z
m197 -18 c-3 -8 -6 -5 -6 6 -1 11 2 17 5 13 3 -3 4 -12 1 -19z m-897 -22 c0
-5 -6 -3 -14 3 -11 9 -15 9 -19 -1 -2 -7 -8 -10 -12 -5 -5 4 0 14 11 21 18 14
33 6 34 -18z m58 12 c8 -8 12 -8 12 -1 0 6 10 10 23 9 20 -1 21 -4 12 -23 -7
-17 -11 -19 -13 -7 -2 8 -9 13 -16 11 -6 -3 -20 1 -31 9 -10 8 -14 14 -9 14 6
0 15 -5 22 -12z m507 2 c3 -5 1 -10 -4 -10 -6 0 -11 5 -11 10 0 6 2 10 4 10 3
0 8 -4 11 -10z m-520 -20 c3 -6 -4 -10 -17 -10 -18 0 -20 2 -8 10 19 12 18 12
25 0z m78 -5 c-3 -9 -8 -14 -10 -11 -3 3 -2 9 2 15 9 16 15 13 8 -4z m604 -7
c-3 -8 -6 -5 -6 6 -1 11 2 17 5 13 3 -3 4 -12 1 -19z m-113 3 c3 -4 -6 -6 -19
-3 -14 2 -25 6 -25 8 0 8 39 4 44 -5z m-150 -35 c-3 -9 -10 -16 -15 -16 -6 0
-5 9 1 21 13 24 24 20 14 -5z m121 -6 c3 -5 1 -10 -4 -10 -6 0 -11 5 -11 10 0
6 2 10 4 10 3 0 8 -4 11 -10z m250 -29 c-6 -5 -25 10 -25 20 0 5 6 4 14 -3 8
-7 12 -15 11 -17z m39 20 c3 -5 -2 -15 -12 -22 -15 -12 -16 -12 -5 2 7 9 10
19 6 22 -3 4 -4 7 0 7 3 0 8 -4 11 -9z m-111 -19 c-4 -10 -8 -11 -13 -2 -5 8
-14 5 -30 -12 -21 -22 -22 -22 -11 -1 15 30 65 45 54 15z m134 -14 c-3 -7 -5
-2 -5 12 0 14 2 19 5 13 2 -7 2 -19 0 -25z m86 5 c-4 -11 -8 -12 -11 -5 -2 8
-13 10 -29 6 -18 -5 -24 -3 -19 5 4 6 20 11 36 11 24 0 28 -3 23 -17z m-476
-8 c0 -8 -4 -12 -9 -9 -5 3 -6 10 -3 15 9 13 12 11 12 -6z m294 6 c-7 -5 -10
-14 -7 -20 4 -6 2 -11 -4 -11 -6 0 -8 -6 -4 -12 5 -10 4 -10 -5 -2 -15 14 2
54 22 54 8 0 8 -3 -2 -9z m-953 -26 c-3 -3 -9 2 -12 12 -6 14 -5 15 5 6 7 -7
10 -15 7 -18z m819 3 c-3 -8 -6 -5 -6 6 -1 11 2 17 5 13 3 -3 4 -12 1 -19z
m220 -4 c-3 -3 -12 -4 -19 -1 -8 3 -5 6 6 6 11 1 17 -2 13 -5z m38 -4 c4 -6
10 -8 15 -5 5 3 12 1 15 -5 4 -6 -5 -20 -19 -31 -15 -11 -24 -24 -21 -29 9
-14 -5 -38 -21 -36 -8 1 -20 8 -27 16 -6 7 -7 10 -1 7 6 -4 23 6 38 22 l27 28
-25 -4 c-28 -6 -37 14 -11 23 8 4 12 10 9 15 -3 5 -1 9 5 9 5 0 13 -5 16 -10z
m-173 -32 c-7 -7 -12 -8 -12 -2 0 14 12 26 19 19 2 -3 -1 -11 -7 -17z m48 -8
c0 -5 -4 -10 -10 -10 -5 0 -10 5 -10 10 0 6 5 10 10 10 6 0 10 -4 10 -10z m40
-10 c0 -5 -2 -10 -4 -10 -3 0 -8 5 -11 10 -3 6 -1 10 4 10 6 0 11 -4 11 -10z
m135 -21 c-4 -5 -12 -9 -18 -8 -9 0 -8 2 1 6 6 2 9 10 6 15 -4 7 -2 8 5 4 6
-4 9 -12 6 -17z m-1145 -9 c0 -5 -8 -10 -17 -10 -15 0 -16 2 -3 10 19 12 20
12 20 0z m985 -18 c-11 -3 -23 -9 -27 -16 -6 -8 -8 -8 -8 1 0 16 32 33 45 25
5 -4 1 -8 -10 -10z m150 -23 c-4 -5 -12 -9 -18 -8 -8 0 -8 2 1 6 10 4 9 9 -5
20 -17 13 -16 13 5 3 12 -6 20 -15 17 -21z m-1174 -26 c13 -16 12 -17 -3 -4
-10 7 -18 15 -18 17 0 8 8 3 21 -13z m1023 -13 c-6 -6 -10 -3 -10 10 0 13 4
16 10 10 7 -7 7 -13 0 -20z m40 15 c-4 -8 -11 -12 -16 -9 -6 4 -5 10 3 15 19
12 19 11 13 -6z m51 -5 c-3 -5 -12 -10 -18 -10 -7 0 -6 4 3 10 19 12 23 12 15
0z m55 -25 c0 -2 -10 -10 -22 -16 -21 -11 -22 -11 -9 4 13 16 31 23 31 12z
m-1130 -29 c0 -2 -8 -10 -17 -17 -16 -13 -17 -12 -4 4 13 16 21 21 21 13z
m-50 -36 c8 -15 8 -18 -3 -14 -8 3 -14 11 -14 19 0 20 4 19 17 -5z m49 -42 c1
-5 -4 -8 -10 -8 -5 0 -7 5 -4 10 3 6 2 10 -4 10 -6 0 -7 8 -4 17 6 15 7 15 14
-3 4 -10 8 -22 8 -26z m-9 -112 c0 -2 -7 -9 -15 -16 -13 -11 -14 -10 -9 4 5
14 24 23 24 12z"/>
<path d="M1705 910 c-3 -6 1 -7 9 -4 18 7 21 14 7 14 -6 0 -13 -4 -16 -10z"/>
<path d="M378 1437 c-7 -7 -33 -23 -58 -35 -25 -13 -83 -47 -130 -76 l-85 -53
-3 -255 -2 -255 34 -27 c19 -14 39 -26 45 -26 6 0 11 -3 11 -7 0 -5 11 -13 25
-20 20 -9 27 -8 34 4 7 13 9 13 14 -1 4 -10 3 -15 -3 -11 -6 3 -10 1 -10 -4 0
-6 6 -11 14 -11 7 0 19 -7 26 -15 7 -8 16 -13 20 -10 5 3 10 1 12 -3 1 -5 22
-21 45 -36 43 -26 73 -34 73 -17 0 4 11 6 25 3 20 -3 25 0 25 16 0 11 -6 23
-12 25 -9 4 -9 8 -3 14 15 12 17 153 2 153 -7 0 -6 4 3 10 12 7 10 11 -10 19
-14 5 -19 10 -12 10 7 1 10 5 7 11 -3 5 0 7 7 5 11 -4 14 12 15 74 1 71 -1 80
-21 90 l-21 11 21 -5 c22 -6 22 -6 21 215 l-1 220 -47 0 c-26 0 -54 -6 -61
-13z m14 -365 c-1 -141 -2 -266 -2 -277 0 -11 -2 -30 -5 -42 l-5 -22 -63 28
c-34 16 -74 31 -88 34 l-25 6 -2 194 -2 193 71 54 c40 30 84 63 98 72 14 9 26
17 26 17 0 1 -1 -115 -3 -257z m-162 168 c0 -5 -2 -10 -4 -10 -3 0 -8 5 -11
10 -3 6 -1 10 4 10 6 0 11 -4 11 -10z m-66 -199 c3 -5 -1 -11 -9 -14 -9 -4
-12 -1 -8 9 6 16 10 17 17 5z m6 -235 c0 -3 -4 -8 -10 -11 -5 -3 -10 -1 -10 4
0 6 5 11 10 11 6 0 10 -2 10 -4z m281 -36 c13 7 19 7 19 0 0 -5 -4 -10 -9 -10
-5 0 -16 -3 -25 -6 -11 -4 -16 -1 -15 12 0 11 3 14 6 7 3 -9 10 -10 24 -3z
m-44 -57 c-3 -10 -5 -4 -5 12 0 17 2 24 5 18 2 -7 2 -21 0 -30z m-167 -5 c0
-6 -6 -5 -15 2 -8 7 -15 14 -15 16 0 2 7 1 15 -2 8 -4 15 -11 15 -16z m120 7
c0 -8 -4 -15 -10 -15 -5 0 -7 7 -4 15 4 8 8 15 10 15 2 0 4 -7 4 -15z m90 5
c0 -5 -7 -7 -15 -4 -8 4 -15 8 -15 10 0 2 7 4 15 4 8 0 15 -4 15 -10z m-162
-25 c-3 -3 -9 2 -12 12 -6 14 -5 15 5 6 7 -7 10 -15 7 -18z m47 -34 c-3 -6
-11 -11 -16 -11 -5 0 -4 6 3 14 14 16 24 13 13 -3z m135 -1 c0 -5 -7 -7 -15
-4 -8 4 -15 8 -15 10 0 2 7 4 15 4 8 0 15 -4 15 -10z m-106 -14 c-21 -15 -30
-14 -19 3 3 6 14 11 23 11 13 0 13 -2 -4 -14z m30 -25 c3 -5 -1 -11 -9 -14 -9
-4 -12 -1 -8 9 6 16 10 17 17 5z m61 -2 c11 -17 2 -18 -19 -3 -17 12 -17 14
-4 14 9 0 20 -5 23 -11z"/>
<path d="M2029 1403 c-1 -5 -1 -11 0 -15 0 -4 -6 -5 -14 -2 -9 4 -24 -9 -42
-35 -15 -22 -34 -40 -42 -41 -8 0 -11 -3 -7 -7 12 -12 356 -10 356 2 0 7 3 7
8 0 4 -6 227 -10 632 -10 344 0 639 -3 655 -7 17 -3 48 -9 70 -11 172 -21 247
-76 307 -228 26 -65 29 -83 26 -151 -3 -50 -1 -79 6 -82 6 -2 3 -5 -6 -5 -10
-1 -28 -21 -42 -48 -38 -74 -121 -153 -159 -153 -10 0 -17 -5 -17 -10 0 -6 -3
-9 -7 -8 -15 4 -93 -12 -93 -20 0 -4 -119 -7 -265 -7 -229 0 -265 -2 -265 -15
0 -13 -2 -13 -9 -1 -8 12 -55 15 -270 15 -144 1 -261 -3 -261 -7 0 -5 -4 -6
-9 -3 -11 7 -62 8 -328 7 -188 -1 -202 -2 -197 -18 5 -16 4 -16 -10 1 -8 10
-19 15 -25 11 -6 -3 -11 -3 -11 2 0 4 -20 8 -45 8 -25 0 -45 -3 -45 -7 0 -7
23 -12 43 -9 4 0 7 -4 7 -10 0 -6 18 -29 40 -52 l40 -40 20 20 c10 12 25 23
32 26 11 5 11 7 0 15 -10 7 -10 11 3 22 13 11 15 10 9 -4 -9 -23 5 -20 27 6
11 11 19 16 19 10 0 -7 10 -12 23 -12 16 0 18 -3 9 -9 -11 -7 -11 -9 2 -14 8
-3 18 -2 21 3 4 6 11 10 18 10 6 0 2 -6 -9 -14 -10 -8 -17 -16 -14 -18 3 -2
17 -14 33 -27 l27 -25 20 22 c12 12 26 22 32 22 6 0 8 3 5 6 -7 8 56 44 76 44
7 0 32 -18 56 -40 23 -22 46 -40 50 -40 4 0 24 18 44 39 27 29 43 39 59 36 13
-3 24 -9 26 -15 2 -5 8 -10 13 -10 5 0 22 -14 38 -32 27 -31 29 -31 52 -16 13
9 38 29 55 45 34 31 64 39 64 16 0 -8 5 -11 10 -8 6 3 10 2 10 -4 0 -6 12 -22
27 -36 34 -30 55 -26 102 21 18 19 42 34 52 34 10 0 36 -18 58 -40 44 -45 60
-49 81 -20 8 11 20 20 27 20 7 0 13 4 13 8 0 5 11 14 24 22 21 11 29 10 60
-10 20 -12 36 -25 36 -30 0 -5 9 -12 21 -15 16 -5 30 2 58 27 69 65 63 64 127
8 31 -27 61 -50 65 -50 9 0 59 49 87 85 18 23 23 24 53 14 19 -7 38 -16 43
-20 16 -14 76 -10 82 5 3 7 6 24 8 37 2 13 6 31 10 40 4 9 6 20 5 25 -4 25 5
32 46 39 29 4 43 10 39 17 -4 7 -2 8 4 4 7 -4 18 -4 25 1 6 4 15 8 20 9 4 1 9
2 12 3 2 0 -6 29 -18 64 l-23 62 54 50 54 49 -58 54 c-58 54 -63 65 -44 107
19 45 30 89 23 96 -5 4 -28 10 -51 12 -54 5 -86 37 -109 107 -15 46 -18 49
-42 44 -14 -4 -39 -13 -55 -20 -16 -8 -33 -14 -37 -14 -16 0 -88 55 -89 67 0
7 -8 17 -19 22 -15 8 -32 2 -87 -33 l-68 -44 -39 31 c-69 56 -75 60 -89 48
-65 -54 -101 -81 -109 -81 -5 0 -14 9 -21 20 -7 11 -19 20 -26 20 -8 0 -12 6
-9 14 9 23 -31 31 -53 11 -11 -10 -17 -23 -13 -29 3 -6 3 -8 -2 -4 -4 4 -21
-4 -37 -17 l-30 -25 -19 24 c-13 16 -26 23 -36 19 -10 -4 -14 -2 -10 4 4 5 -4
20 -16 32 l-23 21 -22 -20 c-12 -11 -24 -20 -27 -20 -4 0 -13 -6 -20 -12 -40
-36 -41 -36 -76 -20 -36 17 -50 31 -43 43 4 8 -35 22 -55 19 -7 -1 -23 -11
-35 -22 -11 -11 -35 -31 -53 -45 l-32 -25 -52 49 c-28 26 -52 48 -54 48 -2 0
-26 -21 -53 -47 -28 -27 -58 -48 -66 -48 -8 0 -38 23 -66 52 l-51 52 -48 -53
-49 -54 -29 21 c-15 11 -41 34 -57 51 -29 30 -45 38 -47 24z m1581 -37 c0 -3
-4 -8 -10 -11 -5 -3 -10 -1 -10 4 0 6 5 11 10 11 6 0 10 -2 10 -4z m-266 -32
c3 -8 2 -12 -4 -9 -6 3 -10 10 -10 16 0 14 7 11 14 -7z m-1363 -17 c-10 -9
-11 -8 -5 6 3 10 9 15 12 12 3 -3 0 -11 -7 -18z m969 8 c14 -16 10 -18 -14 -9
-9 3 -16 10 -16 15 0 14 16 11 30 -6z m1060 -474 c0 -6 -4 -12 -8 -15 -5 -3
-9 1 -9 9 0 8 4 15 9 15 4 0 8 -4 8 -9z m4 -83 c-10 -16 -22 -7 -17 13 4 15 8
17 14 8 4 -7 5 -17 3 -21z m-24 -74 c0 -2 -7 -4 -15 -4 -8 0 -15 4 -15 10 0 5
7 7 15 4 8 -4 15 -8 15 -10z m-100 -58 c0 -3 -4 -8 -10 -11 -5 -3 -10 -1 -10
4 0 6 5 11 10 11 6 0 10 -2 10 -4z m-128 -78 c-7 -7 -12 -8 -12 -2 0 14 12 26
19 19 2 -3 -1 -11 -7 -17z m87 -19 c-22 -13 -31 -11 -17 5 7 8 17 12 22 9 4
-3 2 -9 -5 -14z m-1561 -19 c15 0 15 -2 2 -10 -15 -10 -40 12 -40 34 0 6 5 3
11 -6 5 -10 18 -18 27 -18z m699 24 c-3 -3 -12 -4 -19 -1 -8 3 -5 6 6 6 11 1
17 -2 13 -5z m-957 -35 c0 -6 -4 -7 -10 -4 -5 3 -10 11 -10 16 0 6 5 7 10 4 6
-3 10 -11 10 -16z m721 -16 c13 -16 12 -17 -3 -4 -10 7 -18 15 -18 17 0 8 8 3
21 -13z m174 7 c3 -6 -1 -7 -9 -4 -18 7 -21 14 -7 14 6 0 13 -4 16 -10z m-385
-4 c0 -3 -4 -8 -10 -11 -5 -3 -10 -1 -10 4 0 6 5 11 10 11 6 0 10 -2 10 -4z
m-260 -10 c0 -2 -7 -7 -16 -10 -8 -3 -12 -2 -9 4 6 10 25 14 25 6z m455 -18
c6 -4 2 -8 -7 -8 -10 0 -18 7 -18 17 0 9 3 12 8 7 4 -5 12 -12 17 -16z"/>
<path d="M1930 1185 c0 -14 7 -25 18 -28 12 -3 10 -5 -7 -6 -18 -1 -22 -5 -16
-18 4 -10 8 -34 9 -53 1 -32 4 -35 34 -37 19 -1 30 3 26 9 -4 7 0 7 12 0 11
-6 121 -10 266 -10 221 -1 249 1 259 16 9 15 10 15 5 -2 -5 -15 -2 -18 23 -14
20 3 27 0 24 -8 -6 -15 47 -65 61 -57 6 3 8 3 4 -2 -4 -4 6 -23 22 -42 30 -34
32 -60 4 -49 -9 3 -23 -8 -37 -29 -12 -19 -26 -35 -32 -36 -5 0 -19 -2 -30 -4
-11 -2 -71 -5 -133 -6 -62 -1 -108 -5 -101 -9 8 -6 8 -9 0 -14 -6 -4 -8 -12
-5 -18 5 -7 1 -9 -9 -5 -9 3 -19 2 -22 -4 -4 -5 -10 -7 -14 -5 -3 3 -7 -4 -7
-14 0 -10 3 -17 6 -15 3 1 10 -3 16 -9 17 -18 -11 -55 -28 -38 -9 9 -9 12 2
12 11 1 10 4 -4 15 -10 7 -15 18 -12 23 5 9 -55 45 -62 37 -7 -7 9 -25 18 -20
4 3 10 -2 14 -10 7 -18 4 -18 -28 -4 -14 7 -23 17 -19 23 3 6 0 5 -8 -1 -7 -7
-17 -13 -22 -13 -4 0 -5 6 -1 13 4 6 -3 2 -14 -10 -14 -13 -29 -19 -42 -16
-27 7 -26 20 3 19 18 -1 22 4 20 24 -1 14 0 19 3 13 7 -16 61 -17 66 -1 3 7
12 6 31 -6 14 -10 31 -14 38 -10 6 4 21 7 33 8 25 1 28 29 4 34 -10 2 -18 -1
-18 -7 0 -6 -5 -11 -11 -11 -5 0 -7 5 -4 10 4 6 -13 10 -45 10 -32 0 -49 -4
-45 -10 3 -5 1 -10 -4 -10 -6 0 -11 5 -11 10 0 6 -14 10 -31 10 -17 0 -28 -4
-24 -10 3 -5 1 -10 -4 -10 -6 0 -11 5 -11 10 0 6 -14 10 -32 10 -28 0 -30 -2
-15 -12 15 -12 14 -13 -13 -14 -16 -1 -30 3 -30 8 0 5 5 6 10 3 6 -3 10 -1 10
4 0 6 -20 11 -45 11 -38 0 -45 -3 -45 -20 0 -11 4 -20 8 -20 4 0 8 -9 8 -20 0
-11 -4 -20 -8 -20 -16 0 -8 -68 8 -74 26 -10 33 -7 29 13 -2 13 5 26 21 36 24
16 50 12 38 -6 -3 -5 -10 -7 -15 -4 -5 4 -17 1 -26 -4 -17 -10 -17 -10 0 -11
9 0 17 -5 17 -11 0 -5 -4 -7 -10 -4 -5 3 -10 1 -10 -5 0 -7 30 -10 90 -8 70 1
90 5 90 16 0 9 -7 13 -20 9 -11 -3 -23 0 -27 5 -3 7 -1 8 5 4 7 -4 12 -1 12 6
0 7 10 19 23 27 22 14 22 13 4 -6 -16 -18 -16 -21 -2 -26 8 -4 15 -13 15 -21
0 -24 316 -21 331 3 10 15 10 15 5 -1 -4 -14 6 -16 84 -16 79 0 90 2 95 19 8
23 54 37 65 19 4 -7 13 -9 21 -5 11 6 12 5 2 -6 -10 -10 -16 -10 -25 -1 -19
19 -32 14 -17 -5 12 -16 12 -17 -2 -5 -13 10 -18 10 -27 -1 -9 -11 13 -14 126
-15 132 -2 138 -2 139 18 1 11 15 31 30 44 16 13 35 36 42 50 8 14 20 26 27
26 11 0 16 7 25 35 4 14 45 45 58 45 6 0 12 10 12 23 1 20 2 20 6 2 3 -11 13
-27 22 -35 24 -22 43 -60 31 -60 -6 0 -14 8 -17 17 -13 34 -36 53 -50 41 -7
-6 -13 -7 -13 -3 0 4 -9 -4 -20 -18 -26 -32 -25 -45 2 -49 12 -2 23 -9 26 -16
3 -11 -3 -10 -26 2 l-31 16 -11 -35 c-7 -20 -25 -45 -41 -57 -29 -22 -39 -48
-18 -48 5 0 7 5 4 10 -3 6 -1 10 4 10 6 0 11 -5 11 -10 0 -6 35 -9 89 -8 77 2
90 5 94 20 4 13 0 18 -13 18 -10 0 -25 7 -33 15 -19 18 -31 7 -15 -14 10 -13
9 -13 -6 1 -10 9 -15 21 -12 27 9 14 36 14 36 1 0 -5 5 -10 10 -10 17 0 11 28
-7 39 -10 6 -13 11 -6 11 6 0 15 -5 18 -11 4 -6 13 -8 20 -5 24 9 26 -8 3 -27
-16 -13 -18 -17 -5 -13 16 5 19 1 21 -34 1 -13 29 -15 179 -17 176 -3 183 -2
178 30 0 4 7 7 16 7 13 0 14 -3 5 -12 -21 -21 -14 -35 18 -30 17 2 30 10 30
16 0 6 9 12 19 12 11 0 17 -5 14 -10 -4 -5 -1 -6 8 0 8 5 16 9 19 9 12 2 75
39 90 54 9 9 29 41 45 71 24 47 29 67 28 130 0 115 -44 192 -136 238 -67 34
-120 41 -327 42 l-196 0 -17 -27 c-9 -16 -40 -53 -68 -83 -28 -30 -44 -43 -35
-29 9 14 14 28 11 31 -3 3 13 25 35 50 22 26 40 48 40 51 0 3 -119 5 -265 4
-145 0 -262 -3 -260 -7 2 -3 -1 -12 -6 -20 -8 -12 -9 -11 -7 5 3 19 -3 20
-112 22 -77 1 -117 -3 -122 -10 -5 -7 -8 -8 -8 -2 0 17 -214 12 -236 -5 -10
-8 -15 -10 -11 -4 10 18 -8 21 -130 22 -112 0 -113 0 -113 -23z m115 -13 c-3
-3 -11 0 -18 7 -9 10 -8 11 6 5 10 -3 15 -9 12 -12z m95 8 c0 -5 -5 -10 -11
-10 -5 0 -7 5 -4 10 3 6 8 10 11 10 2 0 4 -4 4 -10z m165 0 c3 -5 1 -10 -4
-10 -6 0 -11 5 -11 10 0 6 2 10 4 10 3 0 8 -4 11 -10z m440 0 c3 -5 -1 -10
-10 -10 -9 0 -13 5 -10 10 3 6 8 10 10 10 2 0 7 -4 10 -10z m515 6 c0 -3 -4
-8 -10 -11 -5 -3 -10 -1 -10 4 0 6 5 11 10 11 6 0 10 -2 10 -4z m-1063 -28
c-3 -8 -6 -5 -6 6 -1 11 2 17 5 13 3 -3 4 -12 1 -19z m590 0 c-3 -8 -6 -5 -6
6 -1 11 2 17 5 13 3 -3 4 -12 1 -19z m-627 -1 c0 -15 -37 -20 -45 -6 -3 5 0 6
8 3 8 -3 18 -1 22 5 8 15 15 14 15 -2z m93 -6 c4 -15 -2 -22 -24 -30 -20 -7
-31 -6 -35 1 -4 7 -2 8 4 4 7 -4 12 -1 12 10 0 14 3 14 16 4 8 -8 14 -9 13 -4
-2 13 0 34 5 34 2 0 6 -9 9 -19z m397 -2 c0 -6 -4 -7 -10 -4 -5 3 -10 11 -10
16 0 6 5 7 10 4 6 -3 10 -11 10 -16z m221 6 c11 6 11 5 2 -5 -12 -14 -33 -6
-33 13 0 8 3 7 9 -2 5 -8 14 -10 22 -6z m54 5 c-3 -5 -12 -10 -18 -10 -7 0 -6
4 3 10 19 12 23 12 15 0z m-540 -10 c-3 -5 -12 -10 -18 -10 -7 0 -6 4 3 10 19
12 23 12 15 0z m335 0 c0 -5 -2 -10 -4 -10 -3 0 -8 5 -11 10 -3 6 -1 10 4 10
6 0 11 -4 11 -10z m777 4 c-3 -3 -12 -4 -19 -1 -8 3 -5 6 6 6 11 1 17 -2 13
-5z m200 -9 c0 -8 -4 -12 -9 -9 -5 3 -6 10 -3 15 9 13 12 11 12 -6z m-792 -15
c-3 -5 -12 -10 -18 -10 -7 0 -6 4 3 10 19 12 23 12 15 0z m556 -13 c-10 -9
-11 -8 -5 6 3 10 9 15 12 12 3 -3 0 -11 -7 -18z m-1317 1 c-3 -4 -11 -5 -19
-1 -21 7 -19 12 4 10 11 0 18 -5 15 -9z m263 6 c-3 -3 -12 -4 -19 -1 -8 3 -5
6 6 6 11 1 17 -2 13 -5z m1133 2 c0 -3 -4 -8 -10 -11 -5 -3 -10 -1 -10 4 0 6
5 11 10 11 6 0 10 -2 10 -4z m-954 -21 c-2 -5 -10 -8 -17 -6 -8 2 -19 4 -26 4
-7 0 -10 4 -8 8 7 11 56 5 51 -6z m344 5 c0 -5 -4 -10 -10 -10 -5 0 -10 5 -10
10 0 6 5 10 10 10 6 0 10 -4 10 -10z m275 1 c3 -5 2 -12 -3 -15 -5 -3 -9 1 -9
9 0 17 3 19 12 6z m-1030 -10 c3 -5 2 -12 -3 -15 -5 -3 -9 1 -9 9 0 17 3 19
12 6z m525 -1 c0 -5 -4 -10 -10 -10 -5 0 -10 5 -10 10 0 6 5 10 10 10 6 0 10
-4 10 -10z m100 -5 c5 3 12 0 16 -6 4 -7 3 -9 -4 -5 -18 11 -23 -11 -6 -28 8
-9 13 -16 9 -16 -3 0 -22 16 -43 36 -35 34 -35 35 -8 24 15 -5 31 -8 36 -5z
m-540 -5 c0 -5 -4 -10 -9 -10 -6 0 -13 5 -16 10 -3 6 1 10 9 10 9 0 16 -4 16
-10z m711 -7 c13 -16 12 -17 -3 -4 -17 13 -22 21 -14 21 2 0 10 -8 17 -17z
m542 0 c3 -5 -5 -8 -18 -8 -13 0 -21 3 -18 8 2 4 10 7 18 7 8 0 16 -3 18 -7z
m-1423 -13 c0 -5 -5 -10 -11 -10 -5 0 -7 5 -4 10 3 6 8 10 11 10 2 0 4 -4 4
-10z m80 -4 c0 -2 -7 -7 -16 -10 -8 -3 -12 -2 -9 4 6 10 25 14 25 6z m700 -6
c0 -5 -5 -10 -11 -10 -5 0 -7 5 -4 10 3 6 8 10 11 10 2 0 4 -4 4 -10z m920 0
c0 -5 -5 -10 -11 -10 -5 0 -7 5 -4 10 3 6 8 10 11 10 2 0 4 -4 4 -10z m-370
-4 c0 -2 -7 -7 -16 -10 -8 -3 -12 -2 -9 4 6 10 25 14 25 6z m-737 -43 c-5 -11
-8 -12 -13 -2 -5 7 -6 19 -3 26 5 11 8 12 13 2 5 -7 6 -19 3 -26z m677 30 c0
-14 -45 -61 -60 -63 -37 -6 -43 0 -20 20 13 11 27 20 32 20 5 0 16 7 24 15 17
17 24 19 24 8z m-267 -27 c-10 -13 -22 -22 -27 -19 -5 3 2 14 15 24 32 24 33
24 12 -5z m107 14 c0 -5 -2 -10 -4 -10 -3 0 -8 5 -11 10 -3 6 -1 10 4 10 6 0
11 -4 11 -10z m200 -12 c0 -5 6 -6 13 -2 8 5 8 2 -2 -9 -15 -18 -51 -23 -51
-7 0 6 3 9 8 9 19 -3 23 2 12 16 -11 13 -10 14 4 9 9 -3 16 -10 16 -16z m-476
6 c9 -3 16 -10 16 -16 0 -5 -5 -6 -12 -2 -8 5 -9 1 -4 -12 6 -15 5 -16 -5 -7
-12 12 -22 43 -14 43 2 0 10 -3 19 -6z m674 -6 c10 -10 17 -10 32 0 13 8 21 8
26 1 3 -6 15 -9 25 -6 11 3 16 1 13 -4 -3 -5 3 -21 14 -37 11 -15 18 -37 16
-49 -2 -12 3 -29 12 -37 14 -15 14 -16 -3 -16 -11 0 -34 -11 -53 -25 -19 -14
-40 -23 -47 -21 -6 3 -17 -2 -23 -10 -7 -8 -18 -14 -24 -14 -7 0 -6 3 2 9 10
6 10 10 -3 21 -8 7 -15 9 -15 5 0 -4 -11 4 -25 19 -14 16 -25 39 -25 55 0 28
31 78 58 95 12 7 12 10 1 17 -8 5 -9 9 -3 9 5 0 16 -6 22 -12z m-798 -2 c0 -2
-7 -7 -16 -10 -8 -3 -12 -2 -9 4 6 10 25 14 25 6z m180 -12 c0 -8 -5 -12 -10
-9 -6 4 -8 11 -5 16 9 14 15 11 15 -7z m523 1 c-3 -9 -8 -14 -10 -11 -3 3 -2
9 2 15 9 16 15 13 8 -4z m-308 -4 c3 -5 1 -12 -5 -16 -5 -3 -10 1 -10 9 0 18
6 21 15 7z m630 0 c3 -5 1 -12 -5 -16 -5 -3 -10 1 -10 9 0 18 6 21 15 7z
m-1132 -25 c4 -10 1 -13 -8 -9 -8 3 -12 9 -9 14 7 12 11 11 17 -5z m814 -2
c-3 -3 -12 -4 -19 -1 -8 3 -5 6 6 6 11 1 17 -2 13 -5z m263 -22 c0 -8 -1 -13
-3 -11 -1 2 -9 12 -16 22 -12 15 -12 17 3 11 9 -3 16 -13 16 -22z m-345 0
c-24 -5 -37 -22 -29 -41 3 -10 -2 -9 -16 4 -23 21 -13 41 23 47 28 5 49 -5 22
-10z m415 -7 c0 -8 -4 -16 -8 -19 -4 -2 -8 6 -8 19 0 13 4 21 8 19 4 -3 8 -11
8 -19z m-859 -18 l-24 -22 19 27 c10 14 21 24 23 22 3 -3 -6 -15 -18 -27z
m276 17 c39 -7 41 -13 4 -12 -17 1 -37 8 -44 16 -10 13 -9 14 1 8 7 -4 25 -10
39 -12z m217 8 c3 -5 -1 -9 -9 -9 -8 0 -12 4 -9 9 3 4 7 8 9 8 2 0 6 -4 9 -8z
m331 -13 c-4 -5 -12 -9 -18 -8 -9 0 -8 2 1 6 6 2 9 10 6 15 -4 7 -2 8 5 4 6
-4 9 -12 6 -17z m-765 -9 c0 -5 -7 -7 -15 -4 -8 4 -15 8 -15 10 0 2 7 4 15 4
8 0 15 -4 15 -10z m-170 -12 c0 -4 -6 -8 -14 -8 -8 0 -17 4 -20 8 -2 4 4 8 15
8 10 0 19 -4 19 -8z m67 -8 c14 -18 8 -30 -17 -30 -13 0 -17 -5 -14 -15 5 -11
-1 -15 -19 -15 -14 0 -28 7 -32 18 -5 14 -4 15 6 5 15 -15 33 -17 24 -3 -3 6
1 13 10 16 10 4 15 14 12 25 -6 21 13 21 30 -1z m506 13 c-7 -2 -19 -2 -25 0
-7 3 -2 5 12 5 14 0 19 -2 13 -5z m-720 -40 c-3 -7 -10 -13 -15 -13 -6 0 -7 7
-4 16 3 9 6 21 6 27 0 7 4 7 9 -2 5 -8 7 -20 4 -28z m307 3 c0 -6 -6 -3 -14 6
-10 14 -15 15 -26 5 -12 -10 -12 -9 -1 6 11 13 17 15 27 6 8 -6 14 -17 14 -23z
m51 11 c-10 -9 -11 -8 -5 6 3 10 9 15 12 12 3 -3 0 -11 -7 -18z m261 0 c-25
-27 -28 -39 -8 -31 8 3 16 1 20 -4 3 -5 -5 -8 -16 -7 -12 1 -24 7 -26 13 -2 6
-11 8 -20 5 -9 -3 -14 -3 -10 1 3 4 13 8 21 10 8 1 22 9 31 19 26 26 33 20 8
-6z m428 13 c0 -5 -2 -10 -4 -10 -3 0 -8 5 -11 10 -3 6 -1 10 4 10 6 0 11 -4
11 -10z m-485 -10 c-3 -5 -14 -10 -23 -9 -14 0 -13 2 3 9 27 11 27 11 20 0z
m589 -2 c-3 -5 -10 -6 -15 -2 -5 3 -18 0 -27 -8 -15 -12 -16 -11 -4 4 13 16
56 22 46 6z m-1059 -8 c-3 -5 -13 -10 -21 -10 -8 0 -14 5 -14 10 0 6 9 10 21
10 11 0 17 -4 14 -10z m635 -4 c0 -3 -4 -8 -10 -11 -5 -3 -10 -1 -10 4 0 6 5
11 10 11 6 0 10 -2 10 -4z m360 -19 c0 -2 -12 -3 -27 -4 -16 -1 -22 1 -15 4 6
2 9 9 6 15 -4 6 2 5 15 -1 11 -7 21 -13 21 -14z m-742 -15 c2 -7 -2 -10 -12
-6 -9 3 -16 11 -16 16 0 13 23 5 28 -10z m391 -22 c6 0 11 -4 11 -8 0 -5 -7
-9 -15 -9 -8 0 -15 4 -15 9 0 5 -4 6 -10 3 -5 -3 -10 3 -10 15 0 12 -4 18 -11
15 -6 -4 -8 -14 -4 -22 4 -13 3 -14 -10 -3 -12 10 -16 9 -21 -4 -5 -13 -9 -14
-21 -5 -11 10 -7 15 24 29 37 17 39 17 55 -1 9 -10 21 -19 27 -19z m-765 9
c21 3 27 -1 22 -14 -3 -8 0 -15 7 -15 8 0 7 -4 -3 -10 -9 -6 -11 -13 -5 -17
13 -11 17 -33 6 -33 -12 0 -25 56 -16 70 3 5 -3 10 -14 10 -21 0 -35 13 -24
24 4 3 10 1 13 -5 4 -6 10 -10 14 -10z m303 15 c-3 -3 -12 -4 -19 -1 -8 3 -5
6 6 6 11 1 17 -2 13 -5z m-213 -19 c3 -8 1 -15 -4 -15 -6 0 -10 7 -10 15 0 8
2 15 4 15 2 0 6 -7 10 -15z m64 2 c8 0 7 -6 -5 -19 -20 -23 -37 -24 -29 -1 4
9 1 21 -6 26 -9 6 -6 7 7 2 11 -4 26 -8 33 -8z m102 -7 c0 -5 3 -17 6 -27 4
-13 0 -11 -15 7 -24 30 -27 42 -6 34 8 -4 15 -10 15 -14z m321 9 c-14 -5 -28
-6 -32 -2 -4 4 6 9 24 10 30 1 31 1 8 -8z m554 2 c-3 -6 3 -14 12 -20 10 -5
14 -13 10 -18 -5 -4 -15 1 -23 11 -8 11 -14 16 -14 12 0 -4 -5 -4 -12 0 -8 5
-6 10 8 15 26 10 26 10 19 0z m-798 -23 c-3 -8 -6 -5 -6 6 -1 11 2 17 5 13 3
-3 4 -12 1 -19z m687 7 c-7 -18 -20 -19 -30 -3 -4 6 -3 8 4 4 6 -3 13 -2 17 4
9 15 15 12 9 -5z m-413 -22 c-8 -14 -11 -15 -11 -3 0 11 -4 10 -16 -5 l-16
-20 4 20 c2 12 11 19 21 19 9 -1 17 3 17 9 0 6 3 8 6 4 3 -3 1 -14 -5 -24z
m-438 2 c-3 -9 -8 -14 -10 -11 -3 3 -2 9 2 15 9 16 15 13 8 -4z m57 5 c0 -5
-2 -10 -4 -10 -3 0 -8 5 -11 10 -3 6 -1 10 4 10 6 0 11 -4 11 -10z m430 0 c0
-5 -2 -10 -4 -10 -3 0 -8 5 -11 10 -3 6 -1 10 4 10 6 0 11 -4 11 -10z m-730
-49 c14 -12 18 -18 9 -15 -10 3 -20 1 -23 -4 -8 -13 3 -42 16 -42 6 0 4 8 -3
17 -12 15 -12 16 3 10 9 -3 22 1 30 10 10 13 10 17 1 20 -7 3 -13 12 -13 21 0
13 5 11 20 -8 25 -32 25 -36 -1 -43 -15 -4 -20 -11 -16 -21 4 -9 2 -16 -4 -16
-6 0 -7 -6 -3 -12 4 -7 4 -10 -1 -6 -4 4 -16 3 -26 -2 -12 -7 -22 -6 -33 5
-17 18 -30 20 -20 3 5 -7 3 -8 -5 -3 -25 15 6 30 35 16 15 -6 29 -9 32 -6 3 3
0 5 -6 5 -6 0 -13 8 -16 18 -5 14 -15 18 -40 17 -40 -1 -84 -34 -64 -47 11 -6
11 -8 0 -8 -7 0 -25 8 -39 17 -26 17 -27 17 -20 0 3 -9 4 -17 1 -17 -2 0 -9
10 -14 23 -7 17 -9 18 -9 5 -1 -10 -5 -18 -10 -18 -5 0 -7 9 -4 20 6 23 10 24
42 6 25 -14 51 -11 51 5 0 4 -6 7 -12 5 -7 -1 -10 -1 -5 1 4 3 4 10 1 15 -4 6
-2 8 3 5 6 -4 13 -1 16 7 4 10 -7 16 -36 21 -23 4 -35 10 -27 13 8 3 18 10 23
16 5 8 10 7 16 -3 5 -8 18 -16 28 -17 17 -3 17 -2 -1 12 -19 13 -19 14 7 14
20 0 27 -5 27 -20 0 -11 -4 -20 -10 -20 -5 0 -10 -7 -10 -15 0 -8 5 -15 10
-15 6 0 10 4 10 10 0 5 6 7 14 4 8 -3 17 -1 20 5 4 6 13 8 21 4 8 -3 15 0 15
6 0 7 -7 14 -15 17 -8 4 -15 13 -15 22 0 14 1 14 13 0 6 -9 23 -26 37 -37z
m10 40 c0 -6 -5 -13 -12 -17 -6 -4 -8 -3 -4 4 3 6 -2 13 -11 15 -14 4 -13 5 5
6 12 0 22 -3 22 -8z m137 -6 c0 -8 -4 -12 -9 -9 -4 3 -8 0 -8 -7 0 -7 -2 -10
-5 -7 -7 7 5 38 14 38 4 0 8 -7 8 -15z m903 -5 c-6 -11 -18 -20 -27 -20 -14 0
-14 3 3 19 25 26 37 26 24 1z m-1661 -22 c8 3 11 0 7 -7 -9 -13 -36 -15 -36
-2 0 5 -3 18 -6 28 -4 14 -2 13 8 -3 7 -12 19 -19 27 -16z m900 18 c10 -12 8
-17 -11 -27 -21 -11 -22 -11 -9 5 13 15 13 19 0 27 -8 5 -9 9 -3 9 6 0 17 -6
23 -14z m85 -1 c3 -8 1 -15 -4 -15 -6 0 -10 7 -10 15 0 8 2 15 4 15 2 0 6 -7
10 -15z m53 9 c-3 -3 -12 -4 -19 -1 -8 3 -5 6 6 6 11 1 17 -2 13 -5z m399 -9
c-19 -14 -18 -15 5 -24 15 -6 18 -10 8 -10 -9 -1 -22 5 -28 13 -10 11 -8 17 6
25 26 15 31 13 9 -4z m-621 -14 c-3 -6 -11 -11 -16 -11 -5 0 -4 6 3 14 14 16
24 13 13 -3z m390 1 c-3 -3 -11 0 -18 7 -9 10 -8 11 6 5 10 -3 15 -9 12 -12z
m103 -2 c-7 -10 -14 -18 -15 -16 -6 6 9 36 18 36 5 0 4 -9 -3 -20z m34 3 c-17
-6 4 -33 25 -33 13 0 13 -3 3 -15 -7 -8 -19 -15 -26 -15 -8 0 -11 -6 -8 -15 4
-8 10 -15 16 -15 5 0 7 4 4 8 -2 4 7 9 22 10 l27 2 -29 -15 c-35 -19 -33 -19
-46 6 -9 15 -8 24 1 35 10 13 10 17 -1 24 -11 7 -11 11 0 24 7 9 16 14 19 10
3 -4 0 -9 -7 -11z m-938 -9 c3 -8 10 -13 15 -9 15 9 24 -16 11 -28 -10 -9 -11
-9 -6 1 4 6 2 12 -5 12 -6 0 -18 8 -25 18 -12 16 -13 15 -9 -5 2 -13 -1 -23
-7 -23 -5 0 -8 -7 -4 -15 3 -8 1 -15 -5 -15 -6 0 -6 -8 1 -22 11 -22 10 -22
-4 -4 -9 10 -13 23 -10 27 3 5 -2 9 -11 9 -12 0 -15 -6 -10 -20 5 -15 2 -20
-12 -19 -10 0 -13 3 -5 6 6 2 9 10 5 16 -3 5 7 21 22 33 16 13 26 27 22 31 -5
4 -12 1 -17 -7 -6 -9 -10 -10 -10 -3 0 13 27 32 46 33 7 0 15 -7 18 -16z m986
8 c0 -5 -7 -9 -15 -9 -8 0 -12 4 -9 9 3 4 9 8 15 8 5 0 9 -4 9 -8z m145 -24
c21 -2 25 -5 14 -10 -20 -8 -61 12 -67 32 -3 11 -1 11 9 -2 8 -9 28 -18 44
-20z m-1470 14 c-18 -13 -14 -42 7 -42 10 0 17 -4 13 -10 -3 -6 -15 -5 -31 2
-14 7 -20 14 -14 18 6 4 10 11 9 16 -3 17 1 24 14 24 7 0 8 -3 2 -8z m622 -24
c-3 -7 -5 -2 -5 12 0 14 2 19 5 13 2 -7 2 -19 0 -25z m277 16 c3 -8 2 -12 -4
-9 -6 3 -10 10 -10 16 0 14 7 11 14 -7z m311 -2 c-3 -3 -11 0 -18 7 -9 10 -8
11 6 5 10 -3 15 -9 12 -12z m132 -24 c-3 -7 -5 -2 -5 12 0 14 2 19 5 13 2 -7
2 -19 0 -25z m251 -4 c1 -1 -7 -4 -19 -7 -11 -3 -18 -3 -15 0 3 4 -2 15 -11
26 -18 20 -18 20 12 2 17 -11 31 -20 33 -21z m7 26 c3 -6 -1 -7 -9 -4 -18 7
-21 14 -7 14 6 0 13 -4 16 -10z m-855 -35 c-20 -24 -31 -18 -18 10 8 17 15 22
21 16 7 -7 6 -15 -3 -26z m323 10 c-6 -17 -29 -20 -38 -6 -6 11 25 32 37 25 4
-3 5 -11 1 -19z m-1128 5 c-3 -5 -11 -10 -16 -10 -6 0 -7 5 -4 10 3 6 11 10
16 10 6 0 7 -4 4 -10z m885 -1 c0 7 5 9 10 6 13 -8 13 -45 -1 -45 -5 0 -8 4
-5 9 7 10 -22 25 -44 22 -13 -2 -13 -1 0 8 9 7 19 6 27 -1 9 -7 13 -7 13 1z
m390 -5 c0 -8 -5 -12 -10 -9 -6 4 -8 11 -5 16 9 14 15 11 15 -7z m164 2 c-4
-11 0 -13 15 -9 12 3 21 1 21 -4 0 -6 -11 -9 -25 -8 -14 2 -25 -2 -25 -8 0 -5
-3 -8 -6 -5 -3 4 -1 16 6 27 12 24 22 28 14 7z m-674 -8 c0 -11 -38 -10 -44 1
-3 5 5 8 19 7 14 0 25 -4 25 -8z m180 -3 c7 -9 8 -15 2 -15 -5 0 -12 7 -16 15
-3 8 -4 15 -2 15 2 0 9 -7 16 -15z m764 0 c3 -8 1 -15 -4 -15 -6 0 -10 7 -10
15 0 8 2 15 4 15 2 0 6 -7 10 -15z m56 11 c0 -2 -8 -10 -17 -17 -16 -13 -17
-12 -4 4 13 16 21 21 21 13z m-1801 -9 c-2 -1 -12 -9 -22 -16 -15 -12 -17 -12
-11 3 3 9 13 16 22 16 8 0 13 -1 11 -3z m226 -25 c-8 -8 -25 10 -19 20 4 6 9
5 15 -3 4 -7 6 -15 4 -17z m515 24 c0 -2 -7 -7 -16 -10 -8 -3 -12 -2 -9 4 6
10 25 14 25 6z m548 -21 c-3 -3 -9 2 -12 12 -6 14 -5 15 5 6 7 -7 10 -15 7
-18z m431 22 c-2 -1 -13 -9 -24 -17 -19 -14 -19 -14 -6 3 7 9 18 17 24 17 6 0
8 -1 6 -3z m-1469 -22 c0 -18 16 -20 23 -2 3 7 6 5 6 -5 1 -13 -6 -17 -23 -16
-17 2 -24 8 -23 20 2 22 17 24 17 3z m629 -12 c10 -26 10 -26 -4 -9 -12 16
-17 17 -30 6 -18 -15 -20 -5 -2 15 17 20 22 19 36 -12z m276 -1 c-3 -3 -11 0
-18 7 -9 10 -8 11 6 5 10 -3 15 -9 12 -12z m405 7 c0 -5 5 -7 11 -3 7 4 10 1
7 -6 -6 -18 -38 -22 -38 -5 0 7 -6 16 -12 18 -7 3 -3 6 10 6 12 1 22 -4 22
-10z m42 -11 c-7 -7 -12 -8 -12 -2 0 14 12 26 19 19 2 -3 -1 -11 -7 -17z
m-1527 -2 c-11 -8 -24 -12 -29 -8 -5 3 -1 9 10 13 31 12 39 10 19 -5z m1269 6
c3 -5 -1 -9 -9 -9 -8 0 -12 4 -9 9 3 4 7 8 9 8 2 0 6 -4 9 -8z m-389 -12 c-3
-5 -11 -10 -16 -10 -6 0 -7 5 -4 10 3 6 11 10 16 10 6 0 7 -4 4 -10z m175 0
c0 -5 -7 -7 -15 -4 -8 4 -15 8 -15 10 0 2 7 4 15 4 8 0 15 -4 15 -10z m110 2
c0 -5 -7 -9 -15 -9 -8 0 -12 4 -9 9 3 4 9 8 15 8 5 0 9 -4 9 -8z"/>
<path d="M825 962 c-67 -4 -92 -28 -75 -72 1 -3 1 -9 0 -15 -3 -10 -1 -252 4
-440 1 -61 6 -116 10 -123 4 -7 2 -12 -4 -12 -6 0 -10 -16 -8 -40 l2 -40 227
1 c266 1 246 -10 243 134 -1 50 -3 206 -3 348 -1 273 0 266 -46 257 -5 -1 -62
-1 -126 -1 l-117 1 -15 -42 c-8 -24 -20 -42 -26 -40 -6 1 -11 -5 -11 -13 0 -9
-9 -15 -22 -15 -13 0 -18 4 -13 8 22 15 55 65 55 82 0 22 -12 26 -75 22z m299
-38 c3 -8 2 -12 -4 -9 -6 3 -10 10 -10 16 0 14 7 11 14 -7z m-99 -84 c3 -5 1
-10 -4 -10 -6 0 -11 5 -11 10 0 6 2 10 4 10 3 0 8 -4 11 -10z m163 -13 c13 5
14 3 5 -7 -13 -14 -33 -5 -32 13 0 9 2 9 5 0 3 -7 13 -9 22 -6z m-144 -16 c3
-5 -1 -11 -9 -14 -9 -4 -12 -1 -8 9 6 16 10 17 17 5z m-163 -24 c-10 -9 -11
-8 -5 6 3 10 9 15 12 12 3 -3 0 -11 -7 -18z m-66 -55 c-3 -3 -11 0 -18 7 -9
10 -8 11 6 5 10 -3 15 -9 12 -12z m161 -29 c7 -1 28 -3 48 -5 26 -1 35 -6 31
-16 -3 -7 -5 -21 -5 -31 0 -15 -10 -17 -72 -15 -91 1 -85 -1 -90 28 -5 26 7
36 43 36 10 0 19 6 19 13 0 7 3 8 8 2 4 -5 12 -11 18 -12z m169 -23 c3 -5 -1
-10 -10 -10 -9 0 -13 5 -10 10 3 6 8 10 10 10 2 0 7 -4 10 -10z m-336 -13 c8
-10 7 -14 -4 -14 -8 0 -12 4 -9 8 2 4 -2 10 -8 12 -8 4 -9 6 -2 6 6 1 17 -5
23 -12z m291 -42 c7 -9 8 -15 2 -15 -5 0 -12 7 -16 15 -3 8 -4 15 -2 15 2 0 9
-7 16 -15z m52 -2 c-5 -10 -7 -25 -5 -33 4 -13 3 -13 -6 0 -10 13 -13 13 -25
-3 -13 -17 -46 -14 -46 4 0 13 18 11 22 -2 2 -5 17 3 33 20 35 35 39 37 27 14z
m-348 -52 c-5 -6 -33 31 -33 44 -1 6 8 -1 19 -15 10 -14 17 -27 14 -29z m166
39 c0 -5 -7 -7 -15 -4 -9 4 -15 0 -15 -10 0 -10 -6 -13 -15 -10 -8 4 -22 1
-30 -6 -8 -7 -15 -8 -15 -3 0 10 55 39 78 42 6 0 12 -3 12 -9z m-140 -10 c0
-5 -2 -10 -4 -10 -3 0 -8 5 -11 10 -3 6 -1 10 4 10 6 0 11 -4 11 -10z m40 -6
c0 -2 -7 -4 -15 -4 -8 0 -15 4 -15 10 0 5 7 7 15 4 8 -4 15 -8 15 -10z m100
-19 c11 -13 10 -14 -4 -9 -9 3 -16 10 -16 15 0 13 6 11 20 -6z m-110 -19 c0
-6 -5 -18 -11 -26 -8 -12 -9 -10 -4 8 4 13 2 22 -4 22 -6 0 -11 4 -11 10 0 5
7 7 15 4 8 -4 15 -11 15 -18z m63 10 c4 -10 1 -13 -8 -9 -8 3 -12 9 -9 14 7
12 11 11 17 -5z m151 -18 c-3 -5 -12 -4 -20 3 -19 16 -18 18 6 12 11 -3 17 -9
14 -15z m86 15 c-8 -3 -22 -11 -30 -17 -13 -10 -13 -9 -1 7 7 9 21 17 30 16
13 0 14 -1 1 -6z m-164 -18 c-8 -8 -18 -15 -22 -15 -3 0 -1 7 6 15 7 8 17 15
22 15 5 0 3 -7 -6 -15z m-91 -5 c3 -6 -1 -7 -9 -4 -18 7 -21 14 -7 14 6 0 13
-4 16 -10z m274 3 c-3 -20 2 -34 11 -28 6 3 10 4 10 1 0 -2 3 -12 7 -21 5 -15
3 -16 -17 -5 -20 11 -22 10 -17 -4 4 -9 3 -16 -2 -16 -15 0 -21 13 -10 26 6 8
9 20 6 28 -3 8 -3 17 0 20 8 8 13 8 12 -1z m-296 -41 c-6 -15 -5 -16 13 -2 11
9 38 15 66 15 30 -1 45 3 41 10 -3 5 0 5 7 -2 9 -9 19 -9 32 -2 17 9 18 8 7
-10 -10 -14 -10 -26 -2 -43 l10 -23 -81 0 c-44 0 -87 -4 -94 -9 -9 -6 -11 -4
-6 8 3 9 3 24 -2 34 -13 29 -12 51 2 45 7 -2 10 -12 7 -21z m210 1 c-7 -2 -19
-2 -25 0 -7 3 -2 5 12 5 14 0 19 -2 13 -5z m-283 -23 c8 -5 11 -10 5 -10 -5 0
-17 5 -25 10 -8 5 -10 10 -5 10 6 0 17 -5 25 -10z m275 -8 c-3 -3 -11 0 -18 7
-9 10 -8 11 6 5 10 -3 15 -9 12 -12z m24 -43 c-13 -25 -11 -29 9 -30 11 0 12
-2 4 -6 -13 -5 -52 23 -52 38 0 4 7 15 16 24 13 13 19 14 25 4 4 -7 3 -21 -2
-30z m38 10 c-3 -10 0 -20 7 -23 6 -2 3 -5 -7 -5 -12 -1 -17 5 -15 17 1 9 -1
23 -5 29 -6 9 -3 11 8 7 10 -4 15 -14 12 -25z m-357 7 c0 -3 -4 -8 -10 -11 -5
-3 -10 -1 -10 4 0 6 5 11 10 11 6 0 10 -2 10 -4z m70 -12 c0 -2 -7 -4 -15 -4
-8 0 -15 4 -15 10 0 5 7 7 15 4 8 -4 15 -8 15 -10z m-72 -39 c-6 -14 -13 -24
-14 -22 -6 6 9 47 17 47 5 0 3 -11 -3 -25z m71 4 c-17 -17 -23 -18 -36 -7 -14
11 -13 13 8 19 43 12 49 9 28 -12z m151 -19 c-8 -5 -17 -6 -20 -3 -3 3 1 8 8
10 6 3 9 10 6 16 -4 7 -1 7 7 -1 12 -11 12 -14 -1 -22z m187 16 c-3 -8 -1 -17
6 -20 9 -3 9 -5 0 -5 -15 -1 -26 16 -18 29 9 15 18 12 12 -4z m-224 -16 c3
-11 1 -18 -4 -14 -5 3 -9 12 -9 20 0 20 7 17 13 -6z m117 -20 c0 -16 -5 -32
-10 -35 -12 -7 -4 -25 11 -25 6 0 7 5 4 10 -3 6 3 10 14 10 15 0 19 4 14 17
-5 12 -1 11 15 -5 26 -26 28 -54 5 -73 -15 -13 -15 -12 -5 8 15 28 15 36 0 27
-8 -5 -9 -2 -4 11 6 16 4 16 -10 4 -10 -8 -12 -15 -5 -17 6 -2 11 -8 11 -13 0
-4 -7 -5 -17 -2 -10 4 -14 2 -9 -5 3 -6 1 -14 -5 -18 -9 -5 -10 0 -7 14 4 15
2 22 -8 22 -8 0 -13 -3 -13 -7 3 -21 -2 -43 -11 -43 -5 0 -7 6 -4 13 4 10 -6
13 -38 12 -24 -2 -59 0 -79 2 -35 5 -35 6 -29 41 5 32 9 37 30 35 14 -2 44 -4
67 -5 22 -2 39 -6 36 -10 -2 -5 2 -8 10 -8 18 0 26 20 23 54 -2 14 1 23 5 20
5 -3 9 -18 9 -34z m-145 19 c11 -17 -1 -21 -15 -4 -8 9 -8 15 -2 15 6 0 14 -5
17 -11z m112 -4 c0 -8 -4 -15 -9 -15 -10 0 -11 14 -1 23 9 10 10 9 10 -8z
m-157 -5 c12 -8 12 -10 -3 -16 -9 -3 -14 -11 -10 -18 3 -6 2 -8 -2 -3 -10 9
-15 47 -6 47 3 0 13 -4 21 -10z m-70 -10 c0 -13 -11 -13 -30 0 -12 8 -11 10 8
10 12 0 22 -4 22 -10z m300 6 c0 -2 -7 -7 -16 -10 -8 -3 -12 -2 -9 4 6 10 25
14 25 6z m-296 -34 c2 -4 -4 -8 -15 -8 -10 0 -19 4 -19 8 0 4 6 8 14 8 8 0 17
-4 20 -8z m356 -23 c0 -6 -4 -7 -10 -4 -5 3 -10 11 -10 16 0 6 5 7 10 4 6 -3
10 -11 10 -16z m17 -1 c-3 -8 -6 -5 -6 6 -1 11 2 17 5 13 3 -3 4 -12 1 -19z
m-387 -8 c0 -5 -2 -10 -4 -10 -3 0 -8 5 -11 10 -3 6 -1 10 4 10 6 0 11 -4 11
-10z m70 -25 c0 -8 -2 -15 -4 -15 -2 0 -6 7 -10 15 -3 8 -1 15 4 15 6 0 10 -7
10 -15z m320 5 c0 -5 -2 -10 -4 -10 -3 0 -8 5 -11 10 -3 6 -1 10 4 10 6 0 11
-4 11 -10z m-402 -21 c-2 -6 3 -14 11 -17 10 -3 12 0 8 14 -6 17 -6 17 5 3 7
-9 20 -18 28 -22 8 -3 2 -5 -15 -4 -31 1 -55 13 -55 28 0 5 5 9 10 9 6 0 9 -5
8 -11z m362 -9 c0 -5 -5 -10 -11 -10 -5 0 -7 5 -4 10 3 6 8 10 11 10 2 0 4 -4
4 -10z"/>
<path d="M1087 443 c-10 -9 -9 -23 2 -23 5 0 11 7 15 15 5 15 -5 20 -17 8z"/>
<path d="M1046 295 c4 -8 10 -12 15 -9 14 8 10 24 -6 24 -9 0 -12 -6 -9 -15z"/>
<path d="M1927 953 c-2 -4 -3 -26 -2 -47 l1 -40 180 2 c158 2 276 2 293 0 3 0
45 0 94 1 68 1 87 4 87 15 0 8 6 17 13 19 22 9 -45 56 -80 55 -20 -1 -30 -5
-26 -14 2 -6 -1 -15 -8 -20 -7 -4 -10 -3 -6 3 12 19 -17 30 -86 32 -50 2 -67
-1 -62 -9 6 -9 2 -9 -13 -1 -11 6 -34 11 -50 11 -26 0 -28 -3 -24 -29 3 -22 8
-28 21 -24 12 5 13 3 4 -7 -16 -17 -29 -6 -36 30 -5 24 -12 30 -32 30 -14 0
-25 -6 -25 -12 0 -8 -3 -9 -8 -3 -7 11 -72 14 -72 4 0 -3 -7 -6 -15 -6 -8 0
-15 3 -15 7 0 10 -128 12 -133 3z m453 -34 c0 -6 -4 -7 -10 -4 -5 3 -10 11
-10 16 0 6 5 7 10 4 6 -3 10 -11 10 -16z m-340 -14 c-7 -8 -16 -15 -21 -15 -5
0 -1 8 9 18 20 22 31 19 12 -3z m366 -5 c0 -12 -4 -16 -9 -11 -5 5 -6 14 -3
20 10 15 12 14 12 -9z m-339 -16 c-3 -3 -12 -4 -19 -1 -8 3 -5 6 6 6 11 1 17
-2 13 -5z"/>
<path d="M1303 862 c1 -20 6 -43 10 -49 5 -8 4 -13 -2 -13 -6 0 -10 -38 -10
-95 0 -53 3 -94 7 -91 4 2 7 -11 7 -30 0 -19 -2 -34 -5 -34 -3 0 -5 -27 -5
-59 0 -33 3 -57 6 -55 4 2 10 -3 13 -12 3 -8 2 -12 -4 -9 -6 4 -10 -9 -10 -29
l0 -36 66 0 c97 0 106 7 100 85 -2 36 -8 70 -12 76 -5 8 -3 9 5 5 9 -6 11 6 8
51 -2 32 -7 65 -12 73 -5 8 -4 11 1 7 6 -3 10 29 11 79 1 56 -2 84 -10 84 -8
0 -7 4 1 12 7 7 12 26 12 44 l0 32 -89 0 -89 0 1 -36z m62 8 c-3 -5 -11 -10
-16 -10 -6 0 -7 5 -4 10 3 6 11 10 16 10 6 0 7 -4 4 -10z m25 -2 c0 -19 -18
-44 -25 -36 -4 3 0 15 7 27 15 24 18 26 18 9z m-30 -69 c0 -6 -4 -7 -10 -4 -5
3 -10 11 -10 16 0 6 5 7 10 4 6 -3 10 -11 10 -16z m-13 -91 c-3 -7 -5 -2 -5
12 0 14 2 19 5 13 2 -7 2 -19 0 -25z m93 -48 c0 -5 -2 -10 -4 -10 -3 0 -8 5
-11 10 -3 6 -1 10 4 10 6 0 11 -4 11 -10z m-68 -40 c-20 -24 -27 -19 -13 8 6
11 7 23 3 28 -4 5 1 3 10 -4 15 -12 15 -15 0 -32z m-32 20 c0 -5 -4 -10 -10
-10 -5 0 -10 5 -10 10 0 6 5 10 10 10 6 0 10 -4 10 -10z m105 -50 c-3 -5 -12
-10 -18 -10 -7 0 -6 4 3 10 19 12 23 12 15 0z m-89 -44 c-26 -28 -29 -26 -14
6 7 14 18 24 24 21 8 -3 5 -12 -10 -27z m13 -72 c6 4 11 2 11 -4 0 -17 -33 -8
-37 10 -4 12 -3 13 5 1 5 -7 15 -10 21 -7z m45 7 c3 -5 -1 -11 -9 -14 -9 -4
-12 -1 -8 9 6 16 10 17 17 5z m1 -41 c3 -6 -1 -7 -9 -4 -18 7 -21 14 -7 14 6
0 13 -4 16 -10z m-60 -10 c3 -5 2 -10 -4 -10 -5 0 -13 5 -16 10 -3 6 -2 10 4
10 5 0 13 -4 16 -10z m100 -11 c11 -16 1 -19 -13 -3 -7 8 -8 14 -3 14 5 0 13
-5 16 -11z m-32 -25 c9 -17 9 -17 -6 -6 -14 12 -19 12 -32 -2 -9 -9 -19 -16
-23 -16 -3 0 -1 5 5 11 6 6 9 17 7 24 -8 20 37 10 49 -11z"/>
<path d="M1565 710 c-9 -18 3 -102 15 -110 10 -7 11 -10 3 -10 -7 0 -13 -4
-13 -10 0 -18 30 -11 31 8 0 12 2 13 6 3 5 -11 7 -11 14 0 7 11 9 11 9 -1 0
-9 9 -16 20 -16 24 0 25 14 4 44 -20 29 -11 28 20 -3 14 -14 21 -25 15 -25 -6
0 -8 -4 -4 -10 3 -6 15 -6 29 0 13 5 27 5 32 1 5 -5 25 -6 45 -4 l35 5 2 67 2
68 -131 -1 c-72 -1 -132 -3 -134 -6z m201 -12 c4 -6 3 -8 -3 -5 -6 4 -13 -2
-16 -13 -5 -20 -27 -28 -27 -10 0 6 5 10 11 10 5 0 8 4 5 9 -4 5 0 12 6 14 7
3 14 6 15 6 1 1 5 -4 9 -11z m-146 -8 c0 -5 -2 -10 -4 -10 -3 0 -8 5 -11 10
-3 6 -1 10 4 10 6 0 11 -4 11 -10z m83 -13 c-3 -6 2 -16 12 -23 10 -8 16 -16
14 -18 -3 -3 -17 5 -32 18 -27 24 -28 33 -2 33 8 0 11 -5 8 -10z m-53 -12 c0
-9 -6 -12 -16 -8 -13 5 -13 7 -2 14 17 11 18 11 18 -6z m146 7 c13 -8 16 -64
3 -56 -5 3 -9 0 -9 -5 0 -6 5 -11 12 -11 6 0 8 -3 4 -7 -3 -4 -20 8 -37 26
-16 18 -27 36 -24 40 4 3 11 -2 16 -12 6 -9 15 -17 22 -17 7 0 6 4 -3 10 -12
8 -12 10 5 10 18 1 18 2 -2 10 -13 5 -23 12 -23 15 0 7 23 6 36 -3z m-177 -49
c-22 -26 -53 -8 -42 24 4 9 11 9 29 1 18 -9 21 -14 13 -25z m121 -13 c0 -5 -2
-10 -4 -10 -3 0 -8 5 -11 10 -3 6 -1 10 4 10 6 0 11 -4 11 -10z m25 -10 c3 -5
1 -10 -4 -10 -6 0 -11 5 -11 10 0 6 2 10 4 10 3 0 8 -4 11 -10z"/>
<path d="M1590 629 c0 -5 5 -7 10 -4 6 3 10 8 10 11 0 2 -4 4 -10 4 -5 0 -10
-5 -10 -11z"/>
</g>
</svg>
