<?xml version="1.0" standalone="no"?>
<!DOCTYPE svg PUBLIC "-//W3C//DTD SVG 20010904//EN"
 "http://www.w3.org/TR/2001/REC-SVG-20010904/DTD/svg10.dtd">
<svg version="1.0" xmlns="http://www.w3.org/2000/svg"
 width="329.000000pt" height="209.000000pt" viewBox="0 0 329.000000 209.000000"
 preserveAspectRatio="xMidYMid meet">

<g transform="translate(0.000000,209.000000) scale(0.100000,-0.100000)"
fill="#000000" stroke="none">
<path d="M942 1754 c-12 -8 -22 -21 -22 -28 0 -8 -10 -21 -22 -29 -22 -15 -21
-16 32 -16 30 -1 49 3 43 7 -9 6 -7 13 10 27 21 19 38 20 282 20 264 0 311 -6
341 -41 6 -7 35 -16 65 -20 50 -7 53 -6 40 10 -8 9 -16 14 -18 12 -3 -3 -15 5
-27 18 -43 46 -72 50 -396 53 -264 3 -309 1 -328 -13z m251 -1 c-7 -2 -21 -2
-30 0 -10 3 -4 5 12 5 17 0 24 -2 18 -5z m140 0 c-7 -2 -19 -2 -25 0 -7 3 -2
5 12 5 14 0 19 -2 13 -5z m90 0 c-13 -2 -35 -2 -50 0 -16 2 -5 4 22 4 28 0 40
-2 28 -4z"/>
<path d="M1007 1703 c-4 -3 -7 -12 -7 -20 0 -10 23 -13 95 -13 l95 0 0 -199
c0 -121 -4 -211 -11 -228 -6 -15 -13 -48 -15 -73 -4 -43 -16 -78 -55 -166 -34
-73 -32 -75 76 -72 52 2 95 6 95 10 0 5 12 8 26 8 37 0 57 14 89 62 44 65 76
98 120 120 37 19 50 20 220 13 99 -3 259 -6 355 -5 209 2 245 13 279 84 19 38
21 61 21 219 0 111 -4 177 -10 177 -5 0 -10 -8 -10 -17 0 -10 -3 -14 -8 -8
-10 14 -362 20 -362 6 0 -17 -39 -13 -57 5 -15 14 -17 14 -25 0 -5 -9 -18 -16
-29 -16 -11 0 -18 4 -15 9 8 13 -57 23 -149 23 -44 0 -72 2 -62 5 28 7 19 22
-18 29 -41 7 -40 8 -49 -28 -6 -26 -5 -27 46 -30 52 -3 53 -4 56 -37 4 -34
-16 -68 -25 -43 -3 7 -23 12 -49 12 l-44 0 0 80 c0 77 -1 81 -26 90 -28 11
-537 14 -547 3z m509 -44 c9 -15 6 -301 -4 -311 -4 -4 -63 -8 -132 -9 l-125
-1 -3 166 -2 166 129 0 c86 0 132 -4 137 -11z m140 -199 c42 0 44 -1 44 -30
l0 -30 -60 0 -60 0 0 36 c0 29 3 35 16 30 9 -3 36 -6 60 -6z m614 -52 c26 -42
25 -79 -1 -112 l-20 -26 -152 0 c-84 0 -162 3 -175 6 -24 7 -52 60 -52 99 0
13 11 33 26 44 25 19 40 21 190 21 l164 0 20 -32z m-1070 -222 c0 -3 -4 -8
-10 -11 -5 -3 -10 -1 -10 4 0 6 5 11 10 11 6 0 10 -2 10 -4z"/>
<path d="M1291 1505 l0 -125 89 0 c79 0 90 2 90 18 0 9 3 27 6 40 6 21 4 22
-62 24 -66 2 -67 2 -14 5 72 5 94 13 60 23 -23 7 -23 8 -3 9 12 1 25 6 28 11
4 6 -20 11 -62 12 l-68 2 63 3 63 4 -3 49 -3 50 -92 0 -92 0 0 -125z m56 19
c-3 -3 -12 -4 -19 -1 -8 3 -5 6 6 6 11 1 17 -2 13 -5z"/>
<path d="M1949 1392 c-17 -3 -29 -37 -21 -60 3 -9 44 -12 148 -12 l144 0 10
26 c19 49 1 55 -139 52 -69 -1 -133 -4 -142 -6z"/>
<path d="M835 1620 c-28 -4 -100 -27 -160 -51 -96 -38 -118 -51 -171 -104 -81
-80 -124 -169 -124 -254 0 -41 4 -63 13 -66 6 -2 46 -5 89 -8 l76 -4 -9 26
c-23 59 15 148 95 224 69 66 187 104 266 86 113 -26 179 -77 216 -168 9 -22
20 -41 26 -41 5 0 6 5 3 10 -4 6 -7 81 -8 166 -1 122 -4 157 -14 161 -8 3 -12
12 -9 19 4 11 -17 14 -117 13 -67 -1 -145 -5 -172 -9z"/>
<path d="M2437 1590 c-3 -14 -6 -92 -6 -175 -1 -82 -6 -166 -11 -186 -13 -48
-77 -106 -127 -115 -21 -4 -192 -4 -380 -1 -230 4 -352 3 -372 -4 -34 -12 -86
-79 -116 -147 -10 -23 -24 -47 -31 -53 -13 -11 -351 -15 -362 -5 -3 3 16 55
42 115 67 157 63 227 -21 329 -99 121 -278 123 -398 6 -53 -52 -74 -97 -79
-175 l-4 -64 -103 -9 c-125 -11 -129 -8 -129 98 0 53 7 86 26 131 35 82 41
104 23 88 -7 -7 -28 -13 -47 -13 -49 0 -66 -45 -66 -180 0 -116 4 -151 24
-174 7 -9 9 -16 4 -16 -5 0 -1 -5 9 -11 9 -6 15 -15 11 -20 -3 -5 11 -16 30
-24 20 -9 36 -22 36 -30 0 -20 78 -75 107 -75 35 0 27 -15 -14 -27 l-38 -10
33 -2 c36 -1 70 -25 52 -36 -6 -4 -8 -10 -5 -15 6 -10 -51 -136 -65 -145 -6
-4 -8 -10 -5 -15 3 -5 1 -11 -5 -15 -15 -9 -12 -25 4 -25 8 0 18 -5 22 -11 5
-9 -1 -10 -22 -5 -28 6 -28 6 -9 -9 18 -15 18 -15 -13 -9 -46 9 -40 -3 13 -26
36 -15 45 -24 45 -44 0 -14 -5 -28 -12 -32 -8 -5 -9 -2 -5 10 7 18 -26 36 -68
36 -24 0 -41 -25 -24 -36 6 -4 5 -10 -4 -17 -23 -19 -27 -44 -9 -62 28 -27
253 -135 282 -135 15 0 38 8 50 18 22 18 22 19 5 45 -9 15 -21 27 -25 27 -5 0
-16 3 -26 7 -11 4 -15 2 -11 -4 4 -5 -5 -15 -19 -22 -33 -15 -32 -15 -27 13 4
18 13 26 38 30 18 4 41 4 51 0 18 -5 18 -5 0 10 -18 14 -18 19 -5 58 15 46
116 244 163 319 16 25 38 52 48 58 41 25 289 40 330 19 15 -7 16 -12 3 -42 -8
-19 -17 -47 -20 -64 -4 -24 -1 -31 16 -35 15 -4 25 3 41 27 24 36 73 56 139
56 48 0 69 18 69 58 0 32 54 129 97 174 l27 28 212 0 c203 0 212 -1 217 -20 5
-20 0 -20 -208 -20 l-213 0 -31 -35 c-17 -20 -31 -42 -31 -50 0 -8 -7 -15 -15
-15 -8 0 -15 -4 -15 -10 0 -5 5 -10 10 -10 7 0 7 -7 0 -20 -6 -12 -9 -44 -7
-73 3 -41 10 -59 34 -84 17 -18 36 -33 43 -33 6 0 9 -4 6 -9 -3 -5 13 -11 36
-15 27 -5 44 -3 49 5 4 7 13 9 21 6 20 -7 42 8 34 22 -4 6 -15 11 -24 12 -12
0 -10 3 6 10 21 8 23 14 19 61 -4 54 14 118 33 118 6 0 10 -48 10 -124 0 -104
3 -125 16 -130 39 -15 44 -8 44 59 0 39 4 65 11 65 5 0 7 -5 4 -10 -3 -5 -1
-10 4 -10 6 0 11 14 11 30 0 17 4 38 9 48 5 9 13 26 17 37 13 37 23 -53 17
-152 -5 -83 -8 -92 -27 -96 -21 -4 -21 -4 1 -6 12 0 28 7 35 17 17 22 63 29
54 7 -3 -8 -2 -15 3 -15 13 0 21 54 21 136 0 43 4 74 10 74 6 0 10 -21 10 -47
0 -25 3 -44 6 -40 6 6 10 44 13 115 0 23 6 42 11 42 6 0 10 -50 10 -130 l0
-131 25 4 c13 1 27 6 31 10 4 4 18 7 31 7 14 0 21 4 18 10 -3 6 -1 10 4 10 7
0 9 26 6 75 -3 48 -1 74 5 70 9 -5 14 23 13 63 -1 7 6 12 16 10 14 -3 16 -21
19 -123 3 -113 8 -134 35 -135 4 0 8 26 8 58 1 31 4 46 6 32 2 -14 7 -32 10
-40 3 -8 6 -18 5 -22 -1 -3 5 -9 13 -12 10 -4 15 1 15 14 0 11 6 20 13 20 6 1
1 7 -12 14 -16 9 -19 14 -10 18 9 4 14 21 13 52 0 30 4 46 12 46 9 0 11 11 7
38 -3 20 -5 53 -4 74 0 20 -6 41 -14 48 -8 7 -15 19 -15 26 0 11 -22 14 -105
14 -58 0 -105 4 -105 8 0 24 30 32 117 32 98 0 120 -9 137 -54 5 -14 2 -17 -9
-12 -20 7 -19 -1 5 -26 11 -12 20 -28 20 -35 0 -7 5 -13 10 -13 6 0 10 5 10
10 0 6 7 10 16 10 11 0 14 5 9 18 -4 9 -10 37 -12 62 -4 40 -1 50 32 92 20 26
41 64 46 85 5 21 9 130 9 243 l0 205 -24 0 c-18 0 -26 -6 -29 -25z m-1510
-231 c69 -26 123 -109 123 -189 0 -70 -19 -110 -75 -156 -43 -35 -54 -39 -115
-42 -60 -4 -75 -1 -118 23 -41 22 -55 37 -71 76 -48 110 -1 238 104 285 36 16
114 18 152 3z m1093 -529 c0 -5 -2 -10 -4 -10 -3 0 -8 5 -11 10 -3 6 -1 10 4
10 6 0 11 -4 11 -10z m-1257 -27 c-7 -2 -19 -2 -25 0 -7 3 -2 5 12 5 14 0 19
-2 13 -5z m1093 -50 c-11 -11 -19 6 -11 24 8 17 8 17 12 0 3 -10 2 -21 -1 -24z
m-1396 -287 c0 -3 -4 -8 -10 -11 -5 -3 -10 -1 -10 4 0 6 5 11 10 11 6 0 10 -2
10 -4z m-13 -42 c-3 -3 -12 -4 -19 -1 -8 3 -5 6 6 6 11 1 17 -2 13 -5z m158
-144 c3 -5 2 -10 -4 -10 -5 0 -13 5 -16 10 -3 6 -2 10 4 10 5 0 13 -4 16 -10z
m75 -5 c0 -8 -4 -15 -10 -15 -5 0 -7 7 -4 15 4 8 8 15 10 15 2 0 4 -7 4 -15z"/>
<path d="M775 1274 c-35 -37 -45 -114 -22 -151 5 -9 3 -13 -7 -13 -9 0 -16 7
-16 15 0 8 -4 15 -9 15 -16 0 7 -55 33 -79 29 -28 112 -52 140 -41 23 8 55 40
40 40 -5 0 -18 -7 -28 -15 -11 -8 -29 -15 -40 -15 -16 0 -11 7 21 28 24 15 43
32 43 39 0 6 5 13 12 15 16 6 16 111 0 131 -7 8 -10 21 -7 29 7 19 -21 28 -88
28 -39 0 -52 -5 -72 -26z"/>
<path d="M945 1260 c3 -5 8 -10 11 -10 2 0 4 5 4 10 0 6 -5 10 -11 10 -5 0 -7
-4 -4 -10z"/>
<path d="M701 1204 c0 -11 3 -14 6 -6 3 7 2 16 -1 19 -3 4 -6 -2 -5 -13z"/>
<path d="M999 1165 c-5 -50 -4 -63 7 -53 3 3 4 28 2 54 l-3 49 -6 -50z"/>
<path d="M967 1103 c-4 -3 -7 -11 -7 -17 0 -6 5 -5 12 2 6 6 9 14 7 17 -3 3
-9 2 -12 -2z"/>
<path d="M2600 1612 c-25 -2 -49 -7 -54 -12 -5 -5 -12 -106 -15 -224 -5 -188
-8 -216 -24 -234 -18 -20 -18 -20 3 -27 16 -5 20 -12 16 -28 -3 -12 -6 -25 -6
-28 0 -4 -7 -9 -15 -13 -12 -4 -14 1 -11 29 6 49 -11 43 -35 -11 -22 -49 -19
-86 8 -116 13 -14 32 -18 88 -18 84 0 95 8 103 73 7 64 2 588 -6 601 -4 6 -27
10 -52 8z m28 -49 c-10 -2 -26 -2 -35 0 -10 3 -2 5 17 5 19 0 27 -2 18 -5z m0
-110 c-10 -2 -28 -2 -40 0 -13 2 -5 4 17 4 22 1 32 -1 23 -4z m-11 -149 c-3
-3 -12 -4 -19 -1 -8 3 -5 6 6 6 11 1 17 -2 13 -5z m-9 -81 c-10 -2 -26 -2 -35
0 -10 3 -2 5 17 5 19 0 27 -2 18 -5z m-5 -200 c-7 -2 -21 -2 -30 0 -10 3 -4 5
12 5 17 0 24 -2 18 -5z m0 -30 c-13 -2 -35 -2 -50 0 -16 2 -5 4 22 4 28 0 40
-2 28 -4z"/>
<path d="M2700 1283 c0 -175 -2 -327 -4 -338 -2 -11 -1 -14 1 -7 3 8 11 11 18
8 7 -2 16 2 19 11 4 8 6 153 6 321 0 304 -1 321 -32 322 -5 0 -8 -143 -8 -317z"/>
<path d="M2785 1521 c-8 -14 -17 -457 -10 -481 5 -16 15 -19 59 -19 34 1 60 7
76 19 23 17 23 19 24 227 1 229 -2 243 -55 243 -15 0 -31 5 -34 10 -8 13 -52
13 -60 1z"/>
<path d="M2988 1453 c-16 -4 -18 -21 -18 -177 0 -163 1 -172 20 -173 18 -2 19
7 22 178 2 98 1 178 -2 178 -3 -1 -13 -3 -22 -6z"/>
<path d="M3054 1385 c3 -10 1 -25 -6 -33 -11 -13 -10 -15 5 -9 11 4 17 1 17
-9 0 -8 -4 -12 -10 -9 -5 3 -10 -1 -10 -9 0 -9 5 -16 12 -16 7 0 5 -5 -4 -12
-21 -17 -31 -119 -11 -111 7 3 13 0 13 -5 0 -6 -8 -12 -17 -15 -17 -4 -17 -4
0 -12 10 -4 21 -4 25 0 4 3 7 61 7 127 0 95 -3 122 -14 126 -10 3 -12 0 -7
-13z"/>
<path d="M2178 1003 c17 -2 47 -2 65 0 17 2 3 4 -33 4 -36 0 -50 -2 -32 -4z"/>
<path d="M2498 883 c7 -3 16 -2 19 1 4 3 -2 6 -13 5 -11 0 -14 -3 -6 -6z"/>
<path d="M2578 883 c7 -3 16 -2 19 1 4 3 -2 6 -13 5 -11 0 -14 -3 -6 -6z"/>
<path d="M1185 800 c3 -5 8 -10 11 -10 2 0 4 5 4 10 0 6 -5 10 -11 10 -5 0 -7
-4 -4 -10z"/>
<path d="M1858 698 c-2 -7 -1 -26 3 -43 6 -28 7 -26 8 13 1 42 -3 53 -11 30z"/>
<path d="M1194 671 c10 -16 -23 -33 -54 -29 -39 6 -25 -7 15 -15 36 -7 47 -1
64 31 10 19 9 22 -9 22 -12 0 -19 -4 -16 -9z"/>
<path d="M837 654 c-4 -4 -7 -14 -7 -23 0 -11 3 -12 11 -4 6 6 10 16 7 23 -2
6 -7 8 -11 4z"/>
<path d="M909 630 c24 -4 58 -3 75 1 22 5 9 7 -44 7 -65 0 -69 -1 -31 -8z"/>
<path d="M1048 633 c12 -2 30 -2 40 0 9 3 -1 5 -23 4 -22 0 -30 -2 -17 -4z"/>
<path d="M1618 593 c7 -3 16 -2 19 1 4 3 -2 6 -13 5 -11 0 -14 -3 -6 -6z"/>
<path d="M795 580 c-3 -6 1 -7 9 -4 18 7 21 14 7 14 -6 0 -13 -4 -16 -10z"/>
<path d="M706 403 c-6 -14 -5 -15 5 -6 7 7 10 15 7 18 -3 3 -9 -2 -12 -12z"/>
</g>
</svg>
